<!-- Generator: visioncortex VTracer 0.6.12 -->
<svg xmlns="http://www.w3.org/2000/svg" viewBox="0 0 128 113" width="128" height="113" shape-rendering="geometricPrecision">
<path d="M0 0 C0.6 0.3 1.2 0.6 1.9 0.9 C3.8 1.9 5.8 2.8 7.8 3.8 C11.6 5.7 15.4 7.6 19.2 9.4 C21.1 10.3 22.9 11.2 24.7 12.3 C31.3 15.6 36.4 11.7 42.1 8.5 C44.3 7.4 46.4 6.3 48.5 5.1 C49.6 4.6 50.6 4 51.6 3.5 C55.1 1.6 58.5 -0.2 62.1 -1.9 C63 -2.3 63.9 -2.8 64.9 -3.3 C68.2 -4.3 70 -3.8 73.4 -3.1 C74.2 -2.9 74.9 -2.8 75.7 -2.7 C83.3 -1.1 90.7 1.4 93.7 9.1 C95.5 17.6 95.6 26.2 95.4 34.9 C95.4 38 95.4 41.1 95.6 44.3 C97.1 72 97.1 72 86.5 79.2 C80.6 82.8 74.2 85.3 67.8 87.7 C63.7 89.2 60 91.2 56.3 93.3 C55.2 93.9 54.2 94.5 53.1 95 C52.1 95.6 51.1 96.1 50.1 96.6 C49.1 97.2 48 97.8 46.9 98.3 C46.4 98.6 46.4 98.6 43.8 100 C42.9 100.5 42 101 41 101.5 C38.8 102.8 36.7 104.1 34.5 105.4 C29.5 107.9 26 105.9 21.3 103.4 C20.3 102.9 19.3 102.4 18.2 101.8 C17.7 101.6 17.7 101.6 15 100.1 C13.9 99.6 12.8 99 11.7 98.4 C-8 88 -8 88 -17.7 82.5 C-20.6 80.9 -20.6 80.9 -23.8 79.7 C-30.7 76.8 -34.3 74.7 -35.4 67.1 C-35.6 64.3 -35.6 61.5 -35.6 58.7 C-35.6 57.2 -35.7 55.8 -35.7 54.3 C-35.8 51.1 -35.8 48 -35.7 44.9 C-35.7 41.7 -35.8 38.6 -35.9 35.4 C-37.1 7.6 -37.1 7.6 -28.7 1.5 C-18.3 -4 -10.6 -5.2 0 0 Z " fill="#7A6A5D" transform="translate(34.55078125,5.0546875)"/>
<path d="M0 0 C0.3 0 0.7 0 1 0 C1.7 8.6 2.1 17.2 2.5 25.8 C2.6 29.8 2.8 33.8 3.1 37.8 C5.3 65.4 5.3 65.4 -3.2 72.1 C-9.5 76.4 -16.5 79.2 -23.7 81.8 C-27.7 83.3 -31.4 85.2 -35.2 87.4 C-36.2 88 -37.3 88.5 -38.4 89.1 C-39.3 89.6 -40.3 90.1 -41.3 90.7 C-42.4 91.3 -43.4 91.8 -44.5 92.4 C-45 92.7 -45 92.7 -47.6 94.1 C-48.6 94.6 -49.5 95.1 -50.5 95.6 C-52.7 96.8 -54.8 98.1 -56.9 99.5 C-62 102 -65.4 100 -70.2 97.5 C-71.2 97 -72.2 96.4 -73.2 95.9 C-73.7 95.6 -73.7 95.6 -76.4 94.2 C-77.5 93.6 -78.6 93 -79.8 92.4 C-88.1 88.1 -96.3 83.7 -104.5 79.1 C-108.3 76.9 -112.2 74.9 -116.3 73.2 C-124.7 69.6 -124.7 69.6 -125.8 64.5 C-125.8 60.9 -125.6 57.5 -125 54 C-119.9 55.5 -115.3 57.7 -110.6 60.1 C-109.9 60.5 -109.2 60.9 -108.4 61.3 C-106.6 62.2 -104.8 63.1 -103 64 C-103 62.8 -103.1 61.6 -103.1 60.4 C-103.2 58.9 -103.2 57.3 -103.2 55.8 C-103.3 55 -103.3 54.2 -103.4 53.4 C-103.4 48.6 -103.3 45.9 -99 43 C-96 42.7 -94.7 43.2 -92.7 45.5 C-88.3 52 -88.4 57.4 -88.7 65 C-88.7 71.4 -88.7 71.4 -86.4 73.3 C-84.5 74.1 -84.5 74.1 -81 75 C-81 74.3 -81 73.7 -81 73 C-81.6 72.9 -82.3 72.8 -82.9 72.7 C-85 72 -85 72 -85.7 69.8 C-85.7 69.3 -85.7 69.3 -86 67 C-86.2 66.1 -86.4 65.2 -86.6 64.3 C-87 62 -87 62 -86 60 C-83.4 60.4 -83.4 60.4 -81 61 C-81 60.3 -81 59.7 -81 59 C-81.8 58.8 -82.7 58.7 -83.5 58.5 C-84.3 58.3 -85.2 58.2 -86 58 C-86 57.3 -86 56.7 -86 56 C-84.3 56 -82.7 56 -81 56 C-81.8 55.6 -82.7 55.2 -83.5 54.8 C-86 53 -86 53 -86.3 50.3 C-86.2 49.5 -86.1 48.8 -86 48 C-84.7 49 -83.4 50 -82 51 C-81.7 49.7 -81.3 48.4 -81 47 C-82 47.3 -83 47.7 -84 48 C-87.5 44.5 -87 38.8 -87 34 C-86.7 35 -86.3 36 -86 37 C-84 37.9 -84 37.9 -81 39 C-79.6 39.6 -78.3 40.3 -76.9 40.9 C-76.2 41.3 -75.4 41.6 -74.7 42 C-73.1 42.7 -71.6 43.4 -70.1 44.2 C-69.3 44.5 -68.6 44.9 -67.8 45.2 C-67.2 45.5 -66.5 45.9 -65.8 46.2 C-63.1 47.4 -61 48 -58 48 C-58 47.3 -58 46.7 -58 46 C-57 46 -56 46 -55 46 C-55.3 47 -55.7 48 -56 49 C-56.4 52.5 -56.5 55.9 -56.6 59.4 C-56.6 60.3 -56.7 61.3 -56.8 62.2 C-56.9 67.5 -56.7 70.2 -52 73.1 C-50.7 73.8 -49.4 74.4 -48 75 C-47.7 75.3 -47.3 75.7 -47 76 C-46.9 74.7 -46.9 73.4 -46.8 72.1 C-46.7 70.4 -46.6 68.7 -46.6 67.1 C-46.5 66.2 -46.5 65.4 -46.4 64.5 C-46.4 63.7 -46.4 62.9 -46.3 62 C-46.3 61.3 -46.2 60.5 -46.2 59.8 C-46 58 -46 58 -45 57 C-44.9 54.9 -44.9 52.8 -44.9 50.6 C-44.9 49.5 -44.9 48.3 -44.9 47.1 C-45 44 -45 44 -46 41 C-39.9 37 -39.9 37 -37 37 C-37.2 37.7 -37.3 38.5 -37.5 39.2 C-38 42 -38 42 -38 46 C-39 46.7 -40 47.3 -41 48 C-41.7 47.7 -42.3 47.3 -43 47 C-42.9 50.5 -42.7 53.9 -42.6 57.4 C-42.5 58.4 -42.5 59.3 -42.4 60.4 C-42.4 61.3 -42.4 62.2 -42.3 63.2 C-42.3 64.1 -42.2 64.9 -42.2 65.8 C-42 68 -42 68 -41 70 C-38.9 69.6 -38.9 69.6 -37 69 C-37.8 71 -37.8 71 -39 73 C-40 73 -41 73 -42 73 C-42 73.7 -42 74.3 -42 75 C-41.2 74.5 -40.4 74 -39.6 73.5 C-37 72 -37 72 -35 72 C-35 70.7 -35.1 69.4 -35.1 68.1 C-35.2 66.4 -35.2 64.7 -35.2 63 C-35.3 62.2 -35.3 61.3 -35.4 60.5 C-35.5 53.3 -34.2 47.1 -28 43 C-24 43.3 -23.3 43.5 -21 47 C-20.8 48.9 -20.8 48.9 -20.8 51 C-20.8 51.7 -20.8 52.4 -20.8 53.1 C-20.8 53.9 -20.9 54.8 -20.9 55.7 C-20.9 58.4 -21 61.2 -21 64 C-14.4 60.7 -7.8 57.4 -1 54 C-1.3 54 -1.7 54 -2 54 C-4.1 53.8 -4.1 53.8 -6 53 C-6 51.7 -6 50.4 -6 49 C-5.5 49.2 -5.5 49.2 -3 50 C-2.8 49.7 -2.8 49.7 -2 48 C-3.3 48 -4.6 48 -6 48 C-6 45 -6 45 -5 44 C-4.8 43.7 -4.8 43.7 -4 42 C-3 41.7 -2 41.3 -1 41 C-2 40 -2 40 -6 40 C-5.7 39 -5.3 38 -5 37 C-4 37 -3 37 -2 37 C-2.7 36.8 -3.3 36.5 -4 36.3 C-6.8 34.5 -6.5 33.2 -6.3 29.9 C-6.3 29.5 -6.3 29.5 -6.2 27.2 C-6 25 -6 25 -5 24 C-4.8 23.5 -4.8 23.5 -4 21 C-3 20.3 -2 19.7 -1 19 C-1 16.7 -1 14.4 -1 12 C-10.6 16.6 -20.1 21.2 -30 26 C-28.7 26 -27.4 26 -26 26 C-26 27.6 -26 29.3 -26 31 C-27 31 -28 31 -29 31 C-29 31.7 -29 32.3 -29 33 C-38.6 34.4 -38.6 34.4 -40.6 32.2 C-41.1 31.5 -41.6 30.8 -42.2 30 C-42.7 29.3 -43.2 28.5 -43.8 27.8 C-44.2 27.2 -44.6 26.6 -45 26 C-44.4 26.2 -43.8 26.4 -43.3 26.6 C-40.5 27.1 -39.5 26.6 -37 25.4 C-36.2 25 -35.4 24.6 -34.7 24.2 C-33.8 23.8 -33 23.4 -32.1 22.9 C-31.3 22.5 -30.4 22.1 -29.6 21.7 C-26.8 20.3 -24.1 18.9 -21.4 17.6 C-18.6 16.2 -15.9 14.8 -13.2 13.5 C-11.5 12.6 -9.8 11.8 -8.1 10.9 C-7.3 10.5 -6.5 10.2 -5.7 9.8 C-5.4 9.6 -5.4 9.6 -3.7 8.7 C-2 8 -2 8 0 8 C0 5.4 0 2.7 0 0 Z " fill="#9C6243" transform="translate(126,11)"/>
<path d="M0 0 C0.3 0 0.7 0 1 0 C7 63.4 7 63.4 -5.7 72.8 C-12.4 77 -20.2 79.1 -27.9 80.9 C-33.4 82.3 -38.1 84.9 -42.9 87.8 C-44.4 88.5 -45.8 89.3 -47.3 90 C-47.6 90.2 -47.6 90.2 -49.2 91.1 C-53.1 93.1 -57 95.1 -61 97 C-61.2 96.7 -61.2 96.7 -62 95 C-61.7 94.7 -61.3 94.3 -61 94 C-61.3 94 -61.7 94 -62 94 C-61.9 92.7 -61.8 91.4 -61.6 90.1 C-61.6 87.9 -61.6 87.9 -62 86 C-64.4 84.8 -64.4 84.8 -68 84 C-69.8 83.2 -71.6 82.4 -73.4 81.6 C-73.8 81.4 -73.8 81.4 -76 80.3 C-78 79 -78 79 -78 76 C-76 75 -74.1 74.2 -72.1 73.3 C-66.8 70.5 -65.3 68.5 -64.8 62.8 C-64.7 59.5 -64.8 56.3 -65 53 C-64.7 53 -64.3 53 -64 53 C-63.7 63.2 -63.3 73.5 -63 84 C-62.7 72.8 -62.3 61.6 -62 50 C-63 50 -64 50 -65 50 C-65 49.3 -65 48.7 -65 48 C-65.7 47.7 -66.3 47.3 -67 47 C-64 47.3 -61.1 47.7 -58 48 C-58 47.3 -58 46.7 -58 46 C-57 46 -56 46 -55 46 C-55.3 47 -55.7 48 -56 49 C-56.4 52.5 -56.5 55.9 -56.6 59.4 C-56.6 59.8 -56.6 59.8 -56.8 62.2 C-56.9 67.5 -56.7 70.2 -52 73.1 C-50.7 73.8 -49.4 74.4 -48 75 C-47.8 75.2 -47.8 75.2 -47 76 C-46.9 74.7 -46.9 73.4 -46.8 72.1 C-46.7 70.4 -46.6 68.7 -46.6 67.1 C-46.5 66.2 -46.5 65.4 -46.4 64.5 C-46.4 63.7 -46.4 62.9 -46.3 62 C-46.3 61.3 -46.2 60.5 -46.2 59.8 C-46 58 -46 58 -45 57 C-44.9 54.9 -44.9 52.8 -44.9 50.6 C-44.9 49.5 -44.9 48.3 -44.9 47.1 C-45 44 -45 44 -46 41 C-39.9 37 -39.9 37 -37 37 C-37.2 37.7 -37.3 38.5 -37.5 39.2 C-38 42 -38 42 -38 46 C-39 46.7 -40 47.3 -41 48 C-41.3 47.8 -41.3 47.8 -43 47 C-42.9 50.5 -42.7 53.9 -42.6 57.4 C-42.5 58.4 -42.5 59.3 -42.4 60.4 C-42.4 61.3 -42.4 62.2 -42.3 63.2 C-42.3 63.6 -42.3 63.6 -42.2 65.8 C-42 68 -42 68 -41 70 C-38.9 69.6 -38.9 69.6 -37 69 C-37.8 71 -37.8 71 -39 73 C-40 73 -41 73 -42 73 C-42 73.7 -42 74.3 -42 75 C-41.2 74.5 -40.4 74 -39.6 73.5 C-37 72 -37 72 -35 72 C-35 70.7 -35.1 69.4 -35.1 68.1 C-35.2 66.4 -35.2 64.7 -35.2 63 C-35.3 62.6 -35.3 62.6 -35.4 60.5 C-35.5 53.3 -34.2 47.1 -28 43 C-24 43.3 -23.3 43.5 -21 47 C-20.8 48.9 -20.8 48.9 -20.8 51 C-20.8 51.7 -20.8 52.4 -20.8 53.1 C-20.8 53.9 -20.9 54.8 -20.9 55.7 C-20.9 58.4 -21 61.2 -21 64 C-14.4 60.7 -7.8 57.4 -1 54 C-1.3 54 -1.7 54 -2 54 C-4.1 53.8 -4.1 53.8 -6 53 C-6 51.7 -6 50.4 -6 49 C-5.5 49.2 -5.5 49.2 -3 50 C-2.8 49.7 -2.8 49.7 -2 48 C-3.3 48 -4.6 48 -6 48 C-6 45 -6 45 -5 44 C-4.8 43.7 -4.8 43.7 -4 42 C-3 41.7 -2 41.3 -1 41 C-2 40 -2 40 -6 40 C-5.7 39 -5.3 38 -5 37 C-4 37 -3 37 -2 37 C-2.7 36.8 -3.3 36.5 -4 36.3 C-6.8 34.5 -6.5 33.2 -6.3 29.9 C-6.3 29.5 -6.3 29.5 -6.2 27.2 C-6 25 -6 25 -5 24 C-4.8 23.5 -4.8 23.5 -4 21 C-3 20.3 -2 19.7 -1 19 C-1 16.7 -1 14.4 -1 12 C-10.6 16.6 -20.1 21.2 -30 26 C-28.7 26 -27.4 26 -26 26 C-26 27.6 -26 29.3 -26 31 C-27 31 -28 31 -29 31 C-29 31.7 -29 32.3 -29 33 C-38.6 34.4 -38.6 34.4 -40.6 32.2 C-40.9 31.9 -40.9 31.9 -42.2 30 C-42.7 29.3 -43.2 28.5 -43.8 27.8 C-44.2 27.2 -44.6 26.6 -45 26 C-44.4 26.2 -43.8 26.4 -43.3 26.6 C-40.5 27.1 -39.5 26.6 -37 25.4 C-36.2 25 -35.4 24.6 -34.7 24.2 C-33.8 23.8 -33 23.4 -32.1 22.9 C-31.3 22.5 -30.4 22.1 -29.6 21.7 C-26.8 20.3 -24.1 18.9 -21.4 17.6 C-18.6 16.2 -15.9 14.8 -13.2 13.5 C-11.5 12.6 -9.8 11.8 -8.1 10.9 C-7.3 10.5 -6.5 10.2 -5.7 9.8 C-5.4 9.6 -5.4 9.6 -3.7 8.7 C-2 8 -2 8 0 8 C0 5.4 0 2.7 0 0 Z " fill="#49332E" transform="translate(126,11)"/>
<path d="M0 0 C0.6 0.3 1.2 0.6 1.9 0.9 C3.8 1.9 5.8 2.8 7.8 3.8 C11.6 5.7 15.4 7.6 19.2 9.4 C21.1 10.3 22.9 11.2 24.7 12.3 C31.3 15.6 36.4 11.7 42.1 8.5 C44.3 7.4 46.4 6.3 48.5 5.1 C49.6 4.6 50.6 4 51.6 3.5 C55.1 1.6 58.5 -0.2 62.1 -1.9 C63 -2.3 63.9 -2.8 64.9 -3.3 C71.2 -5.2 76.7 -1.7 82.3 1 C83.1 1.4 83.9 1.8 84.7 2.2 C86.6 3.1 88.5 4 90.4 4.9 C89.1 9.1 86.5 9.7 82.7 11.4 C82.4 11.5 82.4 11.5 80.6 12.3 C78.4 13.4 76.1 14.4 73.8 15.4 C70.7 16.9 67.6 18.3 64.5 19.8 C63.7 20.1 62.9 20.5 62.1 20.8 C57.5 23 52.9 25.2 48.4 27.5 C47.4 28 46.3 28.5 45.3 29 C43.4 30 41.5 31 39.7 31.9 C33.7 34.9 30 35.3 23.4 33.9 C24.4 34.4 25.4 34.8 26.4 35.3 C27.4 35.8 28.4 36.4 29.4 36.9 C29.4 37.9 29.4 38.9 29.4 39.9 C24.5 38.5 20.3 36.4 15.9 33.9 C13.4 32.9 13.4 32.9 11.3 33.6 C7.1 34.1 4.1 32.3 0.5 30.4 C-0.2 30.1 -1 29.7 -1.8 29.3 C-4.2 28.1 -6.6 26.9 -9 25.7 C-10.6 24.9 -12.2 24.1 -13.8 23.3 C-17.5 21.5 -21.1 19.7 -24.7 17.9 C-26.4 17 -28.2 16.2 -30 15.4 C-32.6 13.9 -32.6 13.9 -32.9 10.8 C-32.8 9.8 -32.7 8.9 -32.6 7.9 C-30.4 8.8 -28.3 9.6 -26.2 10.4 C-25.6 10.6 -25.6 10.6 -22.6 11.8 C-19.6 12.9 -19.6 12.9 -17.6 13.9 C-17.6 13.3 -17.6 12.6 -17.6 11.9 C-12.7 12.6 -8.7 14.6 -4.3 16.7 C-3.5 17.1 -2.8 17.4 -2 17.8 C0.5 19 3 20.2 5.5 21.4 C7.2 22.2 8.9 23 10.5 23.8 C23 29.7 23 29.7 25.5 31.1 C30.4 33.3 35.3 30.2 39.7 27.9 C45.2 25 50.7 22.5 56.4 20 C62.4 17.4 68.3 14.7 74.1 11.8 C74.8 11.4 75.4 11.1 76.1 10.8 C77.9 9.9 77.9 9.9 80.4 7.9 C80.5 5.3 80.5 5.3 79.4 2.9 C72.9 -0.8 67.7 -1.1 61 2.4 C60 2.9 59 3.4 58 3.9 C56.9 4.5 55.9 5 54.8 5.6 C52.8 6.6 50.7 7.7 48.7 8.7 C47.6 9.3 46.6 9.8 45.6 10.3 C43.4 11.4 41.2 12.5 39 13.5 C37.9 14.1 36.9 14.6 35.7 15.1 C34.7 15.5 33.8 16 32.7 16.5 C30.1 18.1 29.7 18.9 29.4 21.9 C23.1 20 17.4 17.6 11.6 14.4 C10.8 14.1 10.1 13.7 9.3 13.3 C3.8 10.3 3.8 10.3 1.9 8.3 C0.4 6.9 0.4 6.9 -1.8 7.5 C-2.6 7.9 -3.4 8.3 -4.2 8.8 C-4.6 9 -4.6 9 -6.7 10 C-7.3 10.3 -7.9 10.6 -8.6 10.9 C-8.2 11.9 -7.9 12.9 -7.6 13.9 C-11 12.9 -13.6 11.9 -16.6 9.9 C-16.6 5.9 -16.6 5.9 -13.6 4.2 C-12.6 3.8 -11.6 3.4 -10.6 2.9 C-11.1 3.1 -11.7 3.3 -12.4 3.4 C-14.6 3.9 -14.6 3.9 -17.6 3.9 C-17.6 5.6 -17.6 7.2 -17.6 8.9 C-19.6 8.6 -19.6 8.6 -21.6 7.9 C-21.6 7 -21.6 6 -21.6 4.9 C-22.2 5.3 -22.2 5.3 -25.6 6.9 C-24.4 7.6 -24.4 7.6 -18.6 10.9 C-22.4 12.2 -23.2 11.4 -26.7 9.6 C-27.6 9.2 -28.5 8.7 -29.5 8.3 C-31.6 6.9 -31.6 6.9 -31.6 4.9 C-28.5 3.1 -25.1 1.7 -21.9 0.3 C-21 -0.2 -20 -0.6 -19.1 -1 C-18.7 -1.2 -18.7 -1.2 -16.4 -2.3 C-15.6 -2.6 -14.8 -3 -14 -3.4 C-8.8 -4.8 -4.6 -2.3 0 0 Z " fill="#BFAF99" transform="translate(34.55078125,5.0546875)"/>
<path d="M0 0 C6.7 2.7 13.3 5.5 19.8 8.8 C20.4 9.1 21 9.4 21.6 9.8 C23.1 10.5 24.5 11.2 26 12 C25 12.3 24 12.7 23 13 C23.2 15.4 23.2 15.4 24 18 C26.9 19 28.2 19.4 31 18 C30.7 19.3 30.3 20.6 30 22 C31.1 22.1 32.3 22.2 33.4 22.2 C37 23 37 23 37.9 24.6 C37.9 25.4 38 26.2 38 27 C38.2 29.8 38.5 32.3 39 35 C41.1 35.7 41.1 35.7 43 36 C43.2 38.6 43.2 38.6 43 41 C41.7 40 40.4 39 39 38 C39.3 40.5 39.3 40.5 40 43 C41 43 42 43 43 43 C43 43.7 43 44.3 43 45 C40 46 40 46 38 45 C39 47 39 47 41.1 47.5 C41.7 47.7 42.3 47.8 43 48 C43 48.7 43 49.3 43 50 C42 50.3 41 50.7 40 51 C40 50.3 40 49.7 40 49 C39.3 49 38.7 49 38 49 C38.1 50.8 38.1 52.6 38.2 54.4 C38.3 55.4 38.3 56.4 38.4 57.4 C39.2 60.7 40 60.8 43 62 C43 62.7 43 63.3 43 64 C39.6 63.5 37.9 62.9 35 61 C34.6 59 34.6 59 34.6 56.7 C34.6 55.8 34.6 54.9 34.6 54.1 C34.6 52.2 34.6 50.4 34.6 48.6 C34.4 42.6 33.6 38.9 30 34 C27.4 32.9 27.4 32.9 25 33 C22.3 35.1 21.6 36.6 21.5 40 C21.5 40.8 21.4 41.5 21.4 42.3 C21.4 43.1 21.3 43.9 21.3 44.7 C21.3 45.5 21.2 46.3 21.2 47.1 C21.1 49.1 21.1 51 21 53 C19 52.3 17 51.7 15 51 C14.7 50.9 14.7 50.9 13.1 50.4 C7.6 48.7 1.3 46.6 -0.8 40.8 C-1.9 34.2 -1.4 27.6 -0.9 21 C-0.9 19 -0.8 16.9 -0.7 14.9 C-0.6 9.9 -0.3 5 0 0 Z " fill="#B3A890" transform="translate(2,22)"/>
<path d="M0 0 C1.2 2.6 1.2 2.6 1 5 C-1.7 7.4 -4.6 8.9 -7.8 10.4 C-8.3 10.6 -8.3 10.6 -10.6 11.8 C-11.6 12.2 -12.6 12.7 -13.6 13.2 C-14.6 13.7 -15.7 14.2 -16.7 14.7 C-23.8 18 -31 21.3 -38.2 24.4 C-38.9 24.7 -39.6 25 -40.3 25.3 C-40.9 25.6 -41.6 25.9 -42.2 26.2 C-43.9 27 -45.6 27.9 -47.2 28.8 C-51.8 30.8 -55 28.6 -59.4 26.6 C-60.4 26.2 -61.5 25.7 -62.5 25.2 C-63.6 24.7 -64.7 24.2 -65.8 23.7 C-66.3 23.4 -66.3 23.4 -69 22.2 C-74.5 19.7 -79.8 17.1 -85 14 C-81.2 11 -81.2 11 -79 11 C-78.4 9 -78.4 9 -78 7 C-74.6 7.7 -71.7 9 -68.6 10.5 C-67.6 11 -66.5 11.5 -65.5 12 C-64.4 12.5 -63.3 13 -62.2 13.6 C-61.2 14.1 -60.1 14.6 -59 15.1 C-56.3 16.4 -53.7 17.7 -51 19 C-50.9 18.2 -50.8 17.4 -50.7 16.6 C-49.6 12.6 -46.7 11.9 -43.2 10.3 C-41.7 9.6 -40.3 9 -38.8 8.3 C-38.4 8.1 -38.4 8.1 -36.5 7.2 C-33.9 5.9 -31.3 4.6 -28.7 3.3 C-27.8 2.8 -26.9 2.3 -26 1.9 C-24.3 1 -22.6 0.1 -20.8 -0.9 C-13.1 -4.8 -7.2 -5.3 0 0 Z " fill="#333A67" transform="translate(115,8)"/>
<path d="M0 0 C0.6 0.6 1.1 1.2 1.7 1.8 C4.1 4.1 6.2 5.3 9.1 6.7 C10.1 7.2 11.1 7.7 12.1 8.2 C12.6 8.5 12.6 8.5 15.2 9.8 C15.8 10 15.8 10 18.5 11.4 C20.7 12.4 22.9 13.5 25 14.6 C30.7 17.3 36.3 20.1 41.9 23 C43.4 23.7 45 24.5 46.5 25.2 C49.2 26.5 51.8 27.9 54.4 29.2 C55.3 29.6 56.1 30 57 30.4 C62.8 33.4 62.8 33.4 64 36.7 C64 37.4 64 38.2 64 39 C64.3 39.7 64.7 40.3 65 41 C68.3 39.7 71.5 38.3 74.6 36.8 C75.5 36.3 76.4 35.9 77.3 35.4 C78.2 35 79.2 34.5 80.1 34 C81.1 33.5 82.1 33 83.1 32.5 C93.8 27.1 104.5 21.6 115 15.8 C115.6 15.5 116.2 15.2 116.8 14.8 C118.4 13.9 120 13.1 121.6 12.2 C124 11 124 11 126 11 C126 14 126 14 123.8 15.5 C122.8 16 121.8 16.5 120.8 17.1 C119.7 17.7 118.5 18.3 117.4 18.9 C116.1 19.5 114.9 20.2 113.6 20.8 C112.4 21.5 111.1 22.1 109.8 22.8 C107.2 24.2 104.6 25.6 101.9 26.9 C95.8 30.1 89.8 33.4 83.7 36.7 C82.6 37.3 81.5 37.8 80.4 38.4 C79.4 39 78.4 39.5 77.4 40.1 C76.4 40.6 75.5 41.1 74.5 41.6 C72.3 42.8 70.2 44.1 68.1 45.5 C63 48 59.6 46 54.8 43.5 C53.8 43 52.8 42.4 51.8 41.9 C50.7 41.3 49.7 40.8 48.6 40.2 C47.5 39.6 46.4 39 45.2 38.4 C36.9 34.1 28.7 29.7 20.5 25.1 C16.7 22.9 12.8 20.9 8.7 19.2 C0.3 15.6 0.3 15.6 -0.8 10.5 C-0.8 6.9 -0.6 3.5 0 0 Z " fill="#5A4546" transform="translate(1,65)"/>
<path d="M0 0 C0.3 0 0.7 0 1 0 C1.2 7.5 1.3 15.1 1.4 22.6 C1.4 26.1 1.4 29.6 1.5 33.1 C1.6 37.1 1.7 41.1 1.7 45.1 C1.7 46.4 1.8 47.6 1.8 48.9 C1.8 52.1 1.8 54.9 1 58 C-2.3 59.7 -2.3 59.7 -6 60 C-8.4 61.1 -8.4 61.1 -10.5 62.2 C-11.3 62.6 -12.1 63 -12.9 63.5 C-13.7 63.9 -14.5 64.4 -15.3 64.8 C-17 65.7 -18.7 66.6 -20.4 67.5 C-21.2 67.9 -22 68.4 -22.8 68.8 C-25.5 70.3 -28.3 71.8 -31.1 73.2 C-31.8 73.6 -32.5 74 -33.3 74.4 C-35 75 -35 75 -37 74 C-36.8 73.8 -36.8 73.8 -36 73 C-35.9 71.6 -35.8 70.2 -35.8 68.8 C-35.8 67.9 -35.8 67.1 -35.8 66.2 C-35.7 64.4 -35.7 62.6 -35.7 60.8 C-35.4 53.6 -34.3 47.2 -28 43 C-24 43.3 -23.3 43.5 -21 47 C-20.8 48.9 -20.8 48.9 -20.8 51 C-20.8 51.7 -20.8 52.4 -20.8 53.1 C-20.8 53.5 -20.8 53.5 -20.9 55.7 C-20.9 58.4 -21 61.2 -21 64 C-14.4 60.7 -7.8 57.4 -1 54 C-1.3 54 -1.7 54 -2 54 C-4.1 53.8 -4.1 53.8 -6 53 C-6 51.7 -6 50.4 -6 49 C-5 49.3 -4 49.7 -3 50 C-2.8 49.7 -2.8 49.7 -2 48 C-3.3 48 -4.6 48 -6 48 C-6 45 -6 45 -5 44 C-4.8 43.7 -4.8 43.7 -4 42 C-3 41.7 -2 41.3 -1 41 C-2 40 -2 40 -6 40 C-5.7 39 -5.3 38 -5 37 C-4 37 -3 37 -2 37 C-2.7 36.8 -3.3 36.5 -4 36.3 C-6.8 34.5 -6.5 33.2 -6.3 29.9 C-6.3 29.5 -6.3 29.5 -6.2 27.2 C-6 25 -6 25 -5 24 C-4.8 23.5 -4.8 23.5 -4 21 C-3 20.3 -2 19.7 -1 19 C-1 16.7 -1 14.4 -1 12 C-10.6 16.6 -20.1 21.2 -30 26 C-28.7 26 -27.4 26 -26 26 C-26 27.6 -26 29.3 -26 31 C-27 31 -28 31 -29 31 C-29 31.7 -29 32.3 -29 33 C-38.6 34.4 -38.6 34.4 -40.6 32.2 C-41.1 31.5 -41.6 30.8 -42.2 30 C-42.7 29.3 -43.2 28.5 -43.8 27.8 C-44 27.5 -44 27.5 -45 26 C-44.4 26.2 -43.8 26.4 -43.3 26.6 C-40.5 27.1 -39.5 26.6 -37 25.4 C-36.6 25.2 -36.6 25.2 -34.7 24.2 C-33.8 23.8 -33 23.4 -32.1 22.9 C-31.3 22.5 -30.4 22.1 -29.6 21.7 C-26.8 20.3 -24.1 18.9 -21.4 17.6 C-18.6 16.2 -15.9 14.8 -13.2 13.5 C-11.5 12.6 -9.8 11.8 -8.1 10.9 C-7.3 10.5 -6.5 10.2 -5.7 9.8 C-5.4 9.6 -5.4 9.6 -3.7 8.7 C-2 8 -2 8 0 8 C0 5.4 0 2.7 0 0 Z " fill="#653C27" transform="translate(126,11)"/>
<path d="M0 0 C1 0.2 1 0.2 6 1 C4.6 5.1 2 5.7 -1.7 7.4 C-2.1 7.6 -2.1 7.6 -3.8 8.4 C-6.1 9.4 -8.4 10.5 -10.6 11.5 C-13.7 12.9 -16.9 14.4 -20 15.8 C-20.7 16.2 -21.5 16.5 -22.3 16.9 C-26.9 19 -31.5 21.2 -36.1 23.5 C-37.1 24.1 -38.1 24.6 -39.2 25.1 C-41 26 -42.9 27 -44.8 28 C-50.7 31 -54.4 31.3 -61 30 C-60 30.4 -59 30.9 -58 31.3 C-57.5 31.6 -57.5 31.6 -55 33 C-55 34 -55 35 -55 36 C-59.9 34.6 -64.1 32.4 -68.5 29.9 C-71 29 -71 29 -73.2 29.7 C-77.3 30.2 -80.3 28.3 -83.9 26.5 C-84.7 26.1 -85.4 25.7 -86.2 25.4 C-88.6 24.2 -91 23 -93.4 21.8 C-95 21 -96.7 20.2 -98.3 19.4 C-101.9 17.6 -105.5 15.8 -109.1 13.9 C-110.9 13.1 -112.7 12.2 -114.5 11.4 C-117 10 -117 10 -117.4 6.8 C-117.3 5.9 -117.1 5 -117 4 C-114.9 4.8 -112.7 5.6 -110.6 6.4 C-110 6.7 -110 6.7 -107 7.8 C-104 9 -104 9 -102 10 C-102 9.3 -102 8.7 -102 8 C-97.1 8.7 -93.1 10.6 -88.8 12.7 C-88 13.1 -87.2 13.5 -86.4 13.9 C-83.9 15.1 -81.4 16.2 -78.9 17.4 C-77.3 18.2 -75.6 19 -73.9 19.8 C-61.5 25.7 -61.5 25.7 -58.9 27.1 C-54 29.3 -49.1 26.2 -44.8 23.9 C-39.3 21.1 -33.7 18.5 -28 16 C-21.2 13 -14.5 9.8 -7.9 6.4 C-5 5 -5 5 -2.1 4 C-1.4 3.7 -0.7 3.3 0 3 C0 2 0 1 0 0 Z " fill="#F2E8D4" transform="translate(119,9)"/>
<path d="M0 0 C3 0 3 0 4.2 1.3 C6.1 3.1 7.4 3.6 9.7 4.6 C10.8 5 11.9 5.5 13 6 C13 6.7 13 7.3 13 8 C13.5 8.1 13.5 8.1 15.8 8.4 C19 9 19 9 22 11 C24.7 10.6 24.7 10.6 27 10 C26.7 11.3 26.3 12.6 26 14 C27.1 14.1 28.3 14.2 29.4 14.2 C33 15 33 15 33.9 16.6 C33.9 17.4 34 18.2 34 19 C34.2 21.8 34.5 24.3 35 27 C37.1 27.7 37.1 27.7 39 28 C39.2 30.6 39.2 30.6 39 33 C37.7 32 36.4 31 35 30 C35.3 32.5 35.3 32.5 36 35 C37 35 38 35 39 35 C39 35.7 39 36.3 39 37 C36 38 36 38 34 37 C35 39 35 39 37.1 39.5 C37.7 39.7 38.3 39.8 39 40 C39 40.7 39 41.3 39 42 C38 42.3 37 42.7 36 43 C36 42.3 36 41.7 36 41 C35.3 41 34.7 41 34 41 C34.1 42.8 34.1 44.6 34.2 46.4 C34.3 47.4 34.3 48.4 34.4 49.4 C35.2 52.7 36 52.8 39 54 C39 54.7 39 55.3 39 56 C35.6 55.5 33.9 54.9 31 53 C30.6 51 30.6 51 30.6 48.7 C30.6 47.8 30.6 46.9 30.6 46.1 C30.6 44.2 30.6 42.4 30.6 40.6 C30.4 34.6 29.6 30.9 26 26 C23.4 24.9 23.4 24.9 21 25 C18.1 27.2 17.5 29.2 16.8 32.7 C16.7 33.1 16.7 33.1 16.3 35.1 C16.3 35.4 16.3 35.4 16 37 C15.3 35.7 14.7 34.4 14 33 C13.5 33.2 13.5 33.2 11 34 C11 33 11 31.9 11.1 30.8 C11.1 29.4 11.1 28.1 11.1 26.7 C11.1 26 11.2 25.3 11.2 24.6 C11.2 20.8 11.1 19.2 9 16 C5.9 15.3 5.9 15.3 3 15 C2.7 16 2.3 17 2 18 C1.3 17.7 0.7 17.3 0 17 C0.3 16.7 0.7 16.3 1 16 C1.1 13.2 1 10.4 0.9 7.7 C1 5 1 5 2 2 C1 2.3 0 2.7 -1 3 C-0.7 2 -0.3 1 0 0 Z " fill="#F0E6D3" transform="translate(6,30)"/>
<path d="M0 0 C0.3 1 0.7 2 1 3 C3.1 4 3.1 4 6 5 C8.6 6.1 11.2 7.2 13.8 8.4 C14.4 8.7 15.1 9 15.8 9.3 C21.4 11.8 21.4 11.8 22 16 C23 16 24 16 25 16 C25 27.5 25 39.1 25 51 C23 50 23 50 22.6 46.6 C22.5 45.2 22.4 43.8 22.4 42.4 C22.3 41.7 22.3 41 22.3 40.3 C22.2 38.5 22.1 36.8 22 35 C21.2 35.5 20.5 36 19.7 36.5 C19.2 36.9 19.2 36.9 16.6 38.5 C16.1 38.8 16.1 38.8 13.6 40.5 C11 42 11 42 9 42 C8.7 42.7 8.3 43.3 8 44 C7 43.3 6 42.7 5 42 C5.7 42 6.3 42 7 42 C7 32.1 7 22.2 7 12 C6.3 12.3 6.3 12.3 3 14 C-0.5 10.5 0 4.8 0 0 Z " fill="#684932" transform="translate(39,45)"/>
<path d="M0 0 C0.3 0.7 0.7 1.3 1 2 C-4.8 5 -4.8 5 -7 5 C-6.7 8 -6.3 8.8 -3.8 10.5 C0.2 11.2 1 9.5 4 7 C7.7 5.5 7.7 5.5 11 5 C13 7.1 13.2 8.2 12.6 11.1 C10.1 14.1 7.8 15.7 4 16 C-0.2 14.7 -4.1 13 -8 11 C-8 11.7 -8 12.3 -8 13 C-12.7 11.5 -17.4 9.9 -22 8 C-22.3 9.7 -22.7 11.3 -23 13 C-22.2 13.2 -21.5 13.4 -20.7 13.7 C-15.6 15.5 -10.8 17.8 -6 20.2 C-5.5 20.4 -5.5 20.4 -2.9 21.7 C4.8 25.4 12.4 29.1 20 33 C18.8 35.5 18 37 16 39 C13.8 39 13.8 39 11.4 38.6 C10.6 38.5 9.7 38.4 8.9 38.3 C8.3 38.2 7.6 38.1 7 38 C7 37 7 36 7 35 C6.7 35.1 6.7 35.1 5.2 35.7 C2.1 36.1 1 35.4 -1 33 C-0.1 30.4 -0.1 30.4 1 28 C-0.2 27.5 -1.3 26.9 -2.5 26.4 C-4 25.6 -5.6 24.9 -7.1 24.2 C-7.5 24 -7.5 24 -9.4 23.1 C-9.8 22.9 -9.8 22.9 -11.7 22 C-12.4 21.7 -13.1 21.4 -13.8 21.1 C-16.5 19.7 -19.3 18.4 -22 17 C-22.3 30.9 -22.7 44.7 -23 59 C-23.3 59 -23.7 59 -24 59 C-24 41.2 -24 23.4 -24 5 C-19.6 6.5 -16.1 8 -12 10 C-11.3 10 -10.7 10 -10 10 C-11.2 9.3 -11.2 9.3 -17 6 C-15.7 4.4 -15.7 4.4 -14 3 C-13 3.3 -12 3.7 -11 4 C-11.3 5 -11.7 6 -12 7 C-9 6 -9 6 -8 3 C-6.2 2.1 -6.2 2.1 -3.9 1.3 C-3.2 1.1 -2.5 0.8 -1.7 0.6 C-1.4 0.5 -1.4 0.5 0 0 Z " fill="#90755C" transform="translate(25,6)"/>
<path d="M0 0 C1.2 2.6 1.2 2.6 1 5 C-2.2 7.9 -6.1 9.8 -9.9 11.8 C-10.5 12.1 -11.2 12.5 -11.8 12.8 C-14.7 14.3 -16.5 15.1 -19.7 14.5 C-22 13 -22 13 -23.6 10.1 C-26 8 -26 8 -28.5 8.6 C-31.6 10 -34.6 11.6 -37.7 13.2 C-39.8 14.3 -41.9 15.3 -44 16.4 C-44.5 16.7 -44.5 16.7 -46.8 17.9 C-49 19 -49 19 -50 19 C-50.4 16.7 -50.4 16.7 -50 14 C-47.7 12.5 -45.7 11.4 -43.2 10.3 C-41.8 9.6 -40.3 9 -38.9 8.3 C-38.1 7.9 -37.3 7.5 -36.5 7.2 C-33.9 5.9 -31.3 4.6 -28.7 3.3 C-27.8 2.8 -26.9 2.3 -26 1.9 C-24.3 1 -22.6 0.1 -20.8 -0.9 C-13.1 -4.8 -7.2 -5.3 0 0 Z " fill="#816243" transform="translate(115,8)"/>
<path d="M0 0 C1 0 2 0 3 0 C2.7 1 2.3 2 2 3 C1.6 6.5 1.5 9.9 1.4 13.4 C1.4 13.8 1.4 13.8 1.2 16.2 C1.1 23.1 1.1 23.1 3.8 25.6 C5.9 26.9 5.9 26.9 8.1 27.9 C10.4 29.2 11 30.5 12 33 C10 34 8.1 35 6.1 36 C5 36.6 3.9 37.1 2.8 37.7 C0 39 0 39 -2 39 C-2.7 39.7 -3.3 40.3 -4 41 C-6.8 39.9 -9.4 38.7 -12.1 37.3 C-12.5 37.1 -12.5 37.1 -14.4 36.2 C-15.1 35.8 -15.8 35.5 -16.6 35.1 C-17.2 34.8 -17.9 34.4 -18.6 34.1 C-20 33 -20 33 -20 30 C-18 29 -16.1 28.2 -14.1 27.3 C-8.8 24.5 -7.3 22.5 -6.8 16.8 C-6.7 13.5 -6.8 10.3 -7 7 C-6.7 7 -6.3 7 -6 7 C-5.7 17.2 -5.3 27.5 -5 38 C-4.7 26.8 -4.3 15.6 -4 4 C-5 4 -6 4 -7 4 C-7 3.3 -7 2.7 -7 2 C-7.7 1.7 -8.3 1.3 -9 1 C-6 1.3 -3.1 1.7 0 2 C0 1.3 0 0.7 0 0 Z " fill="#3C3442" transform="translate(68,57)"/>
<path d="M0 0 C0 3 0 3 -2.2 4.5 C-3.2 5 -4.2 5.5 -5.2 6.1 C-6.3 6.7 -7.5 7.3 -8.6 7.9 C-9.9 8.5 -11.1 9.2 -12.4 9.8 C-13.6 10.5 -14.9 11.1 -16.2 11.8 C-18.8 13.2 -21.4 14.6 -24.1 15.9 C-30.2 19.1 -36.2 22.4 -42.3 25.7 C-43.4 26.3 -44.5 26.8 -45.6 27.4 C-46.1 27.7 -46.1 27.7 -48.6 29.1 C-49.1 29.3 -49.1 29.3 -51.5 30.6 C-53.7 31.8 -55.8 33.1 -57.9 34.5 C-63 37 -66.4 35 -71.2 32.5 C-71.7 32.2 -71.7 32.2 -74.2 30.9 C-75.3 30.3 -76.3 29.8 -77.4 29.2 C-78.5 28.6 -79.6 28 -80.8 27.4 C-90.7 22.2 -100.6 16.8 -110.4 11.4 C-112.3 10.4 -114.2 9.4 -116 8.4 C-117 7.9 -118 7.4 -119.1 6.8 C-120 6.4 -120.9 5.9 -121.9 5.4 C-124 4 -124 4 -125 1 C-118.9 2.4 -114 5 -108.6 8.1 C-100.5 12.7 -92.3 16.9 -84 21 C-81.8 22.1 -79.7 23.2 -77.6 24.2 C-76.9 24.6 -76.1 25 -75.4 25.4 C-74 26.1 -72.6 26.8 -71.2 27.5 C-64.2 31 -61.8 31.4 -54.9 27.6 C-54.2 27.3 -53.5 26.9 -52.8 26.5 C-51.3 25.8 -49.8 25 -48.3 24.2 C-45.3 22.6 -42.3 21.1 -39.3 19.6 C-36.3 18.1 -33.3 16.5 -30.3 15 C-28 13.8 -25.7 12.6 -23.5 11.4 C-9.9 4.5 -9.9 4.5 -3.6 0.8 C-2 0 -2 0 0 0 Z " fill="#63422A" transform="translate(127,76)"/>
<path d="M0 0 C0.9 5 0.9 5 0 8 C-3.2 10.7 -7 12.3 -10.9 14 C-11.4 14.3 -11.4 14.3 -14.2 15.5 C-16.4 16.6 -18.6 17.6 -20.8 18.6 C-23.7 19.9 -26.6 21.2 -29.5 22.6 C-31.1 23.3 -32.7 24.1 -34.3 24.8 C-35.1 25.2 -35.8 25.5 -36.6 25.9 C-41.6 28.1 -41.6 28.1 -45 27 C-47.2 27.3 -47.2 27.3 -49 28 C-49 28.7 -49 29.3 -49 30 C-50.6 31 -50.6 31 -52.7 32 C-53.4 32.3 -54.1 32.7 -54.9 33 C-57.2 34.1 -59.6 35.1 -62 36 C-62 35.2 -62.1 34.5 -62.1 33.7 C-63.4 29.9 -65.4 29.4 -69 28 C-66 27 -66 27 -62.7 27.6 C-58.3 28.1 -56.4 27.2 -52.4 25.2 C-51.8 24.9 -51.2 24.6 -50.6 24.3 C-48.6 23.3 -46.7 22.3 -44.7 21.3 C-42.6 20.3 -40.6 19.2 -38.5 18.2 C-37.1 17.5 -35.7 16.8 -34.3 16.1 C-26.2 12.1 -18 8.3 -9.8 4.6 C-8.7 4.1 -7.7 3.7 -6.7 3.2 C-6.3 3 -6.3 3 -4 2 C-2.6 1.3 -1.4 0 0 0 Z " fill="#7C6D61" transform="translate(126,11)"/>
<path d="M0 0 C0.3 0 0.7 0 1 0 C1 18.2 1 36.3 1 55 C0.3 54.3 -0.3 53.7 -1 53 C-3.1 53.4 -3.1 53.4 -5 54 C-5.3 52.4 -5.7 50.7 -6 49 C-5 49.3 -4 49.7 -3 50 C-2.8 49.7 -2.8 49.7 -2 48 C-3.3 48 -4.6 48 -6 48 C-6 45 -6 45 -5 44 C-4.8 43.7 -4.8 43.7 -4 42 C-3 41.7 -2 41.3 -1 41 C-2 40 -2 40 -6 40 C-5.7 39 -5.3 38 -5 37 C-4 37 -3 37 -2 37 C-2.7 36.8 -3.3 36.5 -4 36.3 C-6.8 34.5 -6.5 33.2 -6.3 29.9 C-6.3 29.5 -6.3 29.5 -6.2 27.2 C-6 25 -6 25 -5 24 C-4.8 23.5 -4.8 23.5 -4 21 C-3 20.3 -2 19.7 -1 19 C-1 16.7 -1 14.4 -1 12 C-10.6 16.6 -20.1 21.2 -30 26 C-28.7 26 -27.4 26 -26 26 C-26 27.6 -26 29.3 -26 31 C-27 31 -28 31 -29 31 C-29 31.7 -29 32.3 -29 33 C-38.6 34.4 -38.6 34.4 -40.6 32.2 C-41.1 31.5 -41.6 30.8 -42.2 30 C-42.7 29.3 -43.2 28.5 -43.8 27.8 C-44 27.5 -44 27.5 -45 26 C-44.4 26.2 -43.8 26.4 -43.3 26.6 C-40.5 27.1 -39.5 26.6 -37 25.4 C-36.6 25.2 -36.6 25.2 -34.7 24.2 C-33.8 23.8 -33 23.4 -32.1 22.9 C-31.3 22.5 -30.4 22.1 -29.6 21.7 C-26.8 20.3 -24.1 18.9 -21.4 17.6 C-18.6 16.2 -15.9 14.8 -13.2 13.5 C-11.5 12.6 -9.8 11.8 -8.1 10.9 C-7.3 10.5 -6.5 10.2 -5.7 9.8 C-5.4 9.6 -5.4 9.6 -3.7 8.7 C-2 8 -2 8 0 8 C0 5.4 0 2.7 0 0 Z " fill="#59433C" transform="translate(126,11)"/>
<path d="M0 0 C0.5 3.3 0.5 3.3 0 7 C-2.3 8.8 -4 9.9 -6.6 11.1 C-7.2 11.4 -7.9 11.7 -8.6 12.1 C-10.8 13.2 -13.1 14.2 -15.3 15.3 C-16.8 16.1 -18.4 16.8 -19.9 17.6 C-22.9 19.1 -25.9 20.5 -28.9 22 C-34 24.5 -39 27.1 -43.9 29.8 C-49.9 32.9 -55.9 36 -62 39 C-62.3 38.3 -62.7 37.7 -63 37 C-62.8 36.8 -62.8 36.8 -62 36 C-62.3 36 -62.7 36 -63 36 C-63.5 33.3 -63.5 33.3 -63 30 C-60.4 27.8 -57.5 26.4 -54.4 25 C-53.6 24.6 -52.8 24.2 -51.9 23.7 C-46.9 21.3 -44.3 20.5 -39 23 C-36 23 -36 23 -34.8 21 C-34.5 20.3 -34.3 19.7 -34 19 C-33.7 19.7 -33.3 20.3 -33 21 C-32 21 -31 21 -30 21 C-29.3 18.5 -29.3 18.5 -29 16 C-28.4 16.2 -27.8 16.5 -27.2 16.8 C-25 17 -25 17 -23.4 15 C-23 14.3 -22.5 13.7 -22 13 C-21 13.3 -20 13.7 -19 14 C-18.8 13.3 -18.5 12.7 -18.3 12 C-16.4 9.2 -15.3 9.9 -12 10 C-8.7 8.5 -8.7 8.5 -6 7 C-9 6 -9 6 -11 6 C-11.7 7 -12.3 8 -13 9 C-14.3 8.3 -15.6 7.7 -17 7 C-15.1 5.9 -13.1 4.7 -11.2 3.6 C-10.1 2.9 -9 2.3 -7.9 1.6 C-2.6 -1.3 -2.6 -1.3 0 0 Z " fill="#2C2224" transform="translate(127,69)"/>
<path d="M0 0 C1 0.2 1 0.2 6 1 C4.6 5.1 2 5.7 -1.7 7.4 C-2.4 7.7 -3.1 8 -3.8 8.4 C-6.1 9.4 -8.4 10.5 -10.6 11.5 C-13 12.6 -15.3 13.7 -17.6 14.7 C-19.2 15.4 -20.7 16.2 -22.3 16.9 C-27 19 -31.6 21.2 -36.1 23.5 C-37.2 24.1 -38.2 24.6 -39.3 25.1 C-41.2 26.1 -43.1 27 -44.9 28 C-50.1 30.5 -53.2 31.6 -59 30 C-59.7 29.8 -60.4 29.6 -61.2 29.5 C-66.7 27.6 -71.9 25.3 -77.1 22.8 C-80.1 21.4 -83.2 20.1 -86.2 18.8 C-87.2 18.4 -88.1 18 -89 17.6 C-90.8 16.8 -92.6 16 -94.5 15.2 C-95.3 14.9 -96.1 14.5 -97 14.1 C-97.4 14 -97.4 14 -99.3 13.2 C-101.5 11.7 -101.7 10.6 -102 8 C-97.1 8.7 -93.1 10.6 -88.8 12.7 C-88 13.1 -87.2 13.5 -86.4 13.9 C-83.9 15.1 -81.4 16.2 -78.9 17.4 C-77.3 18.2 -75.6 19 -73.9 19.8 C-61.5 25.7 -61.5 25.7 -58.9 27.1 C-54 29.3 -49.1 26.2 -44.8 23.9 C-39.3 21.1 -33.7 18.5 -28 16 C-21.2 13 -14.5 9.8 -7.9 6.4 C-5 5 -5 5 -2.1 4 C-1.4 3.7 -0.7 3.3 0 3 C0 2 0 1 0 0 Z " fill="#D9CEBE" transform="translate(119,9)"/>
<path d="M0 0 C14.3 4.1 14.3 4.1 17.6 9.8 C18.1 13.9 18.2 17.9 18 22 C12.9 20.5 8.4 18.3 3.8 15.9 C3.4 15.8 3.4 15.8 1.6 14.8 C-0.3 13.9 -2.1 12.9 -4 12 C-4.7 11.7 -5.3 11.3 -6 11 C-5.7 7.6 -4.4 6.3 -2 4 C-0.8 1.8 -0.8 1.8 0 0 Z " fill="#E6AD4B" transform="translate(46,37)"/>
<path d="M0 0 C1.7 1.6 1.7 1.6 3.2 3.4 C3.8 4.1 4.3 4.7 4.8 5.3 C6 7 6 7 6 9 C4.3 10.1 4.3 10.1 1.9 11.2 C1.1 11.6 0.2 12 -0.7 12.4 C-1.6 12.8 -2.5 13.2 -3.4 13.6 C-3.8 13.8 -3.8 13.8 -6.1 14.9 C-12.7 18 -12.7 18 -15 18 C-15 18.7 -15 19.3 -15 20 C-17.5 20.6 -17.5 20.6 -20 21 C-20 20.7 -20 20.7 -20 19 C-19.9 10.2 -19.9 10.2 -21 6 C-19.7 6 -18.4 6 -17 6 C-14.7 5.1 -14.7 5.1 -12.4 4 C-8.2 2 -8.2 2 -6 2 C-6 1.3 -6 0.7 -6 0 C-3.4 -1.3 -2.6 -1 0 0 Z " fill="#A17733" transform="translate(83,39)"/>
<path d="M0 0 C6.1 2.4 7.9 3.9 10 10 C11.7 22.9 11.7 22.9 8.3 27.1 C5.5 28.8 3.3 30 0 30 C0 20.1 0 10.2 0 0 Z " fill="#817561" transform="translate(51,55)"/>
<path d="M0 0 C6.1 1.4 11 4 16.4 7.1 C24.5 11.7 32.7 15.9 41 20 C44.6 21.8 48.2 23.6 51.8 25.4 C52.5 25.7 53.2 26 53.9 26.4 C56.7 27.8 59.4 29.2 62 31 C62 31.7 62 32.3 62 33 C56.5 32.5 52.4 31 47.6 28.4 C46.9 28 46.2 27.6 45.5 27.2 C43.3 26 41 24.8 38.8 23.6 C37.3 22.8 35.8 22 34.2 21.2 C31.2 19.5 28.2 17.9 25.2 16.3 C21.6 14.3 18 12.4 14.4 10.5 C12.5 9.5 10.7 8.5 8.9 7.6 C8.1 7.1 7.3 6.7 6.5 6.3 C1.1 3.3 1.1 3.3 0 0 Z " fill="#9E6C33" transform="translate(2,77)"/>
</svg>
