<!-- Generator: visioncortex VTracer 0.6.12 -->
<svg xmlns="http://www.w3.org/2000/svg" viewBox="0 0 150 126" width="150" height="126" shape-rendering="geometricPrecision">
<path d="M0 0 C1.02 0.46 2.04 0.92 3.09 1.39 C3.65 1.66 3.65 1.66 6.44 3 C7.03 3.28 7.62 3.57 8.23 3.86 C13 6.17 17.72 8.57 22.44 11 C23.25 11.42 24.06 11.83 24.89 12.26 C27.43 13.56 29.97 14.87 32.5 16.19 C33.29 16.59 34.07 16.99 34.88 17.41 C47.54 24.04 47.54 24.04 49.81 29 C51.94 32.93 54.43 33.77 58.48 35.43 C61.49 37.84 61.14 40.25 61.44 44 C61.05 47.39 61.05 47.39 60.33 50.89 C60.07 52.18 59.81 53.47 59.54 54.79 C59.4 55.45 59.26 56.11 59.11 56.8 C58.69 58.79 58.29 60.8 57.88 62.8 C54.57 78.91 52.37 86.33 38 95 C37.08 95.56 36.17 96.12 35.22 96.7 C32.3 98.47 29.37 100.24 26.44 102 C25.96 102.29 25.96 102.29 23.53 103.76 C17.21 107.57 10.85 111.33 4.44 115 C4.08 115.21 4.08 115.21 2.24 116.26 C0.36 117.33 -1.53 118.36 -3.44 119.38 C-4.45 119.92 -5.45 120.46 -6.49 121.02 C-13.51 123.25 -19.08 120.67 -25.12 117.25 C-25.48 117.05 -25.48 117.05 -27.29 116.06 C-29.72 114.72 -32.14 113.36 -34.56 112 C-36.45 110.95 -38.33 109.91 -40.22 108.86 C-49.17 103.87 -58.08 98.8 -66.81 93.44 C-67.14 93.24 -67.14 93.24 -68.78 92.25 C-75.24 88.2 -77.06 84.32 -79.06 77.12 C-79.28 76.37 -79.49 75.62 -79.71 74.85 C-81.35 69.02 -82.75 63.17 -83.92 57.23 C-84.34 55.1 -84.81 52.97 -85.33 50.86 C-86.95 43.78 -86.95 43.78 -85.06 40 C-82.56 38 -82.56 38 -79.44 36.5 C-76.56 35 -76.56 35 -75.64 32.61 C-70.67 20.57 -44 11.48 -32.56 6 C-31.8 5.63 -31.04 5.26 -30.25 4.88 C-27.89 3.73 -25.51 2.61 -23.12 1.5 C-22.4 1.15 -21.68 0.8 -20.94 0.44 C-13.84 -2.8 -7.22 -3.27 0 0 Z " fill="#795B46" transform="translate(87.5625,3)"/>
<path d="M0 0 C-0.85 0.58 -1.69 1.16 -2.56 1.75 C-5 4 -5 4 -4.92 5.98 C-3.68 8.71 -2.43 9.18 0.25 10.5 C4.89 12.88 9.41 15.37 13.91 18 C22.62 23.06 31.44 27.91 40.36 32.58 C42.08 33.47 43.79 34.38 45.5 35.28 C52.18 38.74 58.85 41.64 66 44 C65.34 44.99 64.68 45.98 64 47 C60.38 46.69 60.38 46.69 57 46 C59.64 46.66 62.28 47.32 65 48 C64.67 50.31 64.34 52.62 64 55 C60.34 54.37 57.12 53.36 53.69 51.94 C53.25 51.76 53.25 51.76 51.01 50.84 C50.35 50.56 49.68 50.29 49 50 C55.19 53.62 60.74 56.7 68 55 C72.15 53.26 76.09 51.23 80 49 C79.67 48.67 79.34 48.34 79 48 C78.96 46 78.96 44 79 42 C80.32 41.67 81.64 41.34 83 41 C83 43.31 83 45.62 83 48 C100.23 38.37 117.29 28.51 134 18 C132.29 25.97 122.8 29.36 116.12 32.9 C115.42 33.26 114.72 33.63 114 34 C114.5 34.16 114.5 34.16 117 35 C116.34 36.32 115.68 37.64 115 39 C116.65 38.34 118.3 37.68 120 37 C118.6 42.8 117.44 45.01 112 48 C109.81 47.69 109.81 47.69 108 47 C105 48 105 48 103 50 C102.75 43.25 102.75 43.25 105 41 C105.33 41.33 105.66 41.66 106 42 C106.66 40.68 107.32 39.36 108 38 C107.26 38.44 106.51 38.88 105.75 39.33 C97.87 43.9 89.88 48.22 81.81 52.44 C80.8 52.97 79.78 53.5 78.73 54.05 C77.78 54.55 76.82 55.05 75.83 55.56 C74.97 56.01 74.11 56.45 73.23 56.91 C71 58 71 58 68 59 C67.57 61.22 67.57 61.22 67.49 64.13 C67.47 64.65 67.47 64.65 67.38 67.26 C67.36 68.35 67.34 69.44 67.31 70.56 C67.28 71.65 67.24 72.75 67.21 73.87 C67.13 76.58 67.06 79.29 67 82 C65.06 82.56 65.06 82.56 63 83 C61.12 81.12 61.91 77.94 61.94 75.44 C61.95 74.24 61.96 73.04 61.96 71.81 C61.98 70.88 61.99 69.95 62 69 C61.34 69.66 60.68 70.32 60 71 C60.33 71.66 60.66 72.32 61 73 C61.04 75 61.04 77 61 79 C59.02 78.34 57.04 77.68 55 77 C56.98 77.99 58.96 78.98 61 80 C60.67 80.66 60.34 81.32 60 82 C59.37 81.67 58.74 81.35 58.09 81.01 C57.24 80.57 56.38 80.14 55.5 79.69 C54.66 79.26 53.83 78.83 52.97 78.39 C50 77 50 77 46.34 75.71 C40.91 73.71 36.01 70.81 31 67.94 C29.99 67.36 28.99 66.79 27.95 66.2 C21.84 62.69 15.76 59.13 9.75 55.44 C9.1 55.04 8.45 54.65 7.79 54.25 C1.32 50.2 -0.49 46.32 -2.5 39.12 C-2.72 38.37 -2.93 37.62 -3.15 36.85 C-4.79 31.02 -6.18 25.17 -7.36 19.23 C-7.78 17.1 -8.25 14.97 -8.77 12.86 C-10.41 5.72 -10.41 5.72 -8.25 1.88 C-5.01 -0.83 -3.97 -1.19 0 0 Z " fill="#A5773F" transform="translate(11,41)"/>
<path d="M0 0 C4.34 1.18 7.52 2.12 10 6 C9.51 13.41 8.03 20.66 6.62 27.94 C6.42 29.05 6.21 30.17 5.99 31.32 C3.02 46.81 0.32 53.7 -13.44 62 C-14.35 62.56 -15.27 63.12 -16.22 63.7 C-19.14 65.47 -22.07 67.24 -25 69 C-25.48 69.29 -25.48 69.29 -27.91 70.76 C-34.23 74.57 -40.59 78.33 -47 82 C-47.72 82.42 -48.45 82.83 -49.19 83.26 C-61.49 90.23 -61.49 90.23 -66.98 88.87 C-71.51 86.92 -75.78 84.54 -80 82 C-78 81 -78 81 -75.62 82 C-74.71 82.47 -73.81 82.95 -72.88 83.44 C-72.42 83.67 -72.42 83.67 -70.12 84.87 C-69.42 85.24 -68.72 85.62 -68 86 C-69.47 84.53 -71.21 83.85 -73.06 82.94 C-73.8 82.58 -74.53 82.21 -75.29 81.84 C-75.85 81.56 -76.42 81.29 -77 81 C-72.96 79.65 -71.6 81 -68 83 C-67.75 78.25 -67.75 78.25 -70 76 C-69.84 75.67 -69.84 75.67 -69 74 C-68.01 74 -67.02 74 -66 74 C-65.67 78.29 -65.34 82.58 -65 87 C-63.68 87 -62.36 87 -61 87 C-61.08 86.35 -61.17 85.69 -61.25 85.02 C-63.26 66.99 -63.26 66.99 -59.7 62.29 C-56.02 59.54 -51.67 58.27 -47.34 56.87 C-43.29 55.36 -39.72 53.07 -36.06 50.81 C-34.65 49.97 -33.23 49.12 -31.81 48.28 C-31.16 47.89 -30.5 47.5 -29.83 47.09 C-26.26 44.96 -22.71 42.89 -19 41 C-18.34 41.33 -17.68 41.66 -17 42 C-17.68 42.6 -18.36 43.2 -19.06 43.81 C-19.7 44.53 -20.34 45.26 -21 46 C-20.67 46.99 -20.34 47.98 -20 49 C-20.66 49 -21.32 49 -22 49 C-22.16 49.33 -22.16 49.33 -23 51 C-23.33 50.01 -23.66 49.02 -24 48 C-24 49.65 -24 51.3 -24 53 C-23.62 52.82 -23.62 52.82 -21.69 51.94 C-19 51 -19 51 -16 52 C-13.23 49.66 -11.1 46.95 -9 44 C-11 44 -11 44 -14 45 C-14 41 -14 41 -13 40 C-13.66 39.67 -14.32 39.34 -15 39 C-2.62 30.58 -2.62 30.58 3.44 27.94 C3.7 27.78 3.7 27.78 5 27 C5 26.01 5 25.02 5 24 C4.24 24.54 3.48 25.07 2.7 25.62 C-9.41 34.02 -22.27 41.14 -35.1 48.35 C-37.01 49.43 -38.89 50.56 -40.76 51.72 C-43 53 -43 53 -45 53 C-47 50 -47 50 -47 47 C-47.66 47 -48.32 47 -49 47 C-49 48.98 -49 50.96 -49 53 C-48.01 53.33 -47.02 53.66 -46 54 C-62.14 63 -62.14 63 -69 61 C-73.82 58.91 -78.41 56.56 -83 54 C-79.62 52.87 -79.27 53.04 -76.21 54.43 C-75.49 54.75 -74.78 55.07 -74.05 55.4 C-73.31 55.74 -72.57 56.08 -71.81 56.44 C-71.06 56.78 -70.31 57.11 -69.54 57.46 C-67.69 58.3 -65.84 59.15 -64 60 C-63.67 57.69 -63.34 55.38 -63 53 C-63.91 53.06 -64.81 53.12 -65.75 53.19 C-69.29 52.98 -70.45 52.35 -73 50 C-72.36 50.08 -71.72 50.17 -71.07 50.25 C-70.24 50.36 -69.41 50.46 -68.56 50.56 C-67.74 50.67 -66.92 50.77 -66.07 50.88 C-64 51 -64 51 -63 50 C-63.99 49.34 -64.98 48.68 -66 48 C-64.85 47.76 -63.7 47.51 -62.52 47.26 C-57.87 46.1 -53.9 44.12 -49.69 41.88 C-42.39 38 -42.39 38 -39 38 C-39 37.34 -39 36.68 -39 36 C-36.73 34.59 -34.47 33.32 -32.12 32.06 C-23.56 27.37 -15.22 22.37 -6.93 17.2 C-5.26 16.16 -3.58 15.13 -1.9 14.11 C-1.09 13.6 -0.27 13.09 0.56 12.56 C0.89 12.36 0.89 12.36 2.57 11.32 C4.42 9.61 4.83 8.5 5 6 C2.56 3.31 2.56 3.31 0 1 C0 0.67 0 0.34 0 0 Z " fill="#6A462B" transform="translate(139,36)"/>
<path d="M0 0 C3.27 2.04 4.56 3.65 6 7.25 C6.35 10.95 6.38 14.55 6 18.25 C5.84 18.41 5.84 18.41 5 19.25 C5.08 20.3 5.16 21.35 5.25 22.43 C4.92 27.44 3.43 28.73 0 32.25 C0.66 32.25 1.32 32.25 2 32.25 C1.88 34.18 1.88 34.18 1 36.25 C-2.06 37 -2.06 37 -5 37.25 C-5 36.59 -5 35.93 -5 35.25 C-5.99 35.91 -6.98 36.57 -8 37.25 C-9.32 37.25 -10.64 37.25 -12 37.25 C-12 35.93 -12 34.61 -12 33.25 C-12.23 34.05 -12.45 34.85 -12.69 35.68 C-14 38.25 -14 38.25 -16.12 39.06 C-16.6 39.09 -16.6 39.09 -19 39.25 C-20.18 39.33 -21.35 39.41 -22.56 39.5 C-28.16 39.43 -33.73 38.08 -39 36.25 C-39.33 35.59 -39.66 34.93 -40 34.25 C-39.34 34.25 -38.68 34.25 -38 34.25 C-38 33.59 -38 32.93 -38 32.25 C-38.66 32.25 -39.32 32.25 -40 32.25 C-40 31.59 -40 30.93 -40 30.25 C-39 30.26 -38 30.27 -36.96 30.28 C-35.62 30.29 -34.28 30.3 -32.94 30.31 C-32.28 30.31 -32.28 30.31 -28.96 30.34 C-25.18 30.25 -21.72 29.86 -18 29.25 C-20.25 29.25 -22.51 29.27 -24.76 29.32 C-26.21 29.33 -27.67 29.35 -29.12 29.37 C-29.87 29.39 -30.61 29.4 -31.37 29.42 C-33.25 29.44 -35.13 29.35 -37 29.25 C-37.33 28.59 -37.66 27.93 -38 27.25 C-38.42 27.1 -38.42 27.1 -40.56 26.37 C-41.37 26 -42.17 25.63 -43 25.25 C-43 21.35 -42.66 20.47 -41 17.25 C-41 14.25 -41 14.25 -43 11.25 C-41.71 10.55 -40.42 9.86 -39.12 9.18 C-38.41 8.8 -37.69 8.42 -36.95 8.02 C-35 7.25 -35 7.25 -33 8.25 C-33.66 9.57 -34.32 10.89 -35 12.25 C-30.12 9.5 -30.12 9.5 -29 7.25 C-26.94 6.12 -26.94 6.12 -25 5.25 C-25.19 4.46 -25.37 3.68 -25.56 2.87 C-26 0.25 -26 0.25 -25 -1.75 C-17.03 -4.41 -7.54 -3.59 0 0 Z " fill="#774D30" transform="translate(92,9.75390625)"/>
<path d="M0 0 C1 2 1 2 1.12 4.75 C2.87 11.22 9.01 14.28 14.71 17.14 C21.34 19.63 27.37 20.33 34.38 20.25 C35.21 20.25 36.04 20.24 36.89 20.24 C42.81 20.15 48.26 19.51 54 18 C50.85 20.74 48.35 21.55 44.25 22.19 C43.27 22.35 42.28 22.5 41.27 22.67 C40.89 22.72 40.89 22.72 39 23 C41.31 23 43.62 23 46 23 C46 23.66 46 24.32 46 25 C45.34 25 44.68 25 44 25 C44 25.99 44 26.98 44 28 C38.76 29.75 33.31 29.33 28 28 C31.42 31.15 34.44 31.56 39 32 C39 32.33 39 32.66 39 33 C34.71 33 30.42 33 26 33 C29.96 33.66 33.92 34.32 38 35 C38 36.32 38 37.64 38 39 C31.45 37.84 25.25 36.27 19 34 C30.49 40.1 39.09 39.59 50.91 35.13 C54 34 54 34 56 34 C56 34.66 56 35.32 56 36 C53.37 37.47 53.37 37.47 49.88 39.06 C48.74 39.59 47.6 40.12 46.43 40.66 C43.23 41.91 40.4 42.58 37 43 C37 43.66 37 44.32 37 45 C36.34 45 35.68 45 35 45 C35.16 45.66 35.16 45.66 36 49 C33.81 49.88 33.81 49.88 31 50 C26 45 26 45 26 42 C25.28 42.35 24.56 42.7 23.81 43.06 C20.65 44.12 19.14 44.02 16 43 C14 41 14 41 14 37 C14.8 37.16 15.61 37.33 16.44 37.5 C19 38 19 38 20 38 C14.5 35.3 11.78 34.51 5.94 36.81 C4 37 4 37 2.06 35.38 C0.56 33.65 -0.94 31.92 -2.44 30.19 C-3.28 29.47 -4.13 28.74 -5 28 C-5.85 28.19 -6.69 28.37 -7.56 28.56 C-8.37 28.71 -9.17 28.85 -10 29 C-14 24.14 -14 24.14 -14 21 C-16.31 21.33 -18.62 21.66 -21 22 C-21.5 20.71 -22 19.42 -22.5 18.12 C-22.78 17.41 -23.06 16.69 -23.34 15.95 C-24 14 -24 14 -24 12 C-24.33 11.67 -24.66 11.34 -25 11 C-25.25 8.06 -25.25 8.06 -25 5 C-24.01 4.34 -23.02 3.68 -22 3 C-22.14 3.87 -22.29 4.73 -22.44 5.62 C-21.66 11.62 -16.65 13.92 -11.92 17.02 C-6.09 20.68 -0.23 24.07 6 27 C3.69 25.68 1.38 24.36 -1 23 C-0.67 22.34 -0.34 21.68 0 21 C0.99 21.33 1.98 21.66 3 22 C0.69 20.68 -1.62 19.36 -4 18 C-4 18.99 -4 19.98 -4 21 C-8.85 18.26 -10.95 16.54 -12 11 C-12.23 7.98 -12.43 5 -12 2 C-11.34 1.67 -10.68 1.34 -10 1 C-10.16 1.85 -10.33 2.69 -10.5 3.56 C-9.81 8.29 -7.49 9.63 -3.85 12.48 C-2 14 -2 14 -1 16 C-0.01 16 0.98 16 2 16 C1.51 15.46 1.02 14.91 0.52 14.36 C-1.35 11.45 -1.34 9.74 -1.25 6.31 C-1.24 5.83 -1.24 5.83 -1.2 3.36 C-1 1 -1 1 0 0 Z " fill="#B07B45" transform="translate(38,30)"/>
<path d="M0 0 C1.49 0.99 1.49 0.99 9 6 C7.47 12.12 3.21 14.42 -2.09 17.28 C-7.18 20.08 -12.15 23.05 -17.12 26.06 C-20.41 28.05 -23.7 30.03 -27 32 C-27.69 32.42 -28.39 32.83 -29.1 33.26 C-33.76 36 -33.76 36 -36 36 C-36 36.66 -36 37.32 -36 38 C-39.14 40.01 -42.58 41.52 -45.94 43.12 C-46.86 43.59 -47.79 44.06 -48.74 44.54 C-55.84 47.96 -61.26 49.78 -68.83 46.94 C-72.08 45.46 -75.22 43.86 -78.38 42.19 C-78.94 41.9 -78.94 41.9 -81.81 40.42 C-109.03 26.26 -109.03 26.26 -114 21 C-114.56 20.44 -115.11 19.89 -115.69 19.31 C-115.9 19.1 -115.9 19.1 -117 18 C-114.25 15 -114.25 15 -112 15 C-111.42 16.18 -110.84 17.35 -110.25 18.56 C-109.22 20.51 -109.22 20.51 -108 22 C-104.75 21.94 -104.75 21.94 -102 21 C-101.67 21.99 -101.34 22.98 -101 24 C-100.01 24.33 -99.02 24.66 -98 25 C-96.81 27.56 -96.81 27.56 -96 30 C-90.12 29.04 -90.12 29.04 -87.69 28.19 C-82.67 27.84 -77.51 30.49 -74 34 C-77.56 33.39 -80.68 32.42 -84 31 C-83.31 33.44 -83.31 33.44 -82 36 C-79.02 37.13 -77.51 37.18 -74.5 36.12 C-73.67 36.08 -72.85 36.04 -72 36 C-70.57 37.71 -69.45 39.52 -68.27 41.41 C-67 43 -67 43 -64.19 43.44 C-63.47 43.29 -62.74 43.15 -62 43 C-62.16 42.34 -62.16 42.34 -63 39 C-62.28 38.79 -61.57 38.58 -60.83 38.37 C-52.81 35.89 -44.93 32.82 -38 28 C-38 27.01 -38 26.02 -38 25 C-36.03 23.39 -36.03 23.39 -33.5 21.81 C-32.66 21.28 -31.83 20.75 -30.97 20.21 C-30.32 19.81 -29.67 19.41 -29 19 C-29.99 17.68 -30.98 16.36 -32 15 C-30.05 13.6 -28.04 12.27 -26 11 C-25.67 11.16 -25.67 11.16 -24 12 C-24 12.33 -24 12.66 -24 13 C-23.67 13.16 -23.67 13.16 -22 14 C-22.43 14.39 -22.87 14.78 -23.31 15.19 C-25 17 -25 17 -26.44 19.44 C-28.03 22.04 -29.85 23.85 -32 26 C-32 26.66 -32 27.32 -32 28 C-29.61 27.42 -27.33 26.78 -25 26 C-24.31 23.94 -24.31 23.94 -24 22 C-23.55 22.07 -23.55 22.07 -21.25 22.44 C-18 22 -18 22 -16.71 20.44 C-15.72 18.67 -14.85 16.84 -14 15 C-12.35 15.33 -10.7 15.66 -9 16 C-8.34 14.35 -7.68 12.7 -7 11 C-8.65 11.33 -10.3 11.66 -12 12 C-9.35 9.27 -6.7 6.71 -3.75 4.31 C-1 2 -1 2 0 0 Z " fill="#5D5045" transform="translate(136,36)"/>
<path d="M0 0 C0.16 0.33 0.16 0.33 1 2 C-2.56 5.82 -6.23 8.61 -10.75 11.25 C-16.93 14.93 -16.93 14.93 -18 16 C-17.34 16.33 -16.68 16.66 -16 17 C-16.66 18.32 -17.32 19.64 -18 21 C-16.35 20.34 -14.7 19.68 -13 19 C-14.4 24.8 -15.56 27.01 -21 30 C-23.19 29.69 -23.19 29.69 -25 29 C-28 30 -28 30 -30 32 C-30.25 25.25 -30.25 25.25 -28 23 C-27.67 23.33 -27.34 23.66 -27 24 C-26.34 22.68 -25.68 21.36 -25 20 C-25.37 20.22 -25.37 20.22 -27.25 21.33 C-35.13 25.9 -43.12 30.22 -51.19 34.44 C-52.2 34.97 -53.22 35.5 -54.27 36.05 C-54.74 36.3 -54.74 36.3 -57.17 37.56 C-58.03 38.01 -58.89 38.45 -59.77 38.91 C-62 40 -62 40 -65 41 C-65.43 43.22 -65.43 43.22 -65.51 46.13 C-65.55 47.16 -65.58 48.2 -65.62 49.26 C-65.64 50.35 -65.66 51.44 -65.69 52.56 C-65.72 53.65 -65.76 54.75 -65.79 55.87 C-65.87 58.58 -65.94 61.29 -66 64 C-67.94 64.56 -67.94 64.56 -70 65 C-71.88 63.12 -71.09 59.94 -71.06 57.44 C-71.05 56.24 -71.04 55.04 -71.04 53.81 C-71.02 52.88 -71.01 51.95 -71 51 C-71.66 51.66 -72.32 52.32 -73 53 C-72.67 53.66 -72.34 54.32 -72 55 C-71.96 57 -71.96 59 -72 61 C-73.01 60.55 -74.02 60.09 -75.06 59.62 C-77.69 58.48 -79.91 57.79 -82.75 57.12 C-86.76 55.74 -87.19 54.74 -89 51 C-89.73 47.84 -89.73 47.84 -90.19 44.5 C-90.27 43.95 -90.27 43.95 -90.67 41.16 C-91 38 -91 38 -90.89 35.18 C-90.93 34.46 -90.96 33.74 -91 33 C-93.5 31.69 -93.5 31.69 -96 31 C-94 30 -94 30 -92.02 30.8 C-91.22 31.23 -90.43 31.65 -89.61 32.09 C-88.73 32.54 -87.86 33 -86.96 33.47 C-85.12 34.44 -83.29 35.42 -81.45 36.4 C-80.57 36.85 -79.7 37.31 -78.79 37.78 C-78.39 37.99 -78.39 37.99 -76.37 39.07 C-73.75 40.1 -71.79 40.18 -69 40 C-69.66 39.34 -70.32 38.68 -71 38 C-69.7 37.77 -68.4 37.55 -67.06 37.31 C-61.79 36.17 -57.55 33.82 -53 31 C-53.33 30.67 -53.66 30.34 -54 30 C-54.04 28 -54.04 26 -54 24 C-52.68 23.67 -51.36 23.34 -50 23 C-50 25.31 -50 27.62 -50 30 C-38.59 23.62 -27.21 17.21 -16 10.5 C-15.2 10.02 -14.39 9.54 -13.56 9.05 C-8.88 6.23 -4.41 3.24 0 0 Z " fill="#8B5F36" transform="translate(144,59)"/>
<path d="M0 0 C0.66 0.33 1.32 0.66 2 1 C1.59 1.28 1.59 1.28 -0.5 2.69 C-3 5 -3 5 -3.52 7.4 C-2.73 11.35 -0.55 12 2.88 13.94 C3.17 14.11 3.17 14.11 4.65 14.96 C5.84 15.65 7.05 16.33 8.25 17.01 C10.8 18.45 13.31 19.98 15.81 21.5 C17.21 22.33 18.6 23.17 20 24 C19.01 24.33 18.02 24.66 17 25 C17 26.65 17 28.3 17 30 C17.66 30 18.32 30 19 30 C19.33 30.99 19.66 31.98 20 33 C14.82 31.53 10.66 29.19 6.12 26.38 C5.78 26.16 5.78 26.16 4.04 25.1 C2.36 24.07 0.68 23.04 -1 22 C-0.68 22.59 -0.36 23.17 -0.04 23.78 C1.36 26.78 1.58 29.73 2 33 C2.33 33.99 2.66 34.98 3 36 C5.06 36.69 5.06 36.69 7 37 C6.34 37.66 5.68 38.32 5 39 C7.31 40.65 9.62 42.3 12 44 C12 41.03 12 38.06 12 35 C12.33 35.99 12.66 36.98 13 38 C13.66 38.33 14.32 38.66 15 39 C15 39.66 15 40.32 15 41 C15.99 41.66 16.98 42.32 18 43 C18 43.99 18 44.98 18 46 C20.5 48.69 20.5 48.69 23 51 C22.67 51.33 22.34 51.66 22 52 C22.99 52 23.98 52 25 52 C26.67 52.67 28.33 53.33 30 54 C30.99 54 31.98 54 33 54 C36.46 55.01 38.98 55.99 42 58 C42 58.66 42 59.32 42 60 C42.99 60.33 43.98 60.66 45 61 C45.73 63.72 45.73 63.72 46.19 67.06 C46.27 67.61 46.27 67.61 46.67 70.41 C46.78 71.26 46.89 72.12 47 73 C42.49 72.46 39.25 71.31 35.3 69.09 C34.77 68.79 34.77 68.79 32.07 67.28 C30.98 66.65 29.88 66.02 28.75 65.38 C27.67 64.77 26.59 64.17 25.47 63.54 C4.95 51.93 4.95 51.93 2 42 C1.9 41.68 1.9 41.68 1.41 40.08 C-7.34 11.23 -7.34 11.23 -5 4 C-2.56 1.62 -2.56 1.62 0 0 Z " fill="#9D7648" transform="translate(7,40)"/>
<path d="M0 0 C4.64 -0.28 7.5 0.38 11.62 2.52 C12.64 3.05 13.65 3.58 14.7 4.12 C15.23 4.4 15.23 4.4 17.88 5.81 C18.94 6.36 20.01 6.91 21.12 7.47 C26.98 10.56 26.98 10.56 29 12 C29 12.99 29 13.98 29 15 C32.66 17.25 34.65 18 39 18 C40.11 20.97 40.55 23.01 38.96 25.86 C33.81 32.18 26.93 36.81 20 41 C19.34 41 18.68 41 18 41 C18 41.66 18 42.32 18 43 C19.98 42.34 21.96 41.68 24 41 C20.72 44.68 17.37 46.81 13 49 C12.34 48.67 11.68 48.34 11 48 C11.8 47.24 12.61 46.47 13.44 45.69 C16 43 16 43 17 40 C17.33 39.67 17.66 39.34 18 39 C17.34 38.67 16.68 38.34 16 38 C17.98 36.68 19.96 35.36 22 34 C22.33 34.66 22.66 35.32 23 36 C24.98 34.68 26.96 33.36 29 32 C28.01 31.67 27.02 31.34 26 31 C26.87 30.15 27.73 29.31 28.62 28.44 C30.97 25.62 31.03 25.29 30.62 21.38 C28.1 16.13 24.52 13.69 19 12 C18.67 12.33 18.34 12.66 18 13 C18.58 13.34 19.16 13.68 19.75 14.02 C20.49 14.47 21.23 14.92 22 15.38 C22.37 15.6 22.37 15.6 24.25 16.71 C24.83 17.14 25.41 17.56 26 18 C26 18.66 26 19.32 26 20 C26.99 20.33 27.98 20.66 29 21 C28 24 28 24 26 26 C26 26.66 26 27.32 26 28 C25.34 28.33 24.68 28.66 24 29 C24 29.99 24 30.98 24 32 C22.35 32 20.7 32 19 32 C18.99 31.12 18.97 30.24 18.96 29.33 C18.52 18.66 18.52 18.66 15.44 15.69 C14.63 15.13 13.83 14.57 13 14 C13.66 14.72 14.32 15.44 15 16.19 C17.22 19.32 17.5 20.28 17 24 C12.92 29.22 6.98 32.42 1 35 C0.34 35 -0.32 35 -1 35 C-1 34.01 -1 33.02 -1 32 C-1.5 32.16 -1.5 32.16 -4 33 C-4 32.34 -4 31.68 -4 31 C-2.35 29.65 -0.68 28.31 1 27 C2.35 24.29 2.07 21.99 2 19 C1.01 19 0.02 19 -1 19 C-0.35 18.6 0.3 18.21 0.97 17.8 C3.54 15.52 3.52 14.56 3.44 11.19 C3.28 6.82 2.36 3.74 0 0 Z " fill="#533A32" transform="translate(94,11)"/>
<path d="M0 0 C3.15 1.99 4.59 3.83 6 7.26 C6.11 13.17 4.33 15.45 0 19.26 C-0.25 19.63 -0.25 19.63 -1.56 21.51 C-3.32 23.66 -4.36 23.62 -7 24.26 C-7.68 24.96 -8.36 25.66 -9.06 26.39 C-9.7 27.01 -10.34 27.62 -11 28.26 C-14 27.26 -14 27.26 -15 25.26 C-17 25.26 -17 25.26 -19.06 25.76 C-23.05 26.44 -26.96 26.34 -31 26.26 C-27.87 23.74 -24.62 21.99 -21 20.26 C-21.75 17.32 -21.75 17.32 -23 14.26 C-25.06 13.64 -25.06 13.64 -27 13.26 C-27.62 11.26 -27.62 11.26 -28 9.26 C-28.66 8.93 -29.32 8.6 -30 8.26 C-28.35 7.27 -26.7 6.28 -25 5.26 C-25.09 4.87 -25.09 4.87 -25.56 2.89 C-26 0.26 -26 0.26 -25 -1.74 C-17.02 -4.4 -7.56 -3.55 0 0 Z " fill="#A38159" transform="translate(91.99609375,9.73828125)"/>
<path d="M0 0 C0.59 0.28 1.18 0.57 1.79 0.86 C6.57 3.17 11.29 5.57 16 8 C16.81 8.42 17.62 8.83 18.46 9.26 C21 10.56 23.53 11.87 26.06 13.19 C26.85 13.59 27.63 13.99 28.44 14.41 C42.11 21.57 42.11 21.57 44.44 27.81 C44.75 28.6 45.05 29.39 45.37 30.21 C45.58 30.8 45.79 31.39 46 32 C44.68 32 43.36 32 42 32 C39.89 33.5 39.89 33.5 37.81 35.44 C37.12 36.08 36.42 36.71 35.71 37.37 C34.8 38.24 33.89 39.11 33 40 C33.5 40.16 33.5 40.16 36 41 C35.19 43.44 35.19 43.44 34 46 C31 47 31 47 28 47 C27.4 48.01 26.8 49.02 26.19 50.06 C25.47 51.03 24.74 52 24 53 C20.75 52.88 20.75 52.88 18 52 C17.92 52.6 17.83 53.2 17.75 53.81 C16.77 56.68 15.64 57.57 13 59 C10.75 58.69 10.75 58.69 9 58 C10.5 53.7 13.25 52.39 17.12 50.25 C18.22 49.64 19.32 49.02 20.45 48.39 C20.87 48.16 20.87 48.16 23 47 C21.35 47.33 19.7 47.66 18 48 C18 47.34 18 46.68 18 46 C19.79 44.7 21.63 43.49 23.5 42.31 C37.31 33.27 37.31 33.27 39 27.69 C39 26.8 39 25.91 39 25 C39 24.34 39 23.68 39 23 C38.48 23.25 37.97 23.5 37.44 23.75 C33.53 24.15 31.26 22.07 28 20 C28.33 19.34 28.66 18.68 29 18 C25.34 16 21.67 14.03 18 12.06 C16.97 11.5 15.94 10.93 14.88 10.35 C9.06 7.26 4.57 5.41 -2 5 C-3.2 4.48 -4.39 3.97 -5.62 3.44 C-11.45 1.03 -17.82 1.77 -24 2 C-26.12 7.75 -26.12 7.75 -25 10 C-27.64 10.99 -30.28 11.98 -33 13 C-33.16 12.18 -33.16 12.18 -34 8 C-34.33 8.66 -34.66 9.32 -35 10 C-36.89 10.27 -36.89 10.27 -39.25 10.38 C-43.6 10.74 -45.85 11.85 -49 15 C-48.67 13.68 -48.34 12.36 -48 11 C-48.66 11 -49.32 11 -50 11 C-50 11.99 -50 12.98 -50 14 C-51.98 14 -53.96 14 -56 14 C-56.33 14.99 -56.66 15.98 -57 17 C-60.06 17.69 -60.06 17.69 -63 18 C-61.63 13.89 -59.8 13.56 -55.98 11.6 C-55.37 11.28 -54.75 10.97 -54.12 10.64 C-52.81 9.97 -51.5 9.3 -50.19 8.64 C-48.23 7.65 -46.27 6.64 -44.31 5.62 C-17.25 -8.28 -17.25 -8.28 0 0 Z " fill="#735640" transform="translate(94,6)"/>
<path d="M0 0 C5.21 2.67 9.11 5.32 11 11 C10.78 15.12 9.68 16.57 6.81 19.44 C7.14 19.27 7.14 19.27 8.81 18.44 C7.76 21.3 7.14 22.27 4.38 23.69 C1.81 24.44 1.81 24.44 -1.19 24.44 C-4.25 25.67 -7.24 26.96 -10.19 28.44 C-9.2 29.43 -8.21 30.42 -7.19 31.44 C-10.21 34.69 -13.44 37.06 -17.19 39.44 C-16.53 40.1 -15.87 40.76 -15.19 41.44 C-17.85 42.93 -20.51 44.41 -23.19 45.88 C-23.93 46.3 -24.68 46.72 -25.44 47.15 C-30.46 49.88 -34.48 51.08 -40.19 51.44 C-37.63 48.88 -35.19 48.15 -31.81 46.88 C-30.67 46.44 -29.53 46.01 -28.35 45.56 C-25.96 44.71 -23.66 43.98 -21.19 43.44 C-21.19 42.78 -21.19 42.12 -21.19 41.44 C-22.01 41.79 -22.83 42.14 -23.68 42.5 C-36.99 47.92 -45.81 48.66 -58.81 42.25 C-59.93 41.65 -61.04 41.05 -62.19 40.44 C-58.21 39.11 -56.76 40.17 -52.94 41.75 C-48.38 43.58 -43.94 45.22 -39.19 46.44 C-39.19 45.12 -39.19 43.8 -39.19 42.44 C-40.22 42.48 -41.25 42.52 -42.31 42.56 C-46.06 42.44 -48.72 41.79 -52.19 40.44 C-49.7 39.75 -47.81 39.44 -45.19 39.44 C-45.77 39.15 -46.34 38.86 -46.94 38.56 C-48.34 37.86 -49.73 37.16 -51.12 36.44 C-53.44 35.32 -55.79 34.37 -58.19 33.44 C-54.64 32.25 -53.67 32.74 -50.19 33.88 C-44.56 35.51 -39.03 36.27 -33.19 35.44 C-32.86 34.78 -32.53 34.12 -32.19 33.44 C-30.47 32.98 -30.47 32.98 -28.25 32.62 C-20.23 31.01 -13.34 26.66 -6.48 22.37 C-3.01 20.28 -1.33 19.44 2.81 19.44 C2.81 18.45 2.81 17.46 2.81 16.44 C3.47 16.44 4.13 16.44 4.81 16.44 C4.65 15.94 4.65 15.94 3.81 13.44 C4.8 12.78 5.79 12.12 6.81 11.44 C6.81 10.78 6.81 10.12 6.81 9.44 C6.48 9.27 6.48 9.27 4.81 8.44 C4.81 7.78 4.81 7.12 4.81 6.44 C4.07 6.15 3.33 5.86 2.56 5.56 C-0.46 4.32 -2.02 2.85 -4.19 0.44 C-2.19 -0.56 -2.19 -0.56 0 0 Z " fill="#704C2F" transform="translate(115.1875,22.5625)"/>
<path d="M0 0 C1 2 1 2 1.34 4.43 C4.21 15.67 30.37 25.36 39.88 30.06 C40.81 30.54 41.75 31.02 42.72 31.51 C51.99 35.98 60.37 37.46 70.06 33.56 C76.91 31 76.91 31 79 31 C79 31.66 79 32.32 79 33 C76.37 34.47 76.37 34.47 72.88 36.06 C71.74 36.59 70.6 37.12 69.43 37.66 C66.23 38.91 63.4 39.58 60 40 C60 40.66 60 41.32 60 42 C59.34 42 58.68 42 58 42 C58.16 42.66 58.16 42.66 59 46 C56.81 46.88 56.81 46.88 54 47 C49 42 49 42 49 39 C48.28 39.35 47.56 39.7 46.81 40.06 C43.65 41.12 42.14 41.02 39 40 C37 38 37 38 37 34 C37.8 34.16 38.61 34.33 39.44 34.5 C42 35 42 35 43 35 C37.5 32.3 34.78 31.51 28.94 33.81 C27 34 27 34 25.06 32.38 C23.56 30.65 22.06 28.92 20.56 27.19 C19.72 26.47 18.87 25.74 18 25 C17.15 25.19 16.31 25.37 15.44 25.56 C14.63 25.71 13.83 25.85 13 26 C9 21.14 9 21.14 9 18 C6.69 18.33 4.38 18.66 2 19 C1.5 17.71 1 16.42 0.5 15.12 C0.22 14.41 -0.06 13.69 -0.34 12.95 C-1 11 -1 11 -1 9 C-1.33 8.67 -1.66 8.34 -2 8 C-2.36 2.36 -2.36 2.36 0 0 Z " fill="#D0A35A" transform="translate(15,33)"/>
<path d="M0 0 C1.94 0.38 1.94 0.38 4 1 C4.33 1.66 4.66 2.32 5 3 C5.66 3 6.32 3 7 3 C6 6 6 6 4 7 C4.33 7.99 4.66 8.98 5 10 C1.25 11.12 1.25 11.12 -1 10 C-0.67 11.32 -0.34 12.64 0 14 C-8.84 18.22 -16.16 20.41 -26 20 C-22.88 17.48 -19.62 15.73 -16 14 C-16.75 11.06 -16.75 11.06 -18 8 C-20.06 7.38 -20.06 7.38 -22 7 C-22.75 4.94 -22.75 4.94 -23 3 C-22.34 3 -21.68 3 -21 3 C-21 3.66 -21 4.32 -21 5 C-20.01 4.34 -19.02 3.68 -18 3 C-18 2.67 -18 2.34 -18 2 C-11.92 0.38 -5.05 0.24 1 2 C0.67 1.34 0.34 0.68 0 0 Z " fill="#B59063" transform="translate(87,16)"/>
<path d="M0 0 C-0.66 1.32 -1.32 2.64 -2 4 C0.31 3.01 2.62 2.02 5 1 C5.04 1.32 5.04 1.32 5.25 2.94 C5.5 3.62 5.75 4.3 6 5 C6.32 5.07 6.32 5.07 7.94 5.44 C8.28 5.53 8.28 5.53 10 6 C10.72 7.65 11.38 9.31 12 11 C12.99 11.66 13.98 12.32 15 13 C11.37 14.32 7.74 15.64 4 17 C10.2 17.28 15.93 16.23 22 15 C19.89 17.11 18.64 17.61 15.88 18.56 C14.57 19.01 13.28 19.48 12 20 C12 20.33 12 20.66 12 21 C9.35 21.05 6.71 21.09 4.06 21.12 C3.31 21.14 2.55 21.16 1.78 21.18 C-0.15 21.19 -2.08 21.1 -4 21 C-4.33 20.34 -4.66 19.68 -5 19 C-5.42 18.86 -5.42 18.86 -7.56 18.12 C-8.37 17.75 -9.17 17.38 -10 17 C-10 13.1 -9.66 12.22 -8 9 C-8 6 -8 6 -10 3 C-8.71 2.3 -7.42 1.62 -6.12 0.94 C-5.41 0.55 -4.69 0.17 -3.95 -0.22 C-2 -1 -2 -1 0 0 Z " fill="#6E4E33" transform="translate(59,18)"/>
<path d="M0 0 C0.58 1.18 1.16 2.35 1.75 3.56 C2.78 5.51 2.78 5.51 4 7 C7.25 6.94 7.25 6.94 10 6 C10.33 6.99 10.66 7.98 11 9 C11.99 9.33 12.98 9.66 14 10 C15.19 12.56 15.19 12.56 16 15 C21.88 14.04 21.88 14.04 24.31 13.19 C29.33 12.84 34.49 15.49 38 19 C34.44 18.39 31.32 17.42 28 16 C28.69 18.44 28.69 18.44 30 21 C32.98 22.13 34.49 22.18 37.5 21.12 C37.91 21.1 37.91 21.1 40 21 C41.18 22.52 41.18 22.52 42.38 24.5 C43.6 26.46 43.6 26.46 45 28 C48.75 28.06 48.75 28.06 52 27 C52.33 26.34 52.66 25.68 53 25 C54.98 25.99 56.96 26.98 59 28 C58 30 58 30 55.56 31.19 C46.61 33.23 39.41 30.29 31.56 26.12 C31.09 25.88 31.09 25.88 28.71 24.65 C20.58 20.41 12.58 15.95 4.68 11.31 C4.04 10.94 3.4 10.56 2.74 10.18 C0.92 8.94 -0.5 7.6 -2 6 C-2.56 5.44 -3.11 4.89 -3.69 4.31 C-4.12 3.88 -4.55 3.45 -5 3 C-2.25 0 -2.25 0 0 0 Z " fill="#417B87" transform="translate(24,51)"/>
<path d="M0 0 C0.66 0.33 1.32 0.66 2 1 C1.34 2.65 0.68 4.3 0 6 C-0.31 5.9 -0.31 5.9 -1.88 5.38 C-2.58 5.25 -3.28 5.13 -4 5 C-4.66 5.66 -5.32 6.32 -6 7 C-6.66 7.66 -7.32 8.32 -8 9 C-6.68 10.32 -5.36 11.64 -4 13 C-5.62 14.01 -7.25 15 -8.88 16 C-9.78 16.56 -10.68 17.11 -11.62 17.69 C-14 19 -14 19 -16 19 C-18 16 -18 16 -18 13 C-18.66 13 -19.32 13 -20 13 C-20 14.98 -20 16.96 -20 19 C-19.01 19.33 -18.02 19.66 -17 20 C-33.14 29 -33.14 29 -40 27 C-44.82 24.91 -49.41 22.56 -54 20 C-50.62 18.87 -50.27 19.04 -47.21 20.43 C-46.85 20.59 -46.85 20.59 -45.05 21.4 C-44.31 21.74 -43.57 22.08 -42.81 22.44 C-42.06 22.78 -41.31 23.11 -40.54 23.46 C-38.69 24.3 -36.84 25.15 -35 26 C-34.67 23.69 -34.34 21.38 -34 19 C-34.91 19.06 -35.81 19.12 -36.75 19.19 C-40.36 18.98 -41.3 18.24 -44 16 C-43.66 16.08 -43.66 16.08 -41.94 16.5 C-31.46 18.28 -24.76 14.08 -16 9 C-13.76 7.72 -11.52 6.44 -9.28 5.17 C-7.86 4.36 -6.45 3.54 -5.05 2.71 C-3.4 1.75 -1.7 0.86 0 0 Z " fill="#593A22" transform="translate(110,70)"/>
<path d="M0 0 C1 2 1 2 1.12 4.75 C2.87 11.22 9.01 14.28 14.71 17.14 C21.34 19.63 27.37 20.33 34.38 20.25 C35.21 20.25 36.04 20.24 36.89 20.24 C42.81 20.15 48.26 19.51 54 18 C50.85 20.74 48.35 21.55 44.25 22.19 C43.27 22.35 42.28 22.5 41.27 22.67 C40.52 22.78 39.77 22.89 39 23 C41.31 23 43.62 23 46 23 C46 23.66 46 24.32 46 25 C45.34 25 44.68 25 44 25 C44 25.99 44 26.98 44 28 C37.61 30.13 31.63 29 25.38 26.94 C24.69 26.72 24.01 26.5 23.31 26.27 C3.74 19.68 3.74 19.68 -1 12 C-1.43 9.14 -1.43 9.14 -1.31 6.25 C-1.29 5.29 -1.26 4.32 -1.24 3.33 C-1 1 -1 1 0 0 Z " fill="#8E8A78" transform="translate(38,30)"/>
<path d="M0 0 C0.66 0.33 1.32 0.66 2 1 C1.59 1.28 1.59 1.28 -0.5 2.69 C-3 5 -3 5 -3.52 7.4 C-2.73 11.35 -0.55 12 2.88 13.94 C3.17 14.11 3.17 14.11 4.65 14.96 C5.84 15.65 7.05 16.33 8.25 17.01 C10.8 18.45 13.31 19.98 15.81 21.5 C17.21 22.33 18.6 23.17 20 24 C19.01 24.33 18.02 24.66 17 25 C17 26.65 17 28.3 17 30 C17.66 30 18.32 30 19 30 C19.33 30.99 19.66 31.98 20 33 C14.82 31.53 10.66 29.19 6.12 26.38 C5.78 26.16 5.78 26.16 4.04 25.1 C2.36 24.07 0.68 23.04 -1 22 C-0.68 22.59 -0.36 23.17 -0.04 23.78 C1.36 26.78 1.58 29.73 2 33 C2.33 33.99 2.66 34.98 3 36 C5.06 36.69 5.06 36.69 7 37 C6.34 37.66 5.68 38.32 5 39 C6.32 40.32 7.64 41.64 9 43 C7.68 42.67 6.36 42.34 5 42 C5.33 44.64 5.66 47.28 6 50 C3.21 47.21 2.61 43.95 1.56 40.25 C1.34 39.49 1.12 38.73 0.9 37.94 C-0.76 32.09 -2.18 26.2 -3.36 20.23 C-3.78 18.1 -4.25 15.97 -4.77 13.86 C-6.41 6.72 -6.41 6.72 -4.25 2.88 C-2 1 -2 1 0 0 Z " fill="#835D37" transform="translate(7,40)"/>
<path d="M0 0 C4.39 1.3 6.15 2.79 8 7 C5.26 15.21 -10.85 21.58 -18.33 26.01 C-20.5 27.3 -22.65 28.62 -24.81 29.94 C-34.98 36.03 -45.4 41.76 -55.94 47.19 C-57.04 47.76 -58.14 48.33 -59.28 48.92 C-62 50 -62 50 -65 49 C-64.83 48.84 -64.83 48.84 -64 48 C-64.99 47.34 -65.98 46.68 -67 46 C-65.85 45.76 -64.7 45.51 -63.52 45.26 C-58.87 44.1 -54.9 42.12 -50.69 39.88 C-43.39 36 -43.39 36 -40 36 C-40 35.34 -40 34.68 -40 34 C-37.73 32.59 -35.47 31.32 -33.12 30.06 C-24.56 25.37 -16.22 20.37 -7.93 15.2 C-6.26 14.16 -4.58 13.13 -2.9 12.11 C-2.09 11.6 -1.27 11.09 -0.44 10.56 C-0.11 10.36 -0.11 10.36 1.57 9.32 C3.41 7.63 3.8 6.47 4 4 C2.06 1.75 2.06 1.75 0 0 Z " fill="#875A33" transform="translate(140,38)"/>
<path d="M0 0 C0.66 0.33 1.32 0.66 2 1 C1.15 1.58 0.31 2.16 -0.56 2.75 C-3 5 -3 5 -2.92 6.98 C-1.68 9.71 -0.43 10.18 2.25 11.5 C6.89 13.88 11.41 16.37 15.91 19 C24.62 24.06 33.44 28.91 42.36 33.58 C44.08 34.47 45.79 35.38 47.5 36.28 C54.18 39.74 60.85 42.64 68 45 C67.34 45.99 66.68 46.98 66 48 C57.13 47.21 49.61 42.44 41.94 38.25 C40.52 37.48 39.1 36.72 37.68 35.96 C-5.07 12.85 -5.07 12.85 -6.81 7.5 C-5.55 3.62 -3.35 2.28 0 0 Z " fill="#CB9B5D" transform="translate(9,40)"/>
<path d="M0 0 C3.4 1.46 5.65 3.13 8 6 C9.01 10.84 9.69 16.77 6.57 20.89 C4.75 22.19 3.04 23.12 1 24 C-1.28 25.12 -3.53 26.28 -5.77 27.47 C-15.81 32.72 -15.81 32.72 -22 33 C-22.33 32.34 -22.66 31.68 -23 31 C-22.34 31 -21.68 31 -21 31 C-21 30.34 -21 29.68 -21 29 C-21.66 29.33 -22.32 29.66 -23 30 C-25.97 30.12 -28.91 30.19 -31.88 30.19 C-32.69 30.2 -33.51 30.21 -34.35 30.22 C-34.74 30.23 -34.74 30.23 -36.74 30.23 C-37.46 30.23 -38.18 30.24 -38.93 30.24 C-41.3 29.96 -42.93 29.18 -45 28 C-43.9 28.02 -42.8 28.05 -41.67 28.07 C-33.21 28.19 -25.27 28.01 -17 26 C-16.26 25.87 -15.53 25.75 -14.77 25.62 C-14.19 25.42 -13.6 25.21 -13 25 C-12.84 24.51 -12.84 24.51 -12 22 C-9.96 20.82 -9.96 20.82 -7.38 19.69 C4.03 14.23 4.03 14.23 5.75 8.5 C4.65 4.83 2.6 2.79 0 0 Z " fill="#5F5551" transform="translate(105,24)"/>
<path d="M0 0 C2.03 0.59 4.02 1.28 6 2 C6.43 2.14 6.43 2.14 8.62 2.82 C11.56 3.95 13.67 4.87 16 7 C16.84 11.12 16.41 14.85 16 19 C16.33 19.33 16.66 19.66 17 20 C17.04 22 17.04 24 17 26 C15.25 25.26 13.5 24.51 11.75 23.75 C10.78 23.33 9.8 22.91 8.8 22.48 C5.89 20.94 4.04 19.58 2 17 C2 15.68 2 14.36 2 13 C2.99 12.34 3.98 11.68 5 11 C4.59 10.84 4.59 10.84 2.5 10 C0 8 0 8 -0.33 6.02 C-0.31 4.01 -0.16 2 0 0 Z " fill="#B28951" transform="translate(55,94)"/>
<path d="M0 0 C2 1 2 1 2.62 3.31 C4.67 7.3 7.98 8.33 12 10 C11.67 10.99 11.34 11.98 11 13 C11.66 13 12.32 13 13 13 C12.67 13.99 12.34 14.98 12 16 C20.49 18.57 28.15 19.39 37 19 C36 16 36 16 34 14 C35.65 14 37.3 14 39 14 C39 15.32 39 16.64 39 18 C41.97 17.01 44.94 16.02 48 15 C47.67 15.66 47.34 16.32 47 17 C48.65 17 50.3 17 52 17 C50.39 20.22 47.75 20.45 44.41 21.39 C29.09 24.13 14.73 22.25 2 13 C-0.3 11.04 -1.4 9.65 -3 7 C-2.94 3.69 -2.94 3.69 -2 1 C-1.34 0.67 -0.68 0.34 0 0 Z " fill="#533A30" transform="translate(41,29)"/>
<path d="M0 0 C0.66 0.33 1.32 0.66 2 1 C1.32 1.6 0.64 2.2 -0.06 2.81 C-0.38 3.17 -0.38 3.17 -2 5 C-1.84 5.5 -1.84 5.5 -1 8 C-1.66 8 -2.32 8 -3 8 C-3.33 8.66 -3.66 9.32 -4 10 C-4.16 9.5 -4.16 9.5 -5 7 C-5.33 8.65 -5.66 10.3 -6 12 C-8 10 -8 10 -8 7 C-9.98 8.16 -9.98 8.16 -20 14 C-19.67 14.66 -19.34 15.32 -19 16 C-20.32 16 -21.64 16 -23 16 C-23.33 18.97 -23.66 21.94 -24 25 C-24.99 25 -25.98 25 -27 25 C-27.99 25.33 -28.98 25.66 -30 26 C-30.33 25.01 -30.66 24.02 -31 23 C-30.01 22.34 -29.02 21.68 -28 21 C-28.33 20.34 -28.66 19.68 -29 19 C-32.67 20.26 -35.92 21.61 -39 24 C-40.17 27.38 -40.23 30.45 -40 34 C-39.01 33.84 -39.01 33.84 -34 33 C-35.48 36.82 -35.48 36.82 -38.12 37.75 C-38.74 37.83 -39.36 37.91 -40 38 C-40 39.32 -40 40.64 -40 42 C-39.4 41.65 -38.8 41.3 -38.19 40.94 C-36 40 -36 40 -33 41 C-38.75 44 -38.75 44 -41 44 C-41.33 44.66 -41.66 45.32 -42 46 C-44.52 26.33 -44.52 26.33 -40.7 21.29 C-37.02 18.54 -32.67 17.27 -28.34 15.87 C-24.29 14.36 -20.72 12.07 -17.06 9.81 C-15.65 8.97 -14.23 8.12 -12.81 7.28 C-12.16 6.89 -11.5 6.5 -10.83 6.09 C-7.26 3.96 -3.71 1.89 0 0 Z M-26 26 C-26.12 28.38 -26.12 28.38 -27 31 C-30.06 32.31 -30.06 32.31 -33 33 C-33 32.34 -33 31.68 -33 31 C-33.66 31 -34.32 31 -35 31 C-35.33 30.01 -35.66 29.02 -36 28 C-35.05 27.86 -34.1 27.71 -33.12 27.56 C-30.54 27.1 -28.56 26 -26 26 Z " fill="#5B3C23" transform="translate(120,77)"/>
<path d="M0 0 C-0.83 0.5 -0.83 0.5 -5 3 C-3.68 3.66 -2.36 4.32 -1 5 C-1.09 5.31 -1.09 5.31 -1.56 6.88 C-2 9 -2 9 -1 11 C-3.64 11.99 -6.28 12.98 -9 14 C-9.33 12.35 -9.66 10.7 -10 9 C-10.33 9.66 -10.66 10.32 -11 11 C-12.89 11.27 -12.89 11.27 -15.25 11.38 C-19.6 11.74 -21.85 12.85 -25 16 C-24.67 14.68 -24.34 13.36 -24 12 C-24.66 12 -25.32 12 -26 12 C-26 12.99 -26 13.98 -26 15 C-27.98 15 -29.96 15 -32 15 C-32.33 15.99 -32.66 16.98 -33 18 C-36.06 18.69 -36.06 18.69 -39 19 C-37.67 15 -35.3 14.27 -31.73 12.5 C-31.1 12.17 -30.47 11.85 -29.82 11.51 C-27.8 10.48 -25.78 9.46 -23.75 8.44 C-22.4 7.75 -21.05 7.05 -19.7 6.36 C-18.4 5.7 -17.1 5.03 -15.8 4.37 C-15.19 4.06 -14.59 3.75 -13.96 3.44 C-4.11 -1.52 -4.11 -1.52 0 0 Z " fill="#83664E" transform="translate(70,5)"/>
<path d="M0 0 C5.25 2.53 10.25 5.28 15.21 8.34 C19.09 10.65 23.04 12.82 27 15 C27.89 15.49 28.78 15.98 29.7 16.49 C41.25 22.86 52.81 29.06 64.83 34.51 C68 36 68 36 71 38 C70 39 70 39 67.12 38.89 C61.66 38 56.94 35.32 52.06 32.81 C51.02 32.28 49.98 31.76 48.9 31.21 C38.31 25.78 28.05 19.8 17.84 13.69 C13.77 11.27 9.64 8.93 5.52 6.59 C3.32 5.2 1.64 4.01 0 2 C0 1.34 0 0.68 0 0 Z " fill="#C9995D" transform="translate(5,61)"/>
<path d="M0 0 C0.66 0.33 1.32 0.66 2 1 C1.51 1.41 1.02 1.81 0.52 2.23 C-2.17 5.37 -1.38 9.07 -1 13 C-0.17 17.05 0.24 18.46 3.62 20.88 C4.41 21.25 5.19 21.62 6 22 C5.67 21.01 5.34 20.02 5 19 C9.11 20.45 12.43 22.51 16 25 C15.34 25.33 14.68 25.66 14 26 C11.88 25.06 11.88 25.06 10 24 C11.49 25.49 13.27 26.45 15.06 27.56 C15.8 28.02 16.53 28.47 17.29 28.94 C17.85 29.29 18.42 29.64 19 30 C18.34 30.33 17.68 30.66 17 31 C14.44 29.77 12.02 28.48 9.56 27.06 C8.85 26.65 8.13 26.24 7.39 25.82 C-8.46 16.63 -8.46 16.63 -13 11 C-12.69 7.81 -12.69 7.81 -12 5 C-11.01 5.33 -10.02 5.66 -9 6 C-6.81 4.75 -6.81 4.75 -4.44 3 C-2.06 1.25 -2.06 1.25 0 0 Z " fill="#55382F" transform="translate(28,28)"/>
<path d="M0 0 C-0.99 1.32 -1.98 2.64 -3 4 C-2.01 4 -1.02 4 0 4 C0 4.66 0 5.32 0 6 C-3.2 7.85 -5.27 9 -9 9 C-9 9.66 -9 10.32 -9 11 C-5.23 12.26 -3.63 11.37 0 10 C-0.88 12.5 -0.88 12.5 -2 15 C-2.66 15 -3.32 15 -4 15 C-4.66 15.99 -5.32 16.98 -6 18 C-7.95 19.39 -7.95 19.39 -10.12 20.69 C-10.49 20.91 -10.49 20.91 -12.32 22.01 C-12.6 22.17 -12.6 22.17 -14 23 C-14.93 19.99 -15.04 19.13 -14 16 C-13.01 15.67 -12.02 15.34 -11 15 C-11.66 15 -12.32 15 -13 15 C-13.66 14.67 -14.32 14.34 -15 14 C-15.49 10.47 -15.16 7.36 -14 4 C-9.72 -0.07 -5.73 -1.59 0 0 Z " fill="#815734" transform="translate(94,97)"/>
<path d="M0 0 C4.53 0.54 7.63 2.48 11.31 5 C18.98 10.1 26.94 14.57 35 19 C31.27 22.9 31.27 22.9 28 23 C25.56 20.95 23.65 18.59 21.56 16.19 C20.72 15.47 19.87 14.74 19 14 C18.15 14.19 17.31 14.37 16.44 14.56 C15.63 14.71 14.83 14.85 14 15 C10 10.14 10 10.14 10 7 C7.69 7.33 5.38 7.66 3 8 C2.01 5.36 1.02 2.72 0 0 Z " fill="#9B8459" transform="translate(14,44)"/>
<path d="M0 0 C0.33 0 0.66 0 1 0 C0.96 0.97 0.92 1.94 0.88 2.94 C0.92 3.95 0.96 4.96 1 6 C1.66 6.33 2.32 6.66 3 7 C2.67 7.33 2.34 7.66 2 8 C2.64 8.54 3.28 9.07 3.94 9.62 C6.44 12.51 6.84 14.22 7 18 C6.06 20.19 6.06 20.19 5 22 C5 22.99 5 23.98 5 25 C3.32 26.17 3.32 26.17 1.12 27.19 C0.41 27.53 -0.31 27.88 -1.05 28.23 C-3 29 -3 29 -5 29 C-5 28.01 -5 27.02 -5 26 C-5.99 26.33 -6.98 26.66 -8 27 C-8 26.34 -8 25.68 -8 25 C-6.35 23.65 -4.68 22.31 -3 21 C-1.65 18.29 -1.93 15.99 -2 13 C-2.99 13 -3.98 13 -5 13 C-4.68 12.81 -4.68 12.81 -3.05 11.82 C-0.43 9.49 -0.43 8.25 -0.25 4.81 C-0.19 3.91 -0.14 3.01 -0.08 2.08 C-0.05 1.39 -0.03 0.71 0 0 Z " fill="#412D31" transform="translate(98,17)"/>
<path d="M0 0 C0 0.66 0 1.32 0 2 C-2.63 3.47 -2.63 3.47 -6.12 5.06 C-7.26 5.59 -8.4 6.12 -9.57 6.66 C-12.77 7.91 -15.6 8.58 -19 9 C-19 9.66 -19 10.32 -19 11 C-19.66 11 -20.32 11 -21 11 C-20.67 12.32 -20.34 13.64 -20 15 C-22.19 15.88 -22.19 15.88 -25 16 C-30 11 -30 11 -30 8 C-30.72 8.35 -31.44 8.7 -32.19 9.06 C-35.35 10.12 -36.86 10.02 -40 9 C-42 7 -42 7 -42 3 C-38.32 3.69 -34.74 4.59 -31.12 5.56 C-26.58 6.71 -22.67 7.52 -18 7 C-17.67 6.34 -17.34 5.68 -17 5 C-14.52 4.04 -12.09 3.18 -9.56 2.38 C-8.87 2.15 -8.17 1.92 -7.46 1.68 C-2.29 0 -2.29 0 0 0 Z " fill="#A48354" transform="translate(94,64)"/>
<path d="M0 0 C0.99 0.33 1.98 0.66 3 1 C5.78 1.1 8.53 1.14 11.31 1.12 C11.69 1.13 11.69 1.13 13.58 1.14 C17.83 1.13 21.81 0.84 26 0 C25.67 0.99 25.34 1.98 25 3 C25.66 3.66 26.32 4.32 27 5 C26.67 5.99 26.34 6.98 26 8 C17.89 10.7 8.83 8.73 1 6 C0.67 5.34 0.34 4.68 0 4 C0.66 4 1.32 4 2 4 C2 3.34 2 2.68 2 2 C1.34 2 0.68 2 0 2 C0 1.34 0 0.68 0 0 Z " fill="#AB7144" transform="translate(52,40)"/>
<path d="M0 0 C0.58 1.18 1.16 2.35 1.75 3.56 C2.78 5.51 2.78 5.51 4 7 C7.25 6.94 7.25 6.94 10 6 C10.33 6.99 10.66 7.98 11 9 C11.99 9.33 12.98 9.66 14 10 C15.19 12.56 15.19 12.56 16 15 C21.88 14.04 21.88 14.04 24.31 13.19 C29.33 12.84 34.49 15.49 38 19 C34.44 18.39 31.32 17.42 28 16 C27.67 16.66 27.34 17.32 27 18 C26.38 17.81 25.76 17.63 25.12 17.44 C23 17 23 17 21 18 C22.65 18.99 24.3 19.98 26 21 C25.34 21.33 24.68 21.66 24 22 C21.71 20.97 21.71 20.97 18.88 19.36 C18.37 19.07 18.37 19.07 15.79 17.61 C14.73 17 13.66 16.38 12.56 15.75 C11.5 15.15 10.44 14.55 9.34 13.93 C0.75 9.03 0.75 9.03 -2 6 C-2.56 5.44 -3.11 4.89 -3.69 4.31 C-4.12 3.88 -4.55 3.45 -5 3 C-2.25 0 -2.25 0 0 0 Z " fill="#4F7B72" transform="translate(24,51)"/>
<path d="M0 0 C2.97 1.98 5.94 3.96 9 6 C7.83 10.66 5.89 12.47 2 15 C-1.38 16.31 -1.38 16.31 -4 17 C-3.67 14.69 -3.34 12.38 -3 10 C-5.97 10.66 -8.94 11.32 -12 12 C-9.35 9.27 -6.7 6.71 -3.75 4.31 C-1 2 -1 2 0 0 Z " fill="#483536" transform="translate(136,36)"/>
<path d="M0 0 C0.78 5.18 0.78 5.18 0 8 C-4.14 11.49 -10.05 12.8 -15.38 12.61 C-21.34 11.23 -26.7 7.95 -32 5 C-28.62 3.87 -28.27 4.04 -25.21 5.43 C-24.49 5.75 -23.78 6.07 -23.05 6.4 C-22.31 6.74 -21.57 7.08 -20.81 7.44 C-20.06 7.78 -19.31 8.11 -18.54 8.46 C-16.69 9.3 -14.84 10.15 -13 11 C-12.67 8.69 -12.34 6.38 -12 4 C-12.91 4.06 -13.81 4.12 -14.75 4.19 C-18.36 3.98 -19.3 3.24 -22 1 C-21.23 1.08 -20.45 1.17 -19.66 1.25 C-13.55 1.85 -8.04 2.14 -2 1 C-1 0 -1 0 0 0 Z " fill="#6E4425" transform="translate(88,85)"/>
<path d="M0 0 C2.5 1.38 2.5 1.38 5 3 C5 3.66 5 4.32 5 5 C6.64 5.72 8.32 6.38 10 7 C10.8 7.42 11.6 7.84 12.43 8.28 C19.83 12.12 25.94 12.63 34.19 12.31 C35.33 12.29 36.47 12.27 37.65 12.24 C40.44 12.19 43.22 12.1 46 12 C46 12.66 46 13.32 46 14 C45.34 14 44.68 14 44 14 C44 14.99 44 15.98 44 17 C37.61 19.13 31.63 18 25.38 15.94 C24.69 15.72 24.01 15.5 23.31 15.27 C3.94 8.76 3.94 8.76 0 2 C0 1.34 0 0.68 0 0 Z " fill="#879A8E" transform="translate(38,41)"/>
<path d="M0 0 C0.66 0 1.32 0 2 0 C2.12 0.8 2.25 1.61 2.38 2.44 C3 5 3 5 5 6 C-0.27 9.22 -0.27 9.22 -2 10 C-2.66 9.67 -3.32 9.34 -4 9 C-3.01 8.34 -2.02 7.68 -1 7 C-1.33 6.34 -1.66 5.68 -2 5 C-3.98 5.66 -5.96 6.32 -8 7 C-7.01 8.65 -6.02 10.3 -5 12 C-5.26 12.21 -5.26 12.21 -6.56 13.25 C-8 15 -8 15 -7.69 17.19 C-7.57 17.49 -7.57 17.49 -7 19 C-9.38 19.9 -10.45 20.29 -12.75 19.06 C-14.75 15.77 -14.81 12.66 -14 9 C-12.09 5.34 -9.86 2.56 -5.82 1.34 C-3.62 1.06 -3.62 1.06 0 1 C0 0.67 0 0.34 0 0 Z " fill="#66472E" transform="translate(58,14)"/>
<path d="M0 0 C0.66 0.33 1.32 0.66 2 1 C1.51 1.37 1.01 1.74 0.5 2.12 C-1.64 4.8 -1.35 6.66 -1 10 C-0.67 10.5 -0.67 10.5 1 13 C1 14.32 1 15.64 1 17 C1.25 19.19 1.25 19.19 2 21 C4.06 21.75 4.06 21.75 6 22 C5.67 22.66 5.34 23.32 5 24 C6.65 24.99 8.3 25.98 10 27 C8 28 8 28 6.23 27.26 C3.96 25.96 1.69 24.65 -0.56 23.31 C-1.36 22.86 -2.15 22.42 -2.97 21.96 C-3.72 21.51 -4.48 21.07 -5.25 20.61 C-5.95 20.21 -6.64 19.8 -7.36 19.39 C-9.39 17.67 -9.85 16.64 -10 14 C-7.56 11.75 -7.56 11.75 -5 10 C-5.33 9.34 -5.66 8.68 -6 8 C-5.34 7.67 -4.68 7.34 -4 7 C-3.32 5.34 -2.65 3.67 -2 2 C-1.34 1.34 -0.68 0.68 0 0 Z " fill="#4A3D3C" transform="translate(15,31)"/>
<path d="M0 0 C0.99 0.66 1.98 1.32 3 2 C3 2.66 3 3.32 3 4 C3.99 4.33 4.98 4.66 6 5 C6.73 7.72 6.73 7.72 7.19 11.06 C7.35 12.17 7.5 13.27 7.67 14.41 C7.78 15.26 7.89 16.12 8 17 C2.69 16.48 -0.91 14.64 -5.38 11.94 C-6.02 11.56 -6.66 11.18 -7.32 10.79 C-8.88 9.87 -10.44 8.94 -12 8 C-11.34 7.67 -10.68 7.34 -10 7 C-7.94 8 -7.94 8 -5.56 9.44 C-1.32 12 -1.32 12 2 12 C2 10.02 2 8.04 2 6 C1.01 6 0.02 6 -1 6 C-1.33 5.34 -1.66 4.68 -2 4 C-2.99 4 -3.98 4 -5 4 C-5 5.32 -5 6.64 -5 8 C-6.98 7.34 -8.96 6.68 -11 6 C-10.34 5.01 -9.68 4.02 -9 3 C-9 1.68 -9 0.36 -9 -1 C-5.19 -2.27 -3.67 -1.45 0 0 Z " fill="#8C663F" transform="translate(46,96)"/>
<path d="M0 0 C2.38 -0.19 2.38 -0.19 5 0 C5.66 0.99 6.32 1.98 7 3 C8.32 3.37 9.66 3.69 11 4 C13.75 5.44 13.75 5.44 16 7 C16 7.66 16 8.32 16 9 C16.99 9.33 17.98 9.66 19 10 C18 13 18 13 16 15 C16 15.66 16 16.32 16 17 C15.34 17.33 14.68 17.66 14 18 C14 18.99 14 19.98 14 21 C12.35 21 10.7 21 9 21 C8.99 20.12 8.97 19.24 8.96 18.33 C8.56 8.74 8.56 8.74 5.62 4.88 C4.76 4.26 3.89 3.64 3 3 C2 2 1 1 0 0 Z " fill="#453137" transform="translate(104,22)"/>
<path d="M0 0 C-0.66 1.32 -1.32 2.64 -2 4 C0.31 3.01 2.62 2.02 5 1 C5.33 2.98 5.66 4.96 6 7 C5.34 7.27 4.68 7.54 4 7.81 C3.34 8.2 2.68 8.6 2 9 C2 9.99 2 10.98 2 12 C1.34 12.66 0.68 13.32 0 14 C-0.33 12.35 -0.66 10.7 -1 9 C-3 11 -3 11 -3.25 13.06 C-3.5 13.7 -3.74 14.34 -4 15 C-7.06 15.75 -7.06 15.75 -10 16 C-10 12.83 -9.37 11.74 -8 9 C-8 6 -8 6 -10 3 C-8.71 2.3 -7.42 1.62 -6.12 0.94 C-5.41 0.55 -4.69 0.17 -3.95 -0.22 C-2 -1 -2 -1 0 0 Z " fill="#826144" transform="translate(59,18)"/>
<path d="M0 0 C0.66 0 1.32 0 2 0 C2.42 3.63 2.41 5.42 0.25 8.44 C-5.91 13.84 -13.66 18.81 -22 19 C-20.88 15.5 -20.88 15.5 -19 12 C-17 12 -15 12 -13 12 C-11.17 9.8 -10.22 7.63 -9 5 C-8.26 5.29 -7.52 5.58 -6.75 5.88 C-6.3 5.9 -6.3 5.9 -4 6 C-1.81 3.06 -1.81 3.06 0 0 Z " fill="#364F60" transform="translate(131,46)"/>
<path d="M0 0 C1 0.67 1 0.67 6 4 C5.69 5.03 5.38 6.06 5.06 7.12 C4.34 9.6 3.9 11.79 3.56 14.38 C3.38 15.24 3.19 16.11 3 17 C2.01 17.33 1.02 17.66 0 18 C-3.81 19.46 -3.81 19.46 -4.75 22.12 C-4.83 22.74 -4.91 23.36 -5 24 C-5.66 23.67 -6.32 23.34 -7 23 C-6.39 19.52 -5.76 16.04 -5.12 12.56 C-4.95 11.57 -4.78 10.58 -4.6 9.55 C-4.42 8.61 -4.25 7.66 -4.07 6.69 C-3.91 5.82 -3.76 4.94 -3.59 4.04 C-3 2 -3 2 -1 1 C-1 3.97 -1 6.94 -1 10 C-1 8.14 -0.71 6.29 -0.5 4.44 C-0.41 3.61 -0.31 2.78 -0.22 1.93 C-0.15 1.3 -0.07 0.66 0 0 Z " fill="#7C5332" transform="translate(136,69)"/>
</svg>
