<svg xmlns="http://www.w3.org/2000/svg" viewBox="0 0 64 32" width="64" height="32" shape-rendering="geometricPrecision"><defs><clipPath id="c9710"><path d="M32 0L64 16L32 32L0 16Z"/></clipPath></defs><g clip-path="url(#c9710)"><path d="M32 0L64 16L32 32L0 16Z" fill="#416d98"/><path d="M1 3.0 q8 -1.6 16 0 t16 0 t16 0 t14 0" fill="none" stroke="#89a4bf" stroke-width=".7" opacity=".27"/><path d="M1 7.0 q8 -1.6 16 0 t16 0 t16 0 t14 0" fill="none" stroke="#89a4bf" stroke-width=".7" opacity=".28"/><path d="M1 11.0 q8 -1.6 16 0 t16 0 t16 0 t14 0" fill="none" stroke="#89a4bf" stroke-width=".7" opacity=".40"/><path d="M1 15.0 q8 -1.6 16 0 t16 0 t16 0 t14 0" fill="none" stroke="#89a4bf" stroke-width=".7" opacity=".35"/><path d="M1 19.0 q8 -1.6 16 0 t16 0 t16 0 t14 0" fill="none" stroke="#89a4bf" stroke-width=".7" opacity=".38"/><path d="M1 23.0 q8 -1.6 16 0 t16 0 t16 0 t14 0" fill="none" stroke="#89a4bf" stroke-width=".7" opacity=".36"/><path d="M1 27.0 q8 -1.6 16 0 t16 0 t16 0 t14 0" fill="none" stroke="#89a4bf" stroke-width=".7" opacity=".23"/></g></svg>
