<!-- Generator: visioncortex VTracer 0.6.12 -->
<svg xmlns="http://www.w3.org/2000/svg" viewBox="0 0 150 150" width="150" height="150" shape-rendering="geometricPrecision">
<path d="M0 0 C2.19 1.81 2.19 1.81 3.19 4.88 C4.51 8.75 5.49 8.34 9.19 9.81 C11.55 11.4 13.77 13.16 16 14.94 C16.6 15.41 17.19 15.87 17.81 16.36 C19.27 17.5 20.73 18.66 22.19 19.81 C21.86 20.47 21.53 21.13 21.19 21.81 C20.92 21.7 20.92 21.7 19.54 21.11 C-0.42 12.66 -0.42 12.66 -10.81 11.81 C-9.96 18.32 -7.69 20.48 -2.62 24.59 C6.78 32.42 8.53 39.45 9.4 51.36 C9.16 55.18 8.26 56.67 6.19 59.81 C5.55 61.9 4.99 64 4.5 66.12 C4.25 67.19 4 68.26 3.74 69.36 C3.56 70.17 3.37 70.98 3.19 71.81 C2.53 71.81 1.87 71.81 1.19 71.81 C0.53 70.82 -0.13 69.83 -0.81 68.81 C-1.4 69.43 -2 70.04 -2.61 70.68 C-3 71.08 -3 71.08 -5 73.12 C-5.78 73.93 -6.55 74.73 -7.36 75.55 C-9.81 77.81 -9.81 77.81 -12.35 79.24 C-15.5 81.25 -16.97 83.51 -19 86.62 C-19.67 87.64 -20.35 88.66 -21.04 89.71 C-22.75 92.7 -23.85 95.51 -24.81 98.81 C-24.41 98.89 -24.41 98.89 -22.36 99.29 C-11.59 101.64 -11.59 101.64 -7.81 106.81 C-7.34 107.43 -6.86 108.05 -6.38 108.69 C-5.49 112.03 -6.71 114.62 -7.81 117.81 C-10.81 117.81 -10.81 117.81 -12.81 116.81 C-13.1 114.13 -12.9 111.51 -12.81 108.81 C-15.92 108.81 -17.17 109.35 -19.81 110.81 C-19.15 108.83 -18.49 106.85 -17.81 104.81 C-20.12 104.48 -22.43 104.15 -24.81 103.81 C-24.67 104.91 -24.52 106.01 -24.38 107.14 C-24.19 108.59 -24 110.05 -23.81 111.5 C-23.72 112.22 -23.62 112.94 -23.52 113.69 C-23.05 117.42 -22.69 121.04 -22.81 124.81 C-21.98 124.75 -21.15 124.7 -20.29 124.64 C-19.75 124.61 -19.75 124.61 -17 124.5 C-15.92 124.44 -14.84 124.38 -13.73 124.32 C-10.81 124.81 -10.81 124.81 -8.93 127.33 C-8.56 128.15 -8.19 128.97 -7.81 129.81 C-8.8 130.14 -9.79 130.47 -10.81 130.81 C-10.48 131.47 -10.15 132.13 -9.81 132.81 C-11.25 132.67 -12.69 132.52 -14.12 132.38 C-14.53 132.33 -14.53 132.33 -16.55 132.13 C-18.81 131.81 -18.81 131.81 -21.81 130.81 C-24.13 130.78 -26.43 130.88 -28.75 130.97 C-30.81 130.81 -30.81 130.81 -32.81 128.81 C-30.83 127.82 -28.85 126.83 -26.81 125.81 C-26.9 125.2 -26.99 124.58 -27.09 123.95 C-27.5 121.15 -27.91 118.36 -28.31 115.56 C-28.46 114.59 -28.6 113.63 -28.75 112.63 C-28.81 112.16 -28.81 112.16 -29.16 109.8 C-29.28 108.94 -29.41 108.08 -29.54 107.19 C-29.81 104.81 -29.81 104.81 -29.81 100.81 C-30.16 100.75 -30.16 100.75 -31.93 100.45 C-32.84 100.28 -33.75 100.11 -34.69 99.94 C-35.59 99.78 -36.5 99.61 -37.43 99.45 C-39.81 98.81 -39.81 98.81 -41.81 96.81 C-41.42 93.85 -40.21 91.43 -38.81 88.81 C-44.19 88.91 -46.74 89.38 -50.56 93.25 C-55.29 97.86 -60.43 98.29 -66.81 98.81 C-67.37 96.74 -67.81 94.97 -67.81 92.81 C-68.8 92.48 -69.79 92.15 -70.81 91.81 C-70.15 90.82 -69.49 89.83 -68.81 88.81 C-68.4 87.45 -68.03 86.07 -67.69 84.69 C-62.37 66.49 -51.76 47.18 -34 38.88 C-26.74 35.79 -20.57 34.35 -13.12 37.81 C-12.4 38.18 -11.67 38.55 -10.93 38.94 C-8.81 39.81 -8.81 39.81 -4.81 39.81 C-6.9 35.01 -9.57 31.75 -13.38 28.25 C-19.44 22.66 -21.28 18.44 -21.05 10.25 C-20.63 5.97 -19.59 3.13 -16.08 0.53 C-10.35 -2.75 -6.11 -2.58 0 0 Z " fill="#959375" transform="translate(99.8125,9.1875)"/>
<path d="M0 0 C2.06 1.69 2.06 1.69 4.06 4.69 C4.06 6.01 4.06 7.33 4.06 8.69 C2.41 8.69 0.76 8.69 -0.94 8.69 C-1.56 6.81 -1.56 6.81 -1.94 4.69 C-1.28 4.03 -0.62 3.37 0.06 2.69 C-3.72 0.8 -7.93 1.76 -11.94 2.69 C-15.25 4.33 -18.06 6.39 -20.94 8.69 C-21.62 9.22 -22.31 9.76 -23.02 10.31 C-27.77 14.18 -27.77 14.18 -28.94 17.69 C-18.12 20.11 -7.68 19.29 2.06 13.69 C3.43 11.52 3.43 11.52 4.06 9.69 C5.59 14.35 4.14 17.42 2.06 21.69 C0 24.69 0 24.69 -1.94 26.69 C-2.6 26.69 -3.26 26.69 -3.94 26.69 C-3.94 27.35 -3.94 28.01 -3.94 28.69 C-5.89 30.11 -7.81 31.38 -9.88 32.62 C-10.46 32.98 -11.05 33.34 -11.66 33.71 C-16.31 36.48 -20.74 38.28 -25.94 39.69 C-24.95 40.68 -23.96 41.67 -22.94 42.69 C-23.6 43.35 -24.26 44.01 -24.94 44.69 C-24.28 45.35 -23.62 46.01 -22.94 46.69 C-23.6 48.01 -24.26 49.33 -24.94 50.69 C-22.96 51.35 -20.98 52.01 -18.94 52.69 C-18.61 51.04 -18.28 49.39 -17.94 47.69 C-16.62 48.02 -15.3 48.35 -13.94 48.69 C-14.27 50.67 -14.6 52.65 -14.94 54.69 C-14.53 54.77 -14.53 54.77 -12.49 55.17 C-1.72 57.52 -1.72 57.52 2.06 62.69 C2.54 63.31 3.01 63.92 3.5 64.56 C4.38 67.91 3.17 70.5 2.06 73.69 C-0.94 73.69 -0.94 73.69 -2.94 72.69 C-3.22 70.01 -3.02 67.39 -2.94 64.69 C-6.04 64.69 -7.29 65.23 -9.94 66.69 C-9.28 64.71 -8.62 62.73 -7.94 60.69 C-10.25 60.36 -12.56 60.03 -14.94 59.69 C-14.79 60.78 -14.65 61.88 -14.5 63.01 C-14.31 64.47 -14.12 65.92 -13.94 67.38 C-13.84 68.1 -13.75 68.82 -13.65 69.56 C-13.17 73.3 -12.82 76.91 -12.94 80.69 C-12.11 80.63 -11.27 80.57 -10.42 80.51 C-9.87 80.49 -9.87 80.49 -7.12 80.38 C-6.05 80.32 -4.97 80.26 -3.86 80.2 C-0.94 80.69 -0.94 80.69 0.95 83.21 C1.32 84.03 1.68 84.84 2.06 85.69 C1.07 86.02 0.08 86.35 -0.94 86.69 C-0.61 87.35 -0.28 88.01 0.06 88.69 C-1.38 88.55 -2.81 88.4 -4.25 88.25 C-4.65 88.21 -4.65 88.21 -6.68 88 C-8.94 87.69 -8.94 87.69 -11.94 86.69 C-14.26 86.66 -16.56 86.75 -18.88 86.85 C-20.94 86.69 -20.94 86.69 -22.94 84.69 C-20.96 83.7 -18.98 82.71 -16.94 81.69 C-17.03 81.07 -17.12 80.46 -17.21 79.82 C-17.62 77.03 -18.03 74.23 -18.44 71.44 C-18.58 70.47 -18.72 69.5 -18.87 68.5 C-18.94 68.04 -18.94 68.04 -19.28 65.67 C-19.41 64.81 -19.53 63.95 -19.66 63.07 C-19.94 60.69 -19.94 60.69 -19.94 56.69 C-20.29 56.63 -20.29 56.63 -22.05 56.32 C-22.96 56.15 -23.87 55.99 -24.81 55.81 C-25.72 55.65 -26.62 55.49 -27.55 55.32 C-29.94 54.69 -29.94 54.69 -31.94 52.69 C-31.54 49.72 -30.34 47.3 -28.94 44.69 C-34.32 44.78 -36.87 45.26 -40.69 49.12 C-45.41 53.74 -50.55 54.17 -56.94 54.69 C-57.49 52.61 -57.94 50.84 -57.94 48.69 C-58.93 48.36 -59.92 48.03 -60.94 47.69 C-60.28 46.7 -59.62 45.71 -58.94 44.69 C-58.52 43.32 -58.15 41.95 -57.81 40.56 C-54.64 29.7 -47.77 10.11 -36.94 4.69 C-36.61 6.01 -36.28 7.33 -35.94 8.69 C-36.6 8.69 -37.26 8.69 -37.94 8.69 C-38.27 10.01 -38.6 11.33 -38.94 12.69 C-36.96 12.36 -34.98 12.03 -32.94 11.69 C-33.94 13.69 -33.94 13.69 -36.5 14.31 C-37.3 14.44 -38.11 14.56 -38.94 14.69 C-38.28 15.02 -37.62 15.35 -36.94 15.69 C-36.94 17.69 -36.94 17.69 -38.19 19.31 C-39.94 20.69 -39.94 20.69 -43.94 20.69 C-43.28 21.68 -42.62 22.67 -41.94 23.69 C-37.59 19.43 -33.31 15.2 -29.44 10.5 C-22.32 2.21 -10.93 -4.88 0 0 Z " fill="#755D46" transform="translate(89.9375,53.3125)"/>
<path d="M0 0 C1.53 4.66 0.08 7.73 -2 12 C-4.06 15 -4.06 15 -6 17 C-6.66 17 -7.32 17 -8 17 C-8 17.66 -8 18.32 -8 19 C-9.95 20.42 -11.87 21.69 -13.94 22.94 C-14.52 23.3 -15.11 23.66 -15.72 24.03 C-20.37 26.79 -24.8 28.59 -30 30 C-29.01 30.99 -28.02 31.98 -27 33 C-27.66 33.66 -28.32 34.32 -29 35 C-28.34 35.66 -27.68 36.32 -27 37 C-27.66 38.32 -28.32 39.64 -29 41 C-27.02 41.66 -25.04 42.32 -23 43 C-22.67 41.35 -22.34 39.7 -22 38 C-20.68 38.33 -19.36 38.66 -18 39 C-18.33 40.98 -18.66 42.96 -19 45 C-18.6 45.08 -18.6 45.08 -16.55 45.48 C-5.78 47.83 -5.78 47.83 -2 53 C-1.53 53.62 -1.05 54.24 -0.56 54.88 C0.32 58.22 -0.9 60.81 -2 64 C-5 64 -5 64 -7 63 C-7.28 60.32 -7.09 57.7 -7 55 C-10.11 55 -11.35 55.54 -14 57 C-13.34 55.02 -12.68 53.04 -12 51 C-14.31 50.67 -16.62 50.34 -19 50 C-18.86 51.1 -18.71 52.19 -18.56 53.32 C-18.37 54.78 -18.19 56.23 -18 57.69 C-17.9 58.41 -17.81 59.13 -17.71 59.87 C-17.23 63.61 -16.88 67.22 -17 71 C-16.17 70.94 -15.34 70.88 -14.48 70.82 C-13.94 70.8 -13.94 70.8 -11.19 70.69 C-10.11 70.63 -9.03 70.57 -7.92 70.51 C-5 71 -5 71 -3.11 73.52 C-2.75 74.34 -2.38 75.16 -2 76 C-2.99 76.33 -3.98 76.66 -5 77 C-4.67 77.66 -4.34 78.32 -4 79 C-5.44 78.86 -6.88 78.71 -8.31 78.56 C-8.71 78.52 -8.71 78.52 -10.74 78.32 C-13 78 -13 78 -16 77 C-18.32 76.97 -20.62 77.06 -22.94 77.16 C-25 77 -25 77 -27 75 C-25.02 74.01 -23.04 73.02 -21 72 C-21.09 71.38 -21.18 70.77 -21.28 70.14 C-21.69 67.34 -22.09 64.55 -22.5 61.75 C-22.64 60.78 -22.79 59.81 -22.93 58.82 C-23 58.35 -23 58.35 -23.34 55.98 C-23.47 55.13 -23.6 54.27 -23.72 53.38 C-24 51 -24 51 -24 47 C-24.35 46.94 -24.35 46.94 -26.12 46.63 C-27.03 46.47 -27.94 46.3 -28.88 46.12 C-29.78 45.96 -30.68 45.8 -31.62 45.63 C-34 45 -34 45 -36 43 C-35.6 40.04 -34.4 37.62 -33 35 C-38.38 35.1 -40.93 35.57 -44.75 39.44 C-49.48 44.05 -54.62 44.48 -61 45 C-61.55 42.92 -62 41.16 -62 39 C-62.99 38.67 -63.98 38.34 -65 38 C-64.34 37.01 -63.68 36.02 -63 35 C-62.17 32.45 -61.48 29.87 -60.78 27.28 C-60 25 -60 25 -58 23 C-54.9 27.47 -54.9 27.47 -55.41 30.17 C-55.6 30.78 -55.8 31.38 -56 32 C-46.78 30.93 -37.96 29.5 -29 27 C-29.66 26.34 -30.32 25.68 -31 25 C-28 23 -28 23 -25 23 C-20.46 21.74 -16.67 19.83 -12.62 17.44 C-11.57 16.82 -10.51 16.2 -9.41 15.56 C-8.62 15.04 -7.82 14.53 -7 14 C-7 13.67 -7 13.34 -7 13 C-7.31 13.15 -7.31 13.15 -8.88 13.94 C-15.53 16.2 -22.15 16.34 -29 15 C-28.67 14.34 -28.34 13.68 -28 13 C-25.56 12.74 -23.2 12.58 -20.75 12.5 C-16.19 12.35 -12.11 12.19 -8 10 C-7.84 9.34 -7.67 8.68 -7.5 8 C-7.34 7.34 -7.17 6.68 -7 6 C-5.34 5.32 -3.67 4.65 -2 4 C-0.69 1.88 -0.69 1.88 0 0 Z " fill="#5C4236" transform="translate(94,63)"/>
<path d="M0 0 C0.66 0 1.32 0 2 0 C2.02 0.31 2.02 0.31 2.12 1.88 C3 4 3 4 6.06 5.25 C7.03 5.5 8 5.75 9 6 C9.33 4.35 9.66 2.7 10 1 C11.32 1.33 12.64 1.66 14 2 C13.67 3.98 13.34 5.96 13 8 C13.81 8.16 14.62 8.32 15.45 8.48 C26.22 10.83 26.22 10.83 30 16 C30.47 16.62 30.95 17.24 31.44 17.88 C32.32 21.22 31.1 23.81 30 27 C27 27 27 27 25 26 C24.72 23.32 24.91 20.7 25 18 C21.89 18 20.65 18.54 18 20 C18.66 18.02 19.32 16.04 20 14 C17.69 13.67 15.38 13.34 13 13 C13.14 14.1 13.29 15.19 13.44 16.32 C13.63 17.78 13.81 19.23 14 20.69 C14.1 21.41 14.19 22.13 14.29 22.87 C14.77 26.61 15.12 30.22 15 34 C15.42 33.97 15.42 33.97 17.52 33.82 C18.61 33.78 19.69 33.73 20.81 33.69 C21.89 33.63 22.97 33.57 24.08 33.51 C27 34 27 34 28.89 36.52 C29.25 37.34 29.62 38.16 30 39 C29.5 39.16 29.5 39.16 27 40 C27.33 40.66 27.66 41.32 28 42 C26.56 41.86 25.12 41.71 23.69 41.56 C22.89 41.48 22.09 41.4 21.26 41.32 C19 41 19 41 16 40 C13.68 39.97 11.38 40.06 9.06 40.16 C7 40 7 40 5 38 C6.98 37.01 8.96 36.02 11 35 C10.91 34.38 10.82 33.77 10.72 33.14 C10.31 30.34 9.91 27.55 9.5 24.75 C9.36 23.78 9.21 22.81 9.07 21.82 C8.93 20.88 8.8 19.95 8.66 18.98 C8.53 18.13 8.4 17.27 8.28 16.38 C8 14 8 14 8 10 C7.46 9.88 7.46 9.88 4.75 9.25 C1 8 -0.52 6.98 -3 4 C-1.62 2 -1.62 2 0 0 Z " fill="#805C38" transform="translate(62,100)"/>
<path d="M0 0 C2.19 1.81 2.19 1.81 3.19 4.88 C4.51 8.75 5.49 8.34 9.19 9.81 C11.55 11.4 13.77 13.16 16 14.94 C16.6 15.41 17.19 15.87 17.81 16.36 C19.27 17.5 20.73 18.66 22.19 19.81 C21.86 20.47 21.53 21.13 21.19 21.81 C20.64 21.58 20.1 21.35 19.54 21.11 C9.46 16.84 0.15 12.97 -10.81 11.81 C-10.81 15.11 -10.81 18.41 -10.81 21.81 C-12.13 22.14 -13.45 22.47 -14.81 22.81 C-18.01 17.91 -19.58 14.84 -18.81 8.81 C-14.85 -0.8 -10.29 -4.35 0 0 Z " fill="#E4DAC9" transform="translate(99.8125,9.1875)"/>
<path d="M0 0 C2.89 2.89 3.99 5.97 4 10 C1.28 15.91 -4.05 20 -9 24 C-12.71 27.26 -14.91 31.02 -17.34 35.27 C-17.89 35.84 -18.44 36.41 -19 37 C-21.69 36.76 -21.69 36.76 -24 36 C-24.16 36.83 -24.16 36.83 -25 41 C-26.98 40.67 -28.96 40.34 -31 40 C-31 38 -31 36 -31 34 C-31.33 33.34 -31.66 32.68 -32 32 C-31.34 31.67 -30.68 31.34 -30 31 C-30.99 30.01 -31.98 29.02 -33 28 C-32.66 27.85 -32.66 27.85 -30.95 27.12 C-25.01 24.5 -19.47 21.62 -14 18.14 C-12 17 -12 17 -10 17 C-10 16.34 -10 15.68 -10 15 C-9.34 15 -8.68 15 -8 15 C-7.06 13.31 -7.06 13.31 -6 11 C-5.5 10.2 -5.01 9.39 -4.5 8.56 C-3.06 6.1 -2.03 3.66 -1 1 C-0.67 0.67 -0.34 0.34 0 0 Z " fill="#BCB1A7" transform="translate(96,65)"/>
<path d="M0 0 C0.66 0.33 1.32 0.66 2 1 C1.68 1.38 1.68 1.38 0.06 3.31 C-3.17 7.52 -3.36 10.79 -3 16 C-1.5 18.81 -1.5 18.81 0 21 C0 21.66 0 22.32 0 23 C3.5 21.83 3.64 21.23 5 18 C5.64 18.66 6.28 19.32 6.94 20 C10.12 23.21 13.57 26.11 17.01 29.04 C22.76 34.72 22.15 42.44 22 50 C20.22 50.75 20.22 50.75 18 51 C16.22 49.41 16.22 49.41 14.5 47.06 C14.19 46.64 14.19 46.64 12.64 44.53 C11.26 42.4 10.23 40.44 9.25 38.12 C6.9 32.94 2.56 29.41 -1.54 25.61 C-6.48 20.37 -6.73 14.91 -6 8 C-4.46 3.89 -3.66 2.44 0 0 Z " fill="#7F6D60" transform="translate(85,9)"/>
<path d="M0 0 C0 0.66 0 1.32 0 2 C0.66 2 1.32 2 2 2 C2.66 2.99 3.32 3.98 4 5 C4.34 5.15 4.34 5.15 6.06 5.94 C8 7 8 7 8.75 9.12 C8.83 9.74 8.91 10.36 9 11 C8.52 10.67 8.52 10.67 6.06 9 C0.83 6.07 -3.83 5.92 -9.48 7.85 C-18.53 11.99 -25.09 18.73 -31.43 26.23 C-33.41 28.46 -35.6 30.25 -38 32 C-38.33 30.68 -38.66 29.36 -39 28 C-37.68 27.67 -36.36 27.34 -35 27 C-35.66 26.34 -36.32 25.68 -37 25 C-35.35 25 -33.7 25 -32 25 C-32 24.34 -32 23.68 -32 23 C-32.99 22.67 -33.98 22.34 -35 22 C-33.68 21.34 -32.36 20.68 -31 20 C-31.99 20 -32.98 20 -34 20 C-34 18.35 -34 16.7 -34 15 C-33.01 15.33 -32.02 15.66 -31 16 C-31.12 15.62 -31.12 15.62 -31.74 13.72 C-32 11 -32 11 -30.45 9.12 C-21.64 2.73 -11.22 -3.74 0 0 Z " fill="#A79984" transform="translate(85,46)"/>
<path d="M0 0 C0.66 0.33 1.32 0.66 2 1 C-3.98 7.46 -14.88 14 -24 14 C-24.83 14.16 -25.65 14.33 -26.5 14.5 C-29 15 -29 15 -31 15 C-31.99 15.33 -32.98 15.66 -34 16 C-37 17 -37 17 -39 17 C-40.67 17.32 -42.34 17.65 -44 18 C-44 17.34 -44 16.68 -44 16 C-45.32 16.33 -46.64 16.66 -48 17 C-40.54 4.95 -40.54 4.95 -35 1 C-32.38 0.94 -32.38 0.94 -30 2 C-25.1 4.05 -25.1 4.05 -23 3 C-22.01 3.17 -21.02 3.33 -20 3.5 C-13.69 4.52 -6.72 3.95 -1 1 C-0.67 0.67 -0.34 0.34 0 0 Z " fill="#BFB4A3" transform="translate(88,74)"/>
<path d="M0 0 C2.44 3.66 2.49 6.01 2.81 10.38 C2.92 11.68 3.03 12.99 3.14 14.34 C2.99 18.35 2.18 19.74 0 23 C-0.64 25.08 -1.2 27.19 -1.69 29.31 C-1.94 30.38 -2.19 31.45 -2.45 32.55 C-2.63 33.36 -2.81 34.17 -3 35 C-3.66 35 -4.32 35 -5 35 C-5.66 34.01 -6.32 33.02 -7 32 C-7.33 32.16 -7.33 32.16 -9 33 C-8.61 32.2 -8.22 31.4 -7.82 30.58 C-6.68 25.62 -8.07 22.41 -9.81 17.75 C-10.1 16.94 -10.39 16.12 -10.68 15.28 C-13.52 7.28 -13.52 7.28 -16.56 5.5 C-17.37 5.01 -18.17 4.51 -19 4 C-19 3.34 -19 2.68 -19 2 C-19.66 1.67 -20.32 1.34 -21 1 C-18.97 1.51 -16.95 2.02 -14.94 2.62 C-13 3 -13 3 -10 2 C-9.59 2.89 -9.17 3.77 -8.75 4.69 C-7.08 7.85 -5.45 10.4 -3 13 C-2.01 13 -1.02 13 0 13 C0 8.71 0 4.42 0 0 Z " fill="#72676B" transform="translate(106,46)"/>
<path d="M0 0 C0.33 0.99 0.66 1.98 1 3 C1.9 2.92 2.81 2.83 3.74 2.75 C4.33 2.7 4.33 2.7 7.31 2.44 C8.48 2.33 9.66 2.23 10.86 2.12 C14 2 14 2 17 3 C16.73 6.64 14.89 8.66 12.1 10.89 C7.77 13.17 2.8 13.48 -2 14 C-2.55 11.92 -3 10.16 -3 8 C-3.99 7.67 -4.98 7.34 -6 7 C-5.67 6.34 -5.34 5.68 -5 5 C-4.01 5 -3.02 5 -2 5 C-0.81 2.5 -0.81 2.5 0 0 Z " fill="#93877F" transform="translate(35,94)"/>
<path d="M0 0 C0.99 0.33 1.98 0.66 3 1 C3 2.98 3 4.96 3 7 C3.33 5.02 3.66 3.04 4 1 C4.66 1 5.32 1 6 1 C6.33 1.99 6.66 2.98 7 4 C8 3 8 3 8 2 C9.65 2 11.3 2 13 2 C12.83 3.83 12.83 3.83 12 6 C4.39 10.98 -4.12 12.1 -13 11 C-15.02 10.39 -17.02 9.73 -19 9 C-18.12 7 -18.12 7 -17 5 C-16.34 5 -15.68 5 -15 5 C-14.67 4.01 -14.34 3.02 -14 2 C-11 1 -11 1 -8.25 2.69 C-6 5 -6 5 -6.19 7.25 C-6.46 7.83 -6.72 8.41 -7 9 C-5.56 7.56 -4.88 5.82 -4 4 C-3 6 -3 6 -3 9 C-2.34 8.01 -1.68 7.02 -1 6 C-0.34 6 0.32 6 1 6 C0.67 4.02 0.34 2.04 0 0 Z " fill="#B7AF9B" transform="translate(79,62)"/>
<path d="M0 0 C0.33 0.66 0.66 1.32 1 2 C1.71 2.27 2.41 2.53 3.14 2.8 C6.86 4.36 9.67 6.63 12.81 9.12 C13.41 9.59 14.01 10.06 14.62 10.54 C16.09 11.69 17.54 12.84 19 14 C18.67 14.66 18.34 15.32 18 16 C17.46 15.77 16.91 15.54 16.35 15.3 C-3.61 6.84 -3.61 6.84 -14 6 C-14 7.98 -14 9.96 -14 12 C-14.66 11.67 -15.32 11.34 -16 11 C-16.38 7.56 -16.38 7.56 -16 4 C-14.25 2.38 -14.25 2.38 -12 2 C-10 3.37 -10 3.37 -8 5 C-6.68 5 -5.36 5 -4 5 C-4.33 4.01 -4.66 3.02 -5 2 C-3.35 2 -1.7 2 0 2 C0 1.34 0 0.68 0 0 Z " fill="#95784F" transform="translate(103,15)"/>
<path d="M0 0 C1.95 5.74 2.25 10.97 2 17 C0.2 17.68 0.2 17.68 -2 18 C-5.4 15.77 -7.63 12.58 -8.56 8.63 C-8.69 6.23 -8.63 4.32 -8 2 C-4.94 -0.81 -3.99 -1.33 0 0 Z " fill="#EAE1D0" transform="translate(105,42)"/>
<path d="M0 0 C1.32 0 2.64 0 4 0 C2.75 3.46 1.32 6.15 -1 9 C0.65 8.67 2.3 8.34 4 8 C4 8.66 4 9.32 4 10 C4.93 9.67 5.86 9.34 6.81 9 C10 8 10 8 13 8 C13.83 7.65 14.65 7.3 15.5 6.94 C18 6 18 6 21 7 C21.99 7.66 22.98 8.32 24 9 C18.07 11.44 12.46 12.82 6.12 13.75 C5.7 13.82 5.7 13.82 3.54 14.17 C-2.74 15.13 -2.74 15.13 -5 14 C-3.88 8.99 -2.84 4.36 0 0 Z " fill="#84654C" transform="translate(42,81)"/>
<path d="M0 0 C0.66 0.33 1.32 0.66 2 1 C-4.41 7.92 -13.1 11.37 -22 14 C-22.06 13.7 -22.06 13.7 -22.38 12.19 C-23 10 -23 10 -25 7 C-24.62 4.81 -24.62 4.81 -24 3 C-22.89 3.19 -21.77 3.37 -20.62 3.56 C-14.04 4.38 -6.98 4.09 -1 1 C-0.67 0.67 -0.34 0.34 0 0 Z " fill="#B0A394" transform="translate(88,74)"/>
<path d="" fill="#5D5651" transform="translate(0,0)"/>
<path d="" fill="#4B3445" transform="translate(0,0)"/>
</svg>
