<!-- Generator: visioncortex VTracer 0.6.12 -->
<svg xmlns="http://www.w3.org/2000/svg" viewBox="0 0 150 166" width="150" height="166" shape-rendering="geometricPrecision">
<path d="M0 0 C2.94 3.07 4.79 5.49 5.31 9.81 C4.97 12.03 4.46 14.15 3.88 16.32 C3.27 19.01 3.09 21.56 2.94 24.31 C2.53 29.59 1.24 34.34 -1.69 38.81 C-2.35 38.81 -3.01 38.81 -3.69 38.81 C-3.69 39.47 -3.69 40.13 -3.69 40.81 C-2.82 41.06 -1.95 41.31 -1.06 41.56 C4.24 43.53 8.22 46.05 11.31 50.81 C14.03 58.5 15.07 66.81 16.31 74.84 C17.21 80.62 17.21 80.62 18.31 82.81 C21.18 83.29 23.98 83.65 26.88 83.94 C27.28 83.98 27.28 83.98 29.32 84.2 C31.32 84.41 33.31 84.61 35.31 84.81 C35.6 84.17 35.89 83.53 36.19 82.88 C37.31 80.81 37.31 80.81 39.31 79.81 C41.1 79.69 42.89 79.64 44.69 79.62 C45.64 79.61 46.6 79.6 47.59 79.58 C50.38 79.82 51.98 80.28 54.31 81.81 C55.37 84.06 55.37 84.06 56.31 86.81 C56.87 87.7 57.43 88.59 58 89.5 C59.83 94.13 59.41 98.01 58.31 102.81 C58 103.35 58 103.35 56.44 106.06 C56.25 106.52 56.25 106.52 55.31 108.81 C57.56 111.87 57.56 111.87 59.02 113.39 C61.85 116.51 61.32 119.74 61.12 123.75 C59.95 131.28 55.42 134.77 49.34 138.71 C47.31 139.81 47.31 139.81 45.31 139.81 C45.52 140.53 45.72 141.26 45.94 142 C46.49 146.15 45.4 148.51 42.75 151.69 C39.72 153.09 37.54 152.69 34.29 152.23 C30.37 151.68 26.45 151.27 22.5 150.94 C21.76 150.85 21.02 150.77 20.25 150.68 C18.11 150.51 18.11 150.51 14.31 150.81 C12.06 153.29 12.06 153.29 10.31 155.81 C8.3 156.23 8.3 156.23 6.19 156 C-0.3 155.63 -6.19 157.05 -12.38 158.94 C-18.65 160.6 -23.07 159.79 -28.96 157.59 C-32.38 156.61 -35.71 156.38 -39.25 156.06 C-48.44 154.97 -52.42 151.01 -57.69 143.81 C-58.12 144.43 -58.55 145.05 -59 145.69 C-63.07 148.91 -67.53 149.73 -72.69 149.81 C-74.94 148 -74.94 148 -76.69 145.81 C-79.01 145.41 -81.34 145.07 -83.69 144.81 C-84.68 144.15 -85.67 143.49 -86.69 142.81 C-86.36 141.82 -86.03 140.83 -85.69 139.81 C-83.69 139.15 -81.69 138.48 -79.69 137.81 C-79.39 137.48 -79.39 137.48 -77.88 135.81 C-75.31 133.47 -74.74 133.7 -71.44 133.5 C-67.71 132.87 -66.33 131.62 -64.43 128.5 C-62.99 125.85 -61.69 123.15 -60.41 120.41 C-59.03 117.53 -57.72 115.25 -55.69 112.81 C-56.22 112.24 -56.75 111.68 -57.3 111.09 C-68.12 99.26 -68.12 99.26 -67.75 92.44 C-65.6 78.45 -60.31 53.83 -48.24 45.16 C-41.32 41.5 -34.12 38.29 -26.69 35.81 C-26.69 35.15 -26.69 34.49 -26.69 33.81 C-27.33 33.52 -27.97 33.23 -28.62 32.94 C-30.69 31.81 -30.69 31.81 -31.44 29.69 C-31.52 29.07 -31.6 28.45 -31.69 27.81 C-31.03 27.81 -30.37 27.81 -29.69 27.81 C-30.01 26.97 -30.33 26.12 -30.67 25.25 C-31.75 21.59 -31.99 18.56 -32 14.75 C-32.02 13.56 -32.03 12.38 -32.05 11.15 C-31.48 5.95 -29.17 2.88 -25.25 -0.44 C-24.96 -0.69 -24.96 -0.69 -23.5 -1.95 C-16.85 -6.48 -5.93 -4.93 0 0 Z " fill="#645843" transform="translate(87.6875,5.1875)"/>
<path d="M0 0 C3.94 3.8 4.06 7.68 3.81 12.94 C2.64 20.47 -1.89 23.95 -7.98 27.9 C-10 29 -10 29 -12 29 C-11.9 29.36 -11.9 29.36 -11.38 31.19 C-10.82 35.34 -11.92 37.7 -14.56 40.88 C-17.6 42.27 -19.78 41.88 -23.02 41.41 C-26.95 40.87 -30.87 40.46 -34.81 40.12 C-35.55 40.04 -36.3 39.95 -37.06 39.87 C-39.21 39.7 -39.21 39.7 -43 40 C-45.25 42.48 -45.25 42.48 -47 45 C-49.01 45.42 -49.01 45.42 -51.12 45.19 C-57.61 44.81 -63.5 46.24 -69.69 48.12 C-75.96 49.78 -80.38 48.98 -86.28 46.77 C-89.7 45.8 -93.02 45.57 -96.56 45.25 C-103.3 44.44 -108.08 42.78 -112 37 C-113.72 30.83 -114.18 24.32 -111.25 18.56 C-107.78 14.61 -106.09 12.84 -100.75 12.81 C-99.51 12.87 -98.28 12.94 -97 13 C-97.66 13.66 -98.32 14.32 -99 15 C-99 15.99 -99 16.98 -99 18 C-98.23 17.9 -97.46 17.81 -96.66 17.71 C-95.66 17.6 -94.66 17.49 -93.62 17.38 C-92.63 17.26 -91.63 17.14 -90.6 17.02 C-88 17 -88 17 -86 19 C-85.01 18.67 -84.02 18.34 -83 18 C-76.49 17.41 -71.96 18.19 -66 21 C-59.84 22.59 -59.84 22.59 -56.62 20.31 C-55.76 19.55 -54.89 18.79 -54 18 C-47.68 14.25 -42.26 13.48 -35 14 C-34.67 14 -34.34 14 -34 14 C-35.65 13.34 -37.3 12.68 -39 12 C-33.97 6.32 -26.12 4.63 -18.81 4.18 C-17 4 -17 4 -15 3 C-16.98 3 -18.96 3 -21 3 C-18.42 0.42 -17.08 0.66 -13.5 0.44 C-1.31 -0.35 -1.31 -0.35 0 0 Z " fill="#8C745E" transform="translate(145,116)"/>
<path d="M0 0 C0.33 0.99 0.66 1.98 1 3 C1.66 3 2.32 3 3 3 C4.55 8.78 4.55 8.78 5.22 11.33 C6.23 15.13 7.25 18.92 8.31 22.7 C10.74 31.52 12.66 40.09 13.64 49.19 C14 52 14 52 15 54 C17.71 54.21 20.29 54.28 23 54.25 C23.39 54.25 23.39 54.25 25.34 54.24 C30.8 54.16 35.73 53.53 41 52 C41 52.66 41 53.32 41 54 C38.5 55.12 38.5 55.12 36 56 C36.33 56 36.66 56 37 56 C37.5 56.16 37.5 56.16 40 57 C39.34 57 38.68 57 38 57 C38 57.66 38 58.32 38 59 C38.5 59.16 38.5 59.16 41 60 C40 63 40 63 38.19 64.19 C36 65 36 65 32 65 C32 64.34 32 63.68 32 63 C31.01 63.33 30.02 63.66 29 64 C29.31 64.11 29.31 64.11 30.86 64.67 C33.75 66.46 34.16 68.13 35.25 71.31 C35.42 71.78 35.42 71.78 36.27 74.18 C37 76.98 37.38 79.12 37 82 C33.36 84.43 31.29 84.16 27 84 C26.34 81.69 25.68 79.38 25 77 C24.01 77.66 23.02 78.32 22 79 C21.01 79 20.02 79 19 79 C19 80.32 19 81.64 19 83 C18.34 83 17.68 83 17 83 C16.67 82.01 16.34 81.02 16 80 C15.67 81.65 15.34 83.3 15 85 C14.67 84.67 14.67 84.67 13 83 C12.67 83.66 12.34 84.32 12 85 C11.34 85 10.68 85 10 85 C9.67 83.68 9.34 82.36 9 81 C8.84 81.66 8.84 81.66 8 85 C5.19 85 4.77 83.86 3 81.75 C2.48 81.15 1.97 80.54 1.44 79.92 C0 78 0 78 -1 75.83 C-2 74 -2 74 -5 73 C-5.66 74.65 -6.32 76.3 -7 78 C-10.88 76.37 -10.88 76.37 -12 73 C-13.32 72.62 -14.66 72.3 -16 72 C-20.01 69.94 -22.43 67.61 -25.19 64.06 C-25.86 63.21 -26.54 62.35 -27.23 61.47 C-32.24 54.47 -31.06 49.4 -29.09 41.23 C-19.99 7.36 -19.99 7.36 -9 2 C-6.01 1 -3.13 0.35 0 0 Z " fill="#573D2E" transform="translate(51,47)"/>
<path d="M0 0 C0 0.66 0 1.32 0 2 C1.32 2.33 2.64 2.66 4 3 C3.34 3 2.68 3 2 3 C2.16 3.83 2.16 3.83 3 8 C3.66 8 4.32 8 5 8 C5.41 8.76 5.83 9.53 6.25 10.31 C9.22 14.88 13.18 16.02 18.38 16.69 C19.57 16.79 20.77 16.89 22 17 C22 17.66 22 18.32 22 19 C20.37 19.75 18.74 20.48 17.08 21.15 C14.93 22.03 12.84 22.99 10.75 24 C10.43 24.15 10.43 24.15 8.8 24.94 C7 26 7 26 5.57 27.67 C4 29 4 29 1.7 28.93 C0.85 28.72 -0 28.52 -0.88 28.31 C-1.77 28.1 -2.66 27.9 -3.59 27.68 C-6 27 -6 27 -8.5 25.88 C-14.29 23.85 -21.1 24.76 -27 26 C-26.67 25.34 -26.34 24.68 -26 24 C-29.63 24.33 -33.26 24.66 -37 25 C-37.16 24.34 -37.16 24.34 -38 21 C-37.84 20.84 -37.84 20.84 -37 20 C-40.73 19.65 -42.54 19.71 -45.75 21.75 C-49.9 25.9 -50.24 28.93 -50.12 34.75 C-50.12 35.34 -50.12 35.34 -50.07 38.3 C-50.05 39.19 -50.02 40.08 -50 41 C-50.99 40.34 -51.98 39.68 -53 39 C-53.22 39.31 -53.22 39.31 -54.31 40.88 C-58.38 44.09 -62.85 44.91 -68 45 C-70.25 43.19 -70.25 43.19 -72 41 C-74.32 40.59 -76.66 40.26 -79 40 C-79.99 39.34 -80.98 38.68 -82 38 C-81.67 37.01 -81.34 36.02 -81 35 C-79 34.33 -77 33.67 -75 33 C-74.4 32.34 -73.8 31.68 -73.19 31 C-70.63 28.66 -70.05 28.89 -66.75 28.69 C-62.82 28.01 -62.08 27.13 -59.81 23.72 C-58.75 21.73 -57.77 19.72 -56.83 17.67 C-54.78 13.2 -52.69 10.29 -49 7 C-45.02 9.16 -42.11 11.71 -39 15 C-38.94 14.6 -38.94 14.6 -38.62 12.56 C-38 10 -38 10 -36 9 C-32.49 11.04 -30.99 13.54 -29 17 C-28.44 17.56 -27.89 18.11 -27.31 18.69 C-26 20 -26 20 -26 22 C-25.34 22 -24.68 22 -24 22 C-24 20.02 -24 18.04 -24 16 C-22 18 -22 18 -22 22 C-21.34 22 -20.68 22 -20 22 C-20 20.35 -20 18.7 -20 17 C-19.34 17.99 -18.68 18.98 -18 20 C-17.67 18.35 -17.34 16.7 -17 15 C-15 17 -15 17 -15 20 C-14.34 20 -13.68 20 -13 20 C-13 18.68 -13 17.36 -13 16 C-9.5 14.25 -9.5 14.25 -6 13 C-5.84 14.32 -5.84 14.32 -5 21 C-2.03 20.34 0.94 19.68 4 19 C3.54 14.43 3.17 11.06 1 7 C1 5.68 1 4.36 1 3 C-1.31 2.67 -3.62 2.34 -6 2 C-3 0 -3 0 0 0 Z " fill="#483024" transform="translate(83,110)"/>
<path d="M0 0 C1.51 1.96 2.89 3.78 4 6 C5.81 6.47 5.81 6.47 8.15 6.78 C8.57 6.84 8.57 6.84 10.7 7.14 C11.58 7.26 12.46 7.38 13.38 7.5 C15.11 7.73 16.85 7.97 18.59 8.22 C19.36 8.32 20.13 8.42 20.93 8.53 C23 9 23 9 26 11 C26 11.66 26 12.32 26 13 C25.09 13.25 24.19 13.5 23.25 13.75 C19.79 15.08 18.16 16.01 16 19 C15.75 22.25 15.75 22.25 16 25 C16.66 25 17.32 25 18 25 C18.33 25.66 18.66 26.32 19 27 C20.32 26.67 21.64 26.34 23 26 C23 25.01 23 24.02 23 23 C22.34 22.67 21.68 22.34 21 22 C21 18.89 21.17 16.89 22 14 C23.65 14 25.3 14 27 14 C27 12.68 27 11.36 27 10 C30.3 10 33.6 10 37 10 C37.25 10.93 37.5 11.86 37.75 12.81 C39 16 39 16 41.12 17.5 C43 19 43 19 43.5 21.81 C42.85 25.96 41.91 27.94 39 31 C36.68 31.62 34.57 31.81 32.18 31.91 C30 32 30 32 27.25 32.75 C25 33 25 33 23.07 31.51 C17.59 28.82 11.44 29.93 5.46 30.21 C-0.63 30.37 -4.53 30.4 -9 26 C-9 24.68 -9 23.36 -9 22 C-8.01 22 -7.02 22 -6 22 C-6.66 21.67 -7.32 21.34 -8 21 C-9.64 15.03 -8.94 8.81 -7 3 C-3.44 1.31 -3.44 1.31 0 0 Z " fill="#96632D" transform="translate(102,82)"/>
<path d="M0 0 C3.16 0.64 5.73 1.55 8.69 2.75 C10.01 2.75 11.33 2.75 12.69 2.75 C14.76 10.91 14.76 10.91 14.38 15.44 C14.79 19.85 16.49 20.78 19.9 23.35 C21.69 24.75 21.69 24.75 23.5 27.25 C25.78 29.85 27.69 31 30.69 32.69 C35.12 35.23 37.48 37.13 39.69 41.75 C39.69 43.07 39.69 44.39 39.69 45.75 C39.03 45.75 38.37 45.75 37.69 45.75 C37.36 44.76 37.03 43.77 36.69 42.75 C36.36 44.4 36.03 46.05 35.69 47.75 C35.03 47.09 34.37 46.43 33.69 45.75 C33.52 46.08 33.52 46.08 32.69 47.75 C32.03 47.75 31.37 47.75 30.69 47.75 C30.52 47.09 30.52 47.09 29.69 43.75 C29.36 45.07 29.03 46.39 28.69 47.75 C25.88 47.75 25.46 46.61 23.69 44.5 C23.17 43.9 22.66 43.29 22.12 42.67 C20.69 40.75 20.69 40.75 19.69 38.58 C18.69 36.75 18.69 36.75 15.69 35.75 C15.36 36.58 15.36 36.58 13.69 40.75 C9.81 39.12 9.81 39.12 8.69 35.75 C7.37 35.37 6.03 35.05 4.69 34.75 C-1.74 31.23 -1.74 31.23 -3.19 27.5 C-4.31 24.75 -4.31 24.75 -6.44 22 C-9.64 16.45 -9.03 11.24 -6.94 5.31 C-4.36 -0.33 -4.36 -0.33 0 0 Z " fill="#835629" transform="translate(30.3125,84.25)"/>
<path d="M0 0 C0.33 0.99 0.66 1.98 1 3 C1.66 3 2.32 3 3 3 C4.55 8.78 4.55 8.78 5.22 11.33 C6.23 15.13 7.25 18.92 8.31 22.7 C10.73 31.48 12.66 40.03 13.64 49.09 C14 52 14 52 15 55 C13.35 55 11.7 55 10 55 C10 54.34 10 53.68 10 53 C9.05 53.02 8.1 53.04 7.12 53.06 C4 53 4 53 2 52 C1.5 50.83 1.5 50.83 -1 45 C-1.66 44.67 -2.32 44.34 -3 44 C-3 43.01 -3 42.02 -3 41 C-2.01 40.34 -1.02 39.68 0 39 C0.39 37.35 0.72 35.68 1 34 C2.06 31.69 2.06 31.69 3 30 C2.01 30.33 1.02 30.66 0 31 C-0.14 30.38 -0.29 29.76 -0.44 29.12 C-1 27 -1 27 -2 25 C-3.32 28.96 -4.64 32.92 -6 37 C-6.33 36.34 -6.66 35.68 -7 35 C-9 34.66 -11 34.33 -13 34 C-15.86 33.31 -18.48 32.56 -21 31 C-22.19 28 -22.19 28 -22 25 C-20.56 23.12 -20.56 23.12 -19 22 C-19 23.32 -19 24.64 -19 26 C-17 25 -17 25 -16.38 22.94 C-16.25 22.3 -16.13 21.66 -16 21 C-16.99 21 -17.98 21 -19 21 C-17.57 15.49 -16.14 10.14 -12 6 C-11.01 6 -10.02 6 -9 6 C-9 5.34 -9 4.68 -9 4 C-6.09 1.98 -3.48 0.65 0 0 Z " fill="#894B2F" transform="translate(51,47)"/>
<path d="M0 0 C0.22 0.67 0.43 1.34 0.66 2.02 C1.1 2.68 1.54 3.33 2 4 C4.53 4.1 4.53 4.1 7.5 3.62 C10.47 3.16 10.47 3.16 13 3 C13.66 3.66 14.32 4.32 15 5 C15.99 4.67 16.98 4.34 18 4 C24.55 3.4 29.14 4.13 35 7 C35.93 7.14 36.86 7.29 37.81 7.44 C40 8 40 8 41.31 9.75 C42.08 12.28 42.15 14.37 42 17 C42.66 17 43.32 17 44 17 C44.33 15.68 44.66 14.36 45 13 C46.57 19.03 46.57 19.03 44.95 21.8 C43.71 23.27 42.36 24.64 41 26 C40.34 25.67 39.68 25.34 39 25 C39.99 23.02 40.98 21.04 42 19 C41.34 19.48 40.67 19.96 39.99 20.46 C39.11 21.09 38.22 21.72 37.31 22.38 C36.44 23 35.57 23.63 34.68 24.27 C32.13 25.92 29.9 27.13 27 28 C26.01 27.67 25.02 27.34 24 27 C24.66 26.01 25.32 25.02 26 24 C25.01 24.33 24.02 24.66 23 25 C20.45 25.12 17.93 25.19 15.38 25.19 C14.68 25.2 13.99 25.21 13.27 25.22 C11.51 25.23 9.76 25.12 8 25 C7.67 24.34 7.34 23.68 7 23 C7.33 22.34 7.66 21.68 8 21 C7.28 20.9 6.56 20.79 5.81 20.69 C2.76 19.94 0.62 18.72 -2 17 C-2.33 17.99 -2.66 18.98 -3 20 C-6.83 17.44 -7.54 15.32 -9 11 C-8.9 6.61 -7.02 4.1 -4 1 C-1.75 0.19 -1.75 0.19 0 0 Z " fill="#E2CB8C" transform="translate(44,130)"/>
<path d="M0 0 C0.69 3.56 0.69 3.56 1 7 C0.34 7.33 0.34 7.33 -3 9 C-2.67 10.32 -2.34 11.64 -2 13 C-1.01 13 -0.02 13 1 13 C1.3 18.72 1.27 23.05 -2 28 C-4.95 29.18 -7.85 29.68 -11 30 C-10.34 30.33 -9.68 30.66 -9 31 C-9.31 32.79 -9.62 34.58 -9.94 36.38 C-10.02 36.87 -10.02 36.87 -10.46 39.4 C-11 42 -11 42 -12 44 C-15.85 42.43 -18.19 40.02 -21 37 C-21.48 36.54 -21.97 36.09 -22.46 35.62 C-24.47 33.58 -25.93 31.86 -26.16 28.95 C-25.78 25.33 -25.02 23.03 -23 20 C-23.99 19.34 -24.98 18.68 -26 18 C-26 17.34 -26 16.68 -26 16 C-26.66 16 -27.32 16 -28 16 C-28.33 14.35 -28.66 12.7 -29 11 C-27.68 10.34 -26.36 9.68 -25 9 C-23.5 10.25 -23.5 10.25 -22 12 C-22 13.32 -22 14.64 -22 16 C-21.34 16 -20.68 16 -20 16 C-20.1 15.2 -20.21 14.39 -20.31 13.56 C-19.88 8.67 -17.55 3.55 -14 0 C-12.22 -0.26 -10.42 -0.46 -8.62 -0.62 C-8.14 -0.67 -8.14 -0.67 -5.66 -0.91 C-3 -1 -3 -1 0 0 Z " fill="#AA7F49" transform="translate(89,14)"/>
<path d="M0 0 C4.02 7.31 3.16 16.25 3.12 24.38 C3.13 24.86 3.13 24.86 3.14 27.3 C3.13 33.92 2.67 40.42 2 47 C2 47.33 2 47.66 2 48 C2.99 48 3.98 48 5 48 C5.33 46.68 5.66 45.36 6 44 C6.99 44.99 7.98 45.98 9 47 C9.99 36.11 10.98 25.22 12 14 C12.33 14 12.66 14 13 14 C13 18.29 13 22.58 13 27 C14.65 26.34 16.3 25.68 18 25 C17.84 24.67 17.84 24.67 17 23 C16.77 20.45 16.58 17.93 16.44 15.38 C16.39 14.67 16.35 13.96 16.31 13.23 C16.2 11.49 16.1 9.74 16 8 C18.44 11.66 18.92 15.13 19.62 19.38 C19.69 19.75 19.69 19.75 20.03 21.66 C20.69 25.48 21.17 29.11 21 33 C20.67 32.84 20.67 32.84 19 32 C13.27 34.45 13.27 34.45 12 37 C11.77 39.55 11.58 42.07 11.44 44.62 C11.39 45.33 11.35 46.04 11.31 46.77 C11.2 48.51 11.1 50.26 11 52 C14.96 52.66 18.92 53.32 23 54 C23 54.33 23 54.66 23 55 C18.08 55.17 14.5 55.25 10 53 C10.54 56.8 12.2 58.47 15 61 C14.56 60.91 14.56 60.91 12.31 60.44 C9.15 60.02 7.05 60.19 4 61 C4.66 60.55 5.32 60.09 6 59.62 C6.66 59.09 7.32 58.55 8 58 C8 57.34 8 56.68 8 56 C7.34 55.67 6.68 55.34 6 55 C5.67 54.34 5.34 53.68 5 53 C2.93 53.02 2.93 53.02 0.44 53.38 C-0.39 53.49 -1.22 53.6 -2.07 53.71 C-2.7 53.81 -3.34 53.9 -4 54 C-1.48 51.48 0.14 51.44 3.62 50.88 C4.13 50.79 4.13 50.79 6.66 50.37 C7.43 50.25 8.21 50.12 9 50 C8.84 49.84 8.84 49.84 8 49 C6.91 49.31 5.81 49.62 4.69 49.94 C0.96 50.95 -2.43 51.11 -6.29 51.07 C-6.83 51.06 -6.83 51.06 -9.54 51.04 C-10.35 51.03 -11.16 51.01 -12 51 C-12.08 50.32 -12.16 49.64 -12.24 48.94 C-12.62 45.81 -13 42.69 -13.38 39.56 C-13.44 39.03 -13.44 39.03 -13.76 36.32 C-14.68 28.75 -15.92 21.48 -18.19 14.19 C-18.96 11.17 -19.13 9.83 -18 7 C-12.95 12.29 -12.95 12.29 -13.19 15.88 C-13.46 16.58 -13.72 17.28 -14 18 C-13.34 18.33 -12.68 18.66 -12 19 C-12 17.35 -12 15.7 -12 14 C-7.75 15.8 -3.09 18.82 -1 23 C-0.34 23 0.32 23 1 23 C1.27 18.26 1.37 15.51 -2 12 C-1.34 11.34 -0.68 10.68 0 10 C0.2 7.62 0.2 7.62 0.12 4.88 C0.11 3.96 0.09 3.05 0.07 2.12 C0.05 1.42 0.02 0.72 0 0 Z M-5 23 C-6.12 25.5 -6.12 25.5 -7 28 C-6.5 28.33 -6.5 28.33 -4 30 C-1.88 26.38 -1.88 26.38 -3 23 C-3.66 23 -4.32 23 -5 23 Z " fill="#3B364A" transform="translate(83,51)"/>
<path d="M0 0 C2.41 4.39 3.09 10.08 2 15 C-0.69 17.19 -0.69 17.19 -4 19 C-5.67 21 -7.34 23 -9 25 C-11.94 27.28 -13.09 28.1 -16.81 27.69 C-17.53 27.46 -18.26 27.23 -19 27 C-16.59 24.59 -14.06 23.46 -11 22 C-16.45 24.81 -22.3 24.88 -28.06 23 C-28.7 22.67 -29.34 22.34 -30 22 C-28 21 -28 21 -26 21 C-26.58 20.97 -27.16 20.95 -27.76 20.92 C-33.27 20.52 -36.54 19.5 -41 16 C-41.99 15.34 -42.98 14.68 -44 14 C-40.67 14 -37.33 14 -34 14 C-34.83 13.67 -34.83 13.67 -39 12 C-33.97 6.32 -26.12 4.63 -18.81 4.18 C-17 4 -17 4 -15 3 C-16.98 3 -18.96 3 -21 3 C-18.42 0.42 -17.08 0.66 -13.5 0.44 C-1.15 -0.36 -1.15 -0.36 0 0 Z " fill="#E1CB92" transform="translate(145,116)"/>
<path d="M0 0 C2.94 3.07 4.79 5.49 5.31 9.81 C4.75 13.96 3.63 17.85 2.31 21.81 C1.32 21.81 0.33 21.81 -0.69 21.81 C-1.02 22.8 -1.35 23.79 -1.69 24.81 C-2.31 21.44 -2.31 21.44 -2.69 17.81 C-0.69 15.81 -0.69 15.81 2.31 15.81 C1.65 13.5 0.99 11.19 0.31 8.81 C-11.2 8.39 -11.2 8.39 -14.63 11.67 C-16.97 15.83 -18.32 20.03 -18.69 24.81 C-19.35 24.81 -20.01 24.81 -20.69 24.81 C-20.98 23.99 -21.27 23.16 -21.56 22.31 C-21.93 21.49 -22.31 20.66 -22.69 19.81 C-24.01 19.81 -25.33 19.81 -26.69 19.81 C-26.69 21.46 -26.69 23.11 -26.69 24.81 C-26.03 24.81 -25.37 24.81 -24.69 24.81 C-24.36 25.47 -24.03 26.13 -23.69 26.81 C-22.7 27.47 -21.71 28.13 -20.69 28.81 C-21.68 31.12 -22.67 33.43 -23.69 35.81 C-27.58 34.55 -29.58 33.36 -31.69 29.81 C-31.69 29.15 -31.69 28.49 -31.69 27.81 C-31.03 27.81 -30.37 27.81 -29.69 27.81 C-30.01 26.97 -30.33 26.12 -30.67 25.25 C-31.75 21.59 -31.99 18.56 -32 14.75 C-32.02 13.56 -32.03 12.38 -32.05 11.15 C-31.48 5.95 -29.17 2.88 -25.25 -0.44 C-24.67 -0.94 -24.1 -1.44 -23.5 -1.95 C-16.85 -6.48 -5.93 -4.93 0 0 Z " fill="#291E19" transform="translate(87.6875,5.1875)"/>
<path d="M0 0 C-2.18 1.13 -4.22 2.07 -6.56 2.81 C-9.73 4.36 -10.65 5.77 -12 9 C-11.75 11.5 -11.75 11.5 -11 14 C-10.83 14.83 -10.83 14.83 -10 19 C-9.01 19 -8.02 19 -7 19 C-6.67 18.34 -6.34 17.68 -6 17 C-4.33 17.76 -2.66 18.53 -1 19.31 C-0.07 19.74 0.86 20.17 1.81 20.61 C2.53 21.07 3.26 21.53 4 22 C4 22.99 4 23.98 4 25 C6.38 25.03 8.75 25.05 11.12 25.06 C11.79 25.07 12.46 25.08 13.14 25.09 C17.21 25.11 21.01 24.79 25 24 C24.34 24.29 23.68 24.58 23 24.88 C22.34 25.25 21.68 25.62 21 26 C21 26.66 21 27.32 21 28 C27.21 26.3 31.23 24.3 36 20 C36.66 20 37.32 20 38 20 C37.92 20.31 37.92 20.31 37.5 21.88 C37 24 37 24 37 26 C40.12 22.59 41.54 20.68 41 16 C40.67 16.66 40.34 17.32 40 18 C39.34 18 38.68 18 38 18 C37.34 15.36 36.68 12.72 36 10 C42.53 11.2 42.53 11.2 44.19 14 C45.28 18.02 45.36 22.02 44 26 C41.86 27.41 40.57 28 38 28 C36.64 28.79 35.31 29.63 34 30.5 C30.22 33 30.22 33 28 33 C28 33.66 28 34.32 28 35 C21.76 37 16.65 35.99 10.72 33.77 C7.3 32.8 3.98 32.57 0.44 32.25 C-6.3 31.44 -11.08 29.78 -15 24 C-16.72 17.83 -17.18 11.32 -14.25 5.56 C-9.48 0.13 -7.1 -0.36 0 0 Z " fill="#A4927A" transform="translate(48,129)"/>
<path d="M0 0 C0.33 0.66 0.66 1.32 1 2 C0.34 2 -0.32 2 -1 2 C-1 2.66 -1 3.32 -1 4 C-0.13 4.25 0.73 4.49 1.62 4.75 C6.86 6.69 11.04 9.2 14 14 C14.73 17.06 14.73 17.06 15.19 20.44 C15.35 21.55 15.5 22.66 15.67 23.81 C15.96 26.58 16.06 29.22 16 32 C16 32.99 16 33.98 16 35 C15.01 35.16 15.01 35.16 10 36 C9.87 37.28 9.73 38.55 9.6 39.87 C9.42 41.54 9.24 43.21 9.06 44.88 C8.98 45.72 8.89 46.56 8.8 47.43 C8.71 48.23 8.62 49.04 8.54 49.87 C8.46 50.61 8.38 51.35 8.3 52.12 C8 54 8 54 7 56 C5 55 5 55 4 54 C3.67 54.99 3.34 55.98 3 57 C0.44 57.69 0.44 57.69 -2 58 C-1.67 57.34 -1.34 56.68 -1 56 C0.05 48.58 0.16 41.11 0.12 33.62 C0.12 33.13 0.12 33.13 0.12 30.6 C0.08 23.36 -0.23 16.2 -1 9 C-1.66 9 -2.32 9 -3 9 C-3 8.34 -3 7.68 -3 7 C-3.66 7 -4.32 7 -5 7 C-5.12 8.24 -5.25 9.48 -5.38 10.75 C-5.76 13.88 -6.31 16.29 -8 19 C-9.78 13.65 -6.77 8.19 -5 3 C-6.32 2.34 -7.64 1.68 -9 1 C-7.52 0.78 -6.04 0.57 -4.56 0.38 C-4.15 0.32 -4.15 0.32 -2.07 0.02 C-1.73 0.02 -1.73 0.02 0 0 Z " fill="#665849" transform="translate(85,42)"/>
<path d="M0 0 C3.3 0 6.6 0 10 0 C10.25 0.93 10.5 1.86 10.75 2.81 C12 6 12 6 14.12 7.5 C16 9 16 9 16.5 11.81 C15.85 15.96 14.91 17.94 12 21 C9.68 21.62 7.57 21.81 5.18 21.91 C3 22 3 22 0.25 22.75 C-2 23 -2 23 -3.93 21.51 C-9.41 18.82 -15.56 19.93 -21.54 20.21 C-27.63 20.37 -31.53 20.4 -36 16 C-36 14.68 -36 13.36 -36 12 C-35.23 12.31 -34.46 12.61 -33.67 12.93 C-28.89 14.32 -24.2 14.71 -19.25 15.12 C-18.29 15.21 -17.33 15.3 -16.35 15.39 C-9.45 16 -9.45 16 -7 16 C-6.01 16 -5.02 16 -4 16 C-4 15.01 -4 14.02 -4 13 C-4.66 12.67 -5.32 12.34 -6 12 C-6 8.89 -5.83 6.89 -5 4 C-3.35 4 -1.7 4 0 4 C0 2.68 0 1.36 0 0 Z " fill="#AC825A" transform="translate(129,92)"/>
<path d="M0 0 C4.36 0.51 7.95 1.36 12 3 C13.32 3 14.64 3 16 3 C17.39 8.49 18 13.32 18 19 C18.66 19.99 19.32 20.98 20 22 C19.11 22.58 18.23 23.16 17.31 23.75 C14.41 25.68 11.69 27.78 9 30 C7.68 28.9 6.37 27.8 5.06 26.69 C4.33 26.07 3.6 25.46 2.85 24.82 C1 23 1 23 0 20 C0.66 19.67 1.32 19.34 2 19 C1.34 18.73 0.68 18.46 0 18.19 C-0.66 17.8 -1.32 17.4 -2 17 C-2 16.01 -2 15.02 -2 14 C-0.35 13.67 1.3 13.34 3 13 C3 12.34 3 11.68 3 11 C3.97 10.86 4.94 10.71 5.94 10.56 C9 10 9 10 10 9 C7 9 7 9 3.5 10 C0 11 0 11 -3 11 C-2.01 7.37 -1.02 3.74 0 0 Z " fill="#BC792C" transform="translate(27,84)"/>
<path d="M0 0 C-1.65 1.98 -3.3 3.96 -5 6 C-4.67 6.33 -4.34 6.66 -4 7 C-1.72 13.85 -6.88 22.82 -10 29 C-10.33 29.33 -10.66 29.66 -11 30 C-10.34 30.66 -9.68 31.32 -9 32 C-12.65 32.93 -16.23 33.74 -20 34 C-22.25 32.19 -22.25 32.19 -24 30 C-26.32 29.59 -28.66 29.26 -31 29 C-31.99 28.34 -32.98 27.68 -34 27 C-33.84 26.5 -33.84 26.5 -33 24 C-31 23.33 -29 22.67 -27 22 C-26.4 21.34 -25.8 20.68 -25.19 20 C-22.63 17.66 -22.05 17.89 -18.75 17.69 C-16.05 17.24 -14.53 16.71 -12.87 14.48 C-11.34 11.86 -10 9.18 -8.74 6.41 C-6.4 1.29 -6.4 1.29 -3.89 -0.53 C-2 -1 -2 -1 0 0 Z " fill="#633B2C" transform="translate(35,121)"/>
<path d="M0 0 C0 0.66 0 1.32 0 2 C1.32 2.33 2.64 2.66 4 3 C3.34 3 2.68 3 2 3 C2.33 4.65 2.66 6.3 3 8 C3.66 8 4.32 8 5 8 C5.41 8.76 5.83 9.53 6.25 10.31 C9.22 14.88 13.18 16.02 18.38 16.69 C19.57 16.79 20.77 16.89 22 17 C22 17.66 22 18.32 22 19 C20.37 19.75 18.74 20.48 17.08 21.15 C14.93 22.03 12.84 22.99 10.75 24 C10.43 24.15 10.43 24.15 8.8 24.94 C7 26 7 26 5.55 27.66 C4 29 4 29 1.91 29 C-4.6 27.49 -10.78 25.44 -17 23 C-17 20.36 -17 17.72 -17 15 C-15 17 -15 17 -15 20 C-14.34 20 -13.68 20 -13 20 C-13 18.68 -13 17.36 -13 16 C-9.5 14.25 -9.5 14.25 -6 13 C-5.67 15.64 -5.34 18.28 -5 21 C-2.03 20.34 0.94 19.68 4 19 C3.54 14.43 3.17 11.06 1 7 C1 5.68 1 4.36 1 3 C-1.31 2.67 -3.62 2.34 -6 2 C-3 0 -3 0 0 0 Z " fill="#2A2738" transform="translate(83,110)"/>
<path d="M0 0 C1.88 1.5 1.88 1.5 3 3 C3 3.66 3 4.32 3 5 C3.83 5.16 3.83 5.16 8 6 C5 7 5 7 2 6 C2 6.66 2 7.32 2 8 C2.66 8.33 3.32 8.66 4 9 C3.01 9.66 2.02 10.32 1 11 C0.74 13.09 0.74 13.09 0.88 15.5 C1.09 19.83 1.09 19.83 0 22 C-0.66 22 -1.32 22 -2 22 C-1.67 22.99 -1.34 23.98 -1 25 C-5.93 26.1 -10.82 26.39 -15.84 26.72 C-18.63 26.97 -21.27 27.39 -24 28 C-21.43 25.96 -18.74 24.11 -16 22.31 C-15.34 21.88 -14.68 21.44 -14 20.99 C-12 20 -12 20 -8 20 C-7.79 9.23 -7.79 9.23 -9 6 C-11 5.38 -11 5.38 -13 5 C-13.33 4.01 -13.66 3.02 -14 2 C-8.89 -1.14 -5.72 -3.06 0 0 Z " fill="#695846" transform="translate(100,135)"/>
<path d="M0 0 C0.16 0.33 0.16 0.33 1 2 C-0.65 2.66 -2.3 3.32 -4 4 C-3.67 4 -3.34 4 -3 4 C-2.01 4.33 -1.02 4.66 0 5 C-0.66 5 -1.32 5 -2 5 C-2 5.66 -2 6.32 -2 7 C-1.5 7.17 -1.5 7.17 1 8 C0 11 0 11 -1.81 12.19 C-4 13 -4 13 -8 13 C-8 12.34 -8 11.68 -8 11 C-8.32 11.14 -8.32 11.14 -9.94 11.88 C-17.61 15.17 -23.01 16.12 -31 13 C-30.34 12.67 -29.68 12.34 -29 12 C-29.66 11.38 -30.32 10.76 -31 10.12 C-33 8 -33 8 -33 6 C-30.36 6 -27.72 6 -25 6 C-25.99 5.83 -25.99 5.83 -31 5 C-31 4.67 -31 4.34 -31 4 C-30.35 3.95 -29.69 3.9 -29.02 3.85 C-26.01 3.61 -23 3.37 -20 3.12 C-18.97 3.05 -17.94 2.97 -16.88 2.89 C-11.04 2.4 -5.63 1.61 0 0 Z " fill="#99422B" transform="translate(91,99)"/>
<path d="M0 0 C5.75 0.88 5.75 0.88 8 2 C11.32 2.23 14.64 2.39 17.97 2.52 C22.04 2.72 25.32 3.22 29 5 C28.67 5.16 28.67 5.16 27 6 C27 6.66 27 7.32 27 8 C25.68 7.67 24.36 7.34 23 7 C23 7.66 23 8.32 23 9 C24.32 9.33 25.64 9.66 27 10 C26.67 10.99 26.34 11.98 26 13 C17.63 15.05 8.46 13.81 0 13 C-0.66 9.7 -1.32 6.4 -2 3 C-1.34 2.67 -0.68 2.34 0 2 C0 1.34 0 0.68 0 0 Z " fill="#C6965F" transform="translate(102,141)"/>
<path d="M0 0 C0.66 0 1.32 0 2 0 C4.37 8.22 4.37 8.22 3 13 C3 16 3 16 5 18 C5.27 20.69 5.09 23.29 5 26 C2.56 25.69 2.56 25.69 0 25 C-0.33 24.01 -0.66 23.02 -1 22 C-2.63 20.61 -2.63 20.61 -4.56 19.31 C-5.2 18.88 -5.84 18.44 -6.5 17.99 C-6.75 17.83 -6.75 17.83 -8 17 C-8.33 18.32 -8.66 19.64 -9 21 C-9.99 20.67 -10.98 20.34 -12 20 C-11.75 19.11 -11.5 18.23 -11.25 17.31 C-10.93 13.04 -12.28 12.14 -15 9 C-15 5 -15 5 -13 2 C-11.52 3.12 -10.04 4.25 -8.56 5.38 C-7.74 6 -6.92 6.63 -6.07 7.27 C-4 9 -4 9 -3 11 C-2.01 7.37 -1.02 3.74 0 0 Z M-2 25 C-1.34 25 -0.68 25 0 25 C0.69 27.38 0.69 27.38 1 30 C0.01 30.66 -0.98 31.32 -2 32 C-3.12 30.19 -3.12 30.19 -4 28 C-3.34 27.01 -2.68 26.02 -2 25 Z " fill="#6E6550" transform="translate(80,49)"/>
<path d="M0 0 C-0.83 0.29 -1.65 0.58 -2.5 0.88 C-3.33 1.25 -4.15 1.62 -5 2 C-5 2.66 -5 3.32 -5 4 C-5.78 4.43 -6.57 4.87 -7.38 5.31 C-10.5 7.32 -10.92 8.52 -12 12 C-13.89 16.78 -13.89 16.78 -15 19 C-14.01 19 -13.02 19 -12 19 C-12.31 21.44 -12.31 21.44 -13 24 C-13.99 24.33 -14.98 24.66 -16 25 C-15.67 23.68 -15.34 22.36 -15 21 C-17 23 -17 23 -17 26 C-13.02 30.11 -8.35 31.46 -3 33 C-3.19 35.44 -3.19 35.44 -4 38 C-8.53 40.13 -11.71 37.9 -16 36 C-16.5 36.16 -16.5 36.16 -19 37 C-19.5 37.16 -19.5 37.16 -22 38 C-24.03 43.12 -25 48.53 -24 54 C-22.55 56.58 -20.85 58.68 -19 61 C-19.33 61.66 -19.66 62.32 -20 63 C-20.98 61.71 -21.96 60.42 -22.94 59.12 C-23.48 58.41 -24.03 57.69 -24.59 56.95 C-28.58 51.44 -26.6 45.5 -25.1 39.23 C-16.15 6.08 -16.15 6.08 -5 0 C-2 -1 -2 -1 0 0 Z " fill="#594639" transform="translate(47,49)"/>
<path d="M0 0 C5.49 1.16 7.93 2.29 11 7 C11.83 10.16 11.83 10.16 12.25 13.5 C12.4 14.6 12.55 15.71 12.7 16.84 C12.96 19.6 13.06 22.24 13 25 C13 25.99 13 26.98 13 28 C11.02 28.33 9.04 28.66 7 29 C6.87 30.28 6.73 31.55 6.6 32.87 C6.42 34.54 6.24 36.21 6.06 37.88 C5.98 38.72 5.89 39.56 5.8 40.43 C5.71 41.23 5.62 42.04 5.54 42.87 C5.46 43.61 5.38 44.35 5.3 45.12 C5 47 5 47 4 49 C3.34 48.67 2.68 48.34 2 48 C1.82 45.46 1.77 43.04 1.81 40.5 C1.81 40.15 1.81 40.15 1.81 38.37 C1.86 33.14 1.86 33.14 3 32 C3.92 21.36 3.94 10.02 0 0 Z " fill="#944B2E" transform="translate(88,49)"/>
<path d="M0 0 C5.04 -0.73 7.36 -0.17 11.31 3.12 C14.49 6.21 16.46 8.47 17 13 C16.44 17.15 15.32 21.03 14 25 C13.01 25 12.02 25 11 25 C10.67 25.99 10.34 26.98 10 28 C9.38 24.62 9.38 24.62 9 21 C11 19 11 19 14 19 C13.34 16.69 12.68 14.38 12 12 C11.59 12.01 11.59 12.01 9.52 12.04 C8.98 12.04 8.98 12.04 6.25 12.06 C5.72 12.07 5.72 12.07 3.02 12.1 C0.44 12.01 -1.61 11.92 -4 11 C-5.12 8.56 -5.12 8.56 -6 6 C-6.66 5.34 -7.32 4.68 -8 4 C-8 3.34 -8 2.68 -8 2 C-5.11 1.17 -3.11 1 0 1 C0 0.67 0 0.34 0 0 Z " fill="#3F2C2F" transform="translate(76,2)"/>
<path d="M0 0 C2.44 3.66 2.92 7.13 3.62 11.38 C3.76 12.13 3.89 12.89 4.03 13.66 C4.69 17.48 5.17 21.11 5 25 C4.34 24.67 3.68 24.34 3 24 C-2.73 26.45 -2.73 26.45 -4 29 C-4.23 31.55 -4.42 34.07 -4.56 36.62 C-4.61 37.33 -4.65 38.04 -4.69 38.77 C-4.8 40.51 -4.9 42.26 -5 44 C-1.04 44.66 2.92 45.32 7 46 C7 46.33 7 46.66 7 47 C2.08 47.17 -1.5 47.25 -6 45 C-5.46 48.8 -3.8 50.47 -1 53 C-1.44 52.91 -1.44 52.91 -3.69 52.44 C-6.85 52.02 -8.95 52.19 -12 53 C-11.34 52.55 -10.68 52.09 -10 51.62 C-9.34 51.09 -8.68 50.55 -8 50 C-8 49.34 -8 48.68 -8 48 C-8.66 47.67 -9.32 47.34 -10 47 C-10.33 46.34 -10.66 45.68 -11 45 C-13.07 45.02 -13.07 45.02 -15.56 45.38 C-16.39 45.49 -17.22 45.6 -18.07 45.71 C-18.7 45.81 -19.34 45.9 -20 46 C-17.48 43.48 -15.86 43.44 -12.38 42.88 C-11.87 42.79 -11.87 42.79 -9.34 42.37 C-8.95 42.31 -8.95 42.31 -7 42 C-7.33 41.67 -7.66 41.34 -8 41 C-9.98 41.49 -11.95 41.99 -13.92 42.52 C-16.33 43.08 -18.54 43.15 -21 43 C-20.01 42.34 -19.02 41.68 -18 41 C-16.81 38.88 -16.81 38.88 -16 37 C-15.34 37.99 -14.68 38.98 -14 40 C-13.01 40 -12.02 40 -11 40 C-10.67 38.68 -10.34 37.36 -10 36 C-9.01 36.99 -8.02 37.98 -7 39 C-6.01 28.11 -5.02 17.22 -4 6 C-3.67 6 -3.34 6 -3 6 C-3 10.29 -3 14.58 -3 19 C-1.35 18.34 0.3 17.68 2 17 C1.67 16.34 1.34 15.68 1 15 C0.77 12.45 0.58 9.93 0.44 7.38 C0.39 6.67 0.35 5.96 0.31 5.23 C0.2 3.49 0.1 1.74 0 0 Z " fill="#50392E" transform="translate(99,59)"/>
<path d="M0 0 C5.42 1.66 10.17 4.98 13.66 9.42 C14.6 11.8 14.6 11.8 14.6 15.8 C13.94 15.8 13.28 15.8 12.6 15.8 C12.27 14.81 11.94 13.82 11.6 12.8 C11.27 14.45 10.94 16.1 10.6 17.8 C9.94 17.14 9.28 16.48 8.6 15.8 C8.27 16.46 7.94 17.12 7.6 17.8 C6.94 17.8 6.28 17.8 5.6 17.8 C5.27 16.48 4.94 15.16 4.6 13.8 C4.27 15.12 3.94 16.44 3.6 17.8 C1.6 17.8 1.6 17.8 0.2 16.44 C-5.99 9.06 -5.99 9.06 -7.4 5.8 C-6.32 2.02 -4.16 -0.35 0 0 Z " fill="#C59661" transform="translate(55.3984375,114.203125)"/>
<path d="M0 0 C0.21 0.39 0.21 0.39 1.25 2.38 C3.63 5.95 5.98 6.68 10 8 C13.24 8.3 15.89 7.92 19 7 C19 6.34 19 5.68 19 5 C22.47 3.22 25.15 2.91 29 3 C25.58 8.1 22.94 11.74 17 14 C25.43 17.29 25.43 17.29 30 18 C30 18.33 30 18.66 30 19 C23.5 19.3 17.38 18.17 11 17 C12.32 16.67 13.64 16.34 15 16 C15 15.34 15 14.68 15 14 C13.84 14.1 12.69 14.21 11.5 14.31 C6.52 14.32 2.61 12.42 -1 9 C-1.72 6.83 -1.72 6.83 -2 5 C-2.66 5 -3.32 5 -4 5 C-4.33 3.35 -4.66 1.7 -5 0 C-3 -1 -3 -1 0 0 Z " fill="#695D4F" transform="translate(90,113)"/>
<path d="M0 0 C0.99 0.33 1.98 0.66 3 1 C3 2.65 3 4.3 3 6 C3.66 6 4.32 6 5 6 C4.01 8.97 3.02 11.94 2 15 C2.66 15.33 3.32 15.66 4 16 C2.35 16.33 0.7 16.66 -1 17 C-1 17.99 -1 18.98 -1 20 C-0.01 20.33 0.98 20.66 2 21 C3.65 23.6 4 24.86 4 28 C5.98 28.66 7.96 29.32 10 30 C9.34 31.65 9.34 31.65 6 40 C5.34 39.01 4.68 38.02 4 37 C3.36 36.69 2.72 36.38 2.06 36.06 C-0.49 34.75 -1.55 33.46 -3 31 C-3 29.68 -3 28.36 -3 27 C-3.05 26.58 -3.05 26.58 -3.32 24.48 C-4.38 16.21 -3.3 8.99 -1 1 C-0.67 0.67 -0.34 0.34 0 0 Z " fill="#733623" transform="translate(49,71)"/>
<path d="M0 0 C0.24 0.99 0.48 1.99 0.73 3.01 C1.07 4.38 1.41 5.75 1.75 7.12 C1.93 7.85 2.11 8.57 2.29 9.31 C3.48 14.06 4.79 18.75 6.19 23.44 C7.72 28.67 8.63 33.56 9 39 C8.01 39 7.02 39 6 39 C5.34 39.66 4.68 40.32 4 41 C3.55 40.2 3.09 39.39 2.62 38.56 C1 36 1 36 -1 35 C-0.44 31.66 0.35 28.97 2 26 C1.01 26.33 0.02 26.66 -1 27 C-0.93 26.7 -0.93 26.7 -0.56 25.17 C-0.38 24.37 -0.19 23.57 0 22.75 C0.19 21.96 0.37 21.17 0.56 20.36 C1 18 1 18 1 14 C0.34 14 -0.32 14 -1 14 C-1.33 14.66 -1.66 15.32 -2 16 C-2.18 15.41 -2.36 14.82 -2.55 14.21 C-3.96 9.79 -5.38 5.87 -8 2 C-2.25 0 -2.25 0 0 0 Z " fill="#CF4A34" transform="translate(52,51)"/>
<path d="M0 0 C0.48 -0.01 0.48 -0.01 2.9 -0.04 C5.71 0.19 7.36 0.49 9.62 2.19 C9.62 3.51 9.62 4.83 9.62 6.19 C8.97 6.19 8.31 6.19 7.62 6.19 C7.95 8.5 8.28 10.81 8.62 13.19 C6.62 11.19 6.62 11.19 6.62 7.19 C5.14 7.25 3.67 7.34 2.19 7.44 C1.36 7.48 0.54 7.53 -0.31 7.58 C-0.65 7.68 -0.65 7.68 -2.38 8.19 C-3.16 10.23 -3.16 10.23 -3.38 12.19 C-5.03 12.19 -6.67 12.19 -8.38 12.19 C-8.19 12.79 -8 13.38 -7.81 14 C-7.38 16.19 -7.38 16.19 -8.38 19.19 C-7.94 21.38 -7.94 21.38 -7.38 23.19 C-8.36 23.19 -9.36 23.19 -10.38 23.19 C-10.7 23.85 -11.03 24.51 -11.38 25.19 C-11.7 24.2 -12.03 23.21 -12.38 22.19 C-13.03 22.19 -13.69 22.19 -14.38 22.19 C-14.7 19.88 -15.03 17.57 -15.38 15.19 C-14.72 15.19 -14.06 15.19 -13.38 15.19 C-13.08 14.78 -13.08 14.78 -11.56 12.69 C-9.38 10.19 -9.38 10.19 -6.62 9.88 C-6.25 9.93 -6.25 9.93 -4.38 10.19 C-4.38 9.53 -4.38 8.87 -4.38 8.19 C-6.87 7.06 -6.87 7.06 -9.38 6.19 C-7.33 0.48 -5.96 0.04 0 0 Z " fill="#63422A" transform="translate(132.375,84.8125)"/>
<path d="M0 0 C0.66 0.33 1.32 0.66 2 1 C0.35 2.98 -1.3 4.96 -3 7 C-2.67 7.33 -2.34 7.66 -2 8 C0.23 14.7 -4.7 24.03 -8 30 C-10.55 32.91 -11.72 32.97 -15.62 33.38 C-19 33 -19 33 -21 30 C-22.16 29.84 -23.31 29.67 -24.5 29.5 C-28 29 -28 29 -30 26 C-29.35 25.95 -28.7 25.9 -28.02 25.85 C-23.07 25.43 -18.67 24.84 -14 23 C-14 26 -14 26 -15 27 C-8.63 23.27 -6.64 20.16 -5 13 C-5.66 13 -6.32 13 -7 13 C-5.75 7.31 -3.96 4.27 0 0 Z " fill="#944028" transform="translate(33,120)"/>
<path d="M0 0 C16.45 0.61 16.45 0.61 22 4 C22 4.66 22 5.32 22 6 C21.09 6.25 20.19 6.5 19.25 6.75 C15.79 8.08 14.16 9.01 12 12 C11.62 15.19 11.62 15.19 12 18 C12.66 18.33 13.32 18.66 14 19 C12.19 19.05 10.38 19.09 8.56 19.12 C8.06 19.14 8.06 19.14 5.5 19.2 C4.68 19.13 3.85 19.07 3 19 C2.67 18.34 2.34 17.68 2 17 C2.99 16.67 3.98 16.34 5 16 C4.98 15.32 4.95 14.65 4.93 13.95 C4.91 13.06 4.89 12.17 4.88 11.25 C4.85 10.37 4.83 9.49 4.8 8.58 C5.01 5.89 5.63 4.3 7 2 C4.69 1.67 2.38 1.34 0 1 C0 0.67 0 0.34 0 0 Z " fill="#726046" transform="translate(106,89)"/>
<path d="M0 0 C4.36 0.51 7.95 1.36 12 3 C13.32 3 14.64 3 16 3 C17.26 8.07 18.27 12.73 18 18 C14.12 16.38 14.12 16.38 13 13 C10.71 12.49 10.71 12.49 7.94 12.31 C7.48 12.28 7.48 12.28 5.15 12.11 C4.8 12.09 4.8 12.09 3 12 C5.69 9.31 7.32 9.84 11 10 C9.68 9.34 8.36 8.68 7 8 C7 8.33 7 8.66 7 9 C0.38 11 0.38 11 -3 11 C-2.01 7.37 -1.02 3.74 0 0 Z " fill="#A27A4D" transform="translate(27,84)"/>
<path d="M0 0 C3.9 0 6.38 0.68 10 2 C9.96 2.95 9.92 3.9 9.88 4.88 C10 8 10 8 12 10 C11.67 10.16 11.67 10.16 10 11 C11.32 11.33 12.64 11.66 14 12 C14.12 16.88 14.12 16.88 13 18 C5.84 18.7 5.84 18.7 2.62 16 C-0.2 10.78 -1.83 5.85 0 0 Z " fill="#C99761" transform="translate(72,25)"/>
<path d="M0 0 C4.32 1.67 4.43 2.45 6 6.62 C7.18 10.27 8.05 13.54 7.56 17.38 C4.13 19.67 2.58 19.55 -1.44 19.38 C-1.54 18.14 -1.64 16.9 -1.75 15.62 C-2.19 12.02 -3.05 10.16 -5.44 7.38 C-6.31 5.31 -6.31 5.31 -6.44 3.38 C-4.76 0.34 -3.45 0.38 0 0 Z " fill="#8A5E32" transform="translate(80.4375,111.625)"/>
<path d="M0 0 C4.75 1.88 4.75 1.88 7 3 C7.27 6.13 7.27 6.13 7.25 10.12 C7.26 11.43 7.26 12.73 7.27 14.07 C6.99 18.09 6.24 21.2 5 25 C0.77 23.69 -3.07 22.06 -7 20 C-6 18 -6 18 -4.12 17.12 C-1.55 15.76 -0.42 14.54 1 12 C0.62 10.06 0.62 10.06 0 8 C0.33 6.33 0.66 4.67 1 3 C0.67 2.01 0.34 1.02 0 0 Z " fill="#CD4A34" transform="translate(40,56)"/>
<path d="M0 0 C3.26 3.17 6.22 6.4 9 10 C8.02 7.07 6.89 5.39 5 3 C5.66 2.01 6.32 1.02 7 0 C7.66 0 8.32 0 9 0 C9 0.99 9 1.98 9 3 C9.66 3 10.32 3 11 3 C11 3.66 11 4.32 11 5 C11.66 5 12.32 5 13 5 C13.33 7.64 13.66 10.28 14 13 C13.34 12.67 12.68 12.34 12 12 C11.76 12.64 11.53 13.29 11.29 13.95 C10 16 10 16 7.87 16.61 C7.07 16.66 6.26 16.7 5.44 16.75 C4.63 16.81 3.83 16.86 3 16.92 C2 16.96 1 17 0 17 C-0.19 14.35 -0.38 11.71 -0.56 9.06 C-0.62 8.31 -0.67 7.55 -0.73 6.78 C-1.11 1.11 -1.11 1.11 0 0 Z " fill="#4E4148" transform="translate(71,85)"/>
<path d="M0 0 C0.3 0.38 0.3 0.38 1.81 2.31 C4 5 4 5 5.75 6.69 C7 8 7 8 7 10 C7.66 10 8.32 10 9 10 C9 8.02 9 6.04 9 4 C11 6 11 6 11 10 C11.66 10 12.32 10 13 10 C13 8.35 13 6.7 13 5 C15 8 15 8 16 10 C17.32 10.66 18.64 11.32 20 12 C15.38 12.66 10.76 13.32 6 14 C6.33 13.34 6.66 12.68 7 12 C3.37 12.33 -0.26 12.66 -4 13 C-4.33 11.68 -4.66 10.36 -5 9 C-4.67 8.67 -4.34 8.34 -4 8 C-7.3 8 -10.6 8 -14 8 C-10.49 5.37 -8.78 4.43 -4.75 3.31 C-4.3 3.19 -4.3 3.19 -2.05 2.55 C-1.37 2.37 -0.7 2.19 0 2 C0 1.34 0 0.68 0 0 Z " fill="#694D36" transform="translate(50,122)"/>
<path d="M0 0 C0 0.66 0 1.32 0 2 C1.65 2 3.3 2 5 2 C5 2.66 5 3.32 5 4 C6.16 3.83 6.16 3.83 12 3 C12 3.99 12 4.98 12 6 C11.67 6.17 11.67 6.17 10 7 C10 7.66 10 8.32 10 9 C5.74 11.8 1.76 11.17 -3 10 C-7.01 7.61 -8.64 5.44 -10 1 C-6.15 -1.57 -4.41 -0.83 0 0 Z " fill="#A5462D" transform="translate(99,111)"/>
<path d="M0 0 C0.69 3.56 0.69 3.56 1 7 C0.34 7.33 0.34 7.33 -3 9 C-2.67 10.32 -2.34 11.64 -2 13 C-1.01 13 -0.02 13 1 13 C1 15.64 1 18.28 1 21 C-2.27 20.44 -3.83 19.5 -6 17 C-5.67 16.67 -5.34 16.34 -5 16 C-5.15 13.12 -5.66 10.56 -7 8 C-10.62 7 -10.62 7 -14 7 C-13.12 1.12 -13.12 1.12 -12 0 C-10.55 -0.26 -9.09 -0.46 -7.62 -0.62 C-6.83 -0.72 -6.04 -0.82 -5.23 -0.91 C-3 -1 -3 -1 0 0 Z " fill="#C79863" transform="translate(89,14)"/>
<path d="M0 0 C2 1 2 1 2.88 3.75 C4.07 7.2 5.74 9.19 8 12 C7.67 12.66 7.34 13.32 7 14 C6.17 13.5 6.17 13.5 2 11 C2.21 11.62 2.41 12.24 2.62 12.88 C2.75 13.58 2.87 14.28 3 15 C2.34 15.66 1.68 16.32 1 17 C0.34 16.01 -0.32 15.02 -1 14 C-1.99 14 -2.98 14 -4 14 C-4 16.31 -4 18.62 -4 21 C-4.66 20.67 -5.32 20.34 -6 20 C-6.41 17.93 -6.41 17.93 -6.62 15.44 C-6.7 14.61 -6.77 13.78 -6.85 12.93 C-6.9 12.3 -6.95 11.66 -7 11 C-7.66 11 -8.32 11 -9 11 C-9.33 10.34 -9.66 9.68 -10 9 C-12.06 8.38 -12.06 8.38 -14 8 C-12.04 7 -10.09 6 -8.12 5 C-7.58 4.72 -7.58 4.72 -4.82 3.31 C-2 2 -2 2 0 2 C0 1.34 0 0.68 0 0 Z " fill="#58463A" transform="translate(61,39)"/>
<path d="M0 0 C0.66 0.33 1.32 0.66 2 1 C1.34 2.98 0.68 4.96 0 7 C2.31 7 4.62 7 7 7 C7.2 7.63 7.41 8.25 7.62 8.9 C7.76 9.31 7.76 9.31 8.44 11.38 C8.7 12.19 8.97 13 9.25 13.84 C10.6 17.72 10.6 17.72 12.69 19.19 C14 21 14 21 13.19 24.69 C12.8 25.78 12.4 26.87 12 28 C11.67 28 11.34 28 11 28 C11 26.35 11 24.7 11 23 C8.69 23 6.38 23 4 23 C4.52 22.57 5.03 22.13 5.56 21.69 C6.04 21.13 6.51 20.57 7 20 C6.67 19.01 6.34 18.02 6 17 C6.44 14.81 6.44 14.81 7 13 C2.25 11.88 2.25 11.88 0 13 C-0.99 12.67 -1.98 12.34 -3 12 C-3.66 13.65 -4.32 15.3 -5 17 C-5.99 16.67 -6.98 16.34 -8 16 C-7.34 16 -6.68 16 -6 16 C-6.1 15.2 -6.21 14.39 -6.31 13.56 C-5.88 8.67 -3.55 3.55 0 0 Z " fill="#87633C" transform="translate(75,14)"/>
<path d="M0 0 C1.44 4.78 1.42 9.73 1.72 14.69 C2.23 20.68 3 22.41 8 26 C8.33 25.34 8.66 24.68 9 24 C9.33 24.66 9.66 25.32 10 26 C11.07 24.04 12.07 22.03 13 20 C12.67 19.34 12.34 18.68 12 18 C13.32 18 14.64 18 16 18 C16 18.66 16 19.32 16 20 C16.42 19.95 16.42 19.95 18.52 19.71 C19.61 19.6 20.69 19.49 21.81 19.38 C22.89 19.26 23.97 19.14 25.08 19.02 C28 19 28 19 31 21 C29.35 21.16 29.35 21.16 21 22 C22.32 22.66 23.64 23.32 25 24 C21.04 23.67 17.08 23.34 13 23 C14.32 24.32 15.64 25.64 17 27 C17 27.66 17 28.32 17 29 C16.34 29 15.68 29 15 29 C15 29.66 15 30.32 15 31 C13 32.12 13 32.12 11 33 C10.84 32.5 10.84 32.5 10 30 C9.01 29.67 8.02 29.34 7 29 C7 28.34 7 27.68 7 27 C6.42 26.73 5.84 26.46 5.25 26.19 C2.19 24.57 0.9 22.91 -1 20 C-1.5 17.19 -1.78 14.76 -1.88 11.94 C-1.92 11.23 -1.97 10.52 -2.02 9.79 C-2.2 6 -2.15 3.21 0 0 Z " fill="#402C1F" transform="translate(45,82)"/>
<path d="M0 0 C5.19 -0.21 9.13 0.41 14 2 C14 1.34 14 0.68 14 0 C14.66 0.33 15.32 0.66 16 1 C15.67 1.66 15.34 2.32 15 3 C15.39 2.92 15.39 2.92 17.34 2.49 C17.84 2.39 17.84 2.39 20.38 1.88 C21.37 1.67 22.37 1.46 23.4 1.24 C23.83 1.2 23.83 1.2 26 1 C26.66 1.66 27.32 2.32 28 3 C26.78 3.43 25.57 3.87 24.31 4.31 C21.73 5.26 19.76 6.16 17.44 7.69 C12.26 10.48 7.22 9.04 2 7 C2.66 6.67 3.32 6.34 4 6 C3.34 5.38 2.68 4.76 2 4.12 C0 2 0 2 0 0 Z " fill="#883C27" transform="translate(58,105)"/>
<path d="M0 0 C1.81 1.38 1.81 1.38 3 3 C3 3.66 3 4.32 3 5 C1.03 6.37 -0.98 7.7 -3 9 C-3.66 9.66 -4.32 10.32 -5 11 C-5.33 11.16 -5.33 11.16 -7 12 C-7.62 14.06 -7.62 14.06 -8 16 C-10.81 15 -11.79 14.51 -12.94 11.69 C-13.04 7.08 -10.82 4.8 -7.62 1.69 C-4.7 -0.19 -3.4 -0.63 0 0 Z " fill="#5D5842" transform="translate(52,109)"/>
</svg>
