<!-- Generator: visioncortex VTracer 0.6.12 -->
<svg xmlns="http://www.w3.org/2000/svg" viewBox="0 0 204 224" width="204" height="224" shape-rendering="geometricPrecision">
<path d="M0 0 C0.8 0.6 1.7 1.1 2.5 1.7 C5.1 3.4 7.5 5.2 10 7 C14.7 10.2 19.4 13.3 24.2 16.3 C28.6 19.1 32.9 21.9 37.2 24.8 C37.8 25.2 38.3 25.6 38.9 26 C43 28.8 43 28.8 43 31 C44.7 31.7 46.3 32.4 48 33 C52.7 35.9 56.4 38.4 58.4 43.6 C57.8 48.9 54.7 50.9 50.4 53.6 C47.2 56.8 47 59.8 46.8 64.1 C46.8 64.5 46.8 64.5 46.6 66.3 C46.5 68.4 46.5 68.4 47 72 C48 72.2 49 72.5 50 72.7 C53 74 53 74 53.5 77.8 C53.5 79.4 53.4 81 53.3 82.6 C53.2 84.4 53.1 86.1 53.1 87.9 C53 90.7 52.8 93.4 52.7 96.2 C52.5 98.9 52.4 101.6 52.3 104.2 C52.3 105.1 52.2 105.9 52.1 106.8 C52.1 109.1 52.1 109.1 53 113 C55.3 114.3 57.3 114.9 59.8 115.5 C62 116 62 116 64.4 118 C68.2 121 72.5 122.1 77.1 123.6 C78.8 124.2 80.6 124.8 82.4 125.4 C82.8 125.5 82.8 125.5 84.8 126.2 C85.5 126.5 86.2 126.7 87 127 C87.7 127.2 88.5 127.4 89.3 127.6 C92.3 130.1 91.6 133.9 91.6 137.6 C91.6 138.4 91.6 139.3 91.6 140.2 C91.6 142 91.6 143.8 91.6 145.6 C91.6 148.4 91.6 151.1 91.6 153.9 C91.6 155.6 91.6 157.4 91.6 159.1 C91.6 160 91.7 160.8 91.7 161.7 C91.6 168.2 89.5 170 83.8 173.2 C83.1 173.6 82.3 173.9 81.6 174.3 C80.7 174.7 79.8 175.1 78.9 175.6 C77.9 176 76.9 176.5 75.9 176.9 C73.6 178 71.4 179.1 69.1 180.1 C68.8 180.3 68.8 180.3 67.3 181 C60.8 184.1 54.4 187.2 48 190.4 C43.3 192.7 38.6 195 33.9 197.2 C32.1 198.1 30.2 199 28.4 199.9 C27.5 200.4 26.6 200.8 25.7 201.3 C21 203.5 16.4 205.8 11.7 208.2 C8.9 209.7 6 211.2 3.1 212.6 C2.1 213.2 1.1 213.7 0.1 214.2 C-7.9 218.2 -12.4 216.1 -20 212 C-22.2 211 -24.4 209.9 -26.5 208.9 C-28.9 207.8 -31.2 206.6 -33.5 205.5 C-36.1 204.2 -38.6 203 -41.2 201.8 C-41.9 201.4 -42.5 201.1 -43.2 200.8 C-49.8 197.6 -56.4 194.6 -63 191.5 C-73 186.9 -83 182.1 -93 177.3 C-93.6 177 -94.3 176.7 -94.9 176.4 C-98.6 174.6 -102.3 172.8 -106 171 C-106.8 170.7 -107.5 170.4 -108.3 170.1 C-110.8 168.5 -110.5 167.3 -110.6 164.4 C-110.6 164 -110.6 164 -110.7 161.6 C-110.7 160.6 -110.7 159.6 -110.8 158.6 C-110.8 157.6 -110.8 156.6 -110.8 155.6 C-110.9 152.7 -111 149.9 -111 147 C-111 146.4 -111 146.4 -111.1 143.1 C-111.3 129.8 -111.3 129.8 -107.7 127.5 C-107.2 127.3 -107.2 127.3 -104.8 126.5 C-103.7 126.1 -102.6 125.7 -101.5 125.3 C-100.4 124.9 -99.3 124.6 -98.1 124.2 C-97 123.8 -95.9 123.4 -94.7 123 C-90.8 121.6 -86.9 120.3 -83 119 C-83.2 118.1 -83.3 117.3 -83.5 116.4 C-85.3 104.8 -84.5 95.6 -76.8 86.4 C-75 85 -75 85 -73 85 C-75.3 79 -78.5 74 -82.1 68.8 C-82.6 67.9 -83.1 67.1 -83.7 66.3 C-84.7 64.8 -85.7 63.4 -86.7 61.9 C-87.8 60.3 -88.9 58.6 -90 57 C-90 57.7 -90 58.4 -89.9 59.2 C-89.9 62.4 -89.8 65.7 -89.8 68.9 C-89.7 69.5 -89.7 69.5 -89.6 72.4 C-89.6 73.5 -89.6 74.5 -89.6 75.7 C-89.6 76.7 -89.6 77.7 -89.5 78.7 C-90 81 -90 81 -92 81.8 C-92.7 81.9 -93.3 81.9 -94 82 C-94.3 80.7 -94.7 79.4 -95 78 C-94.7 78 -94.3 78 -94 78 C-94 73.7 -94 69.5 -93.9 65.2 C-93.9 64 -93.9 62.8 -93.9 61.5 C-93.9 60.3 -93.9 59.2 -93.9 58 C-93.9 56.9 -93.9 55.8 -93.9 54.7 C-94 52 -94 52 -95 49 C-94.7 48.3 -94.3 47.7 -94 47 C-91 47.2 -89.5 47.5 -87.3 49.7 C-84.2 52.8 -80.5 54.9 -76.8 57.2 C-76 57.7 -75.3 58.2 -74.5 58.6 C-72.7 59.8 -70.8 60.9 -69 62 C-68.6 54.5 -68.6 54.5 -70.5 52.1 C-71.1 51.7 -71.8 51.2 -72.4 50.8 C-75.8 48.6 -76.8 47.1 -77 43 C-73.3 35.5 -64.3 30.7 -57.6 26.1 C-55.7 24.8 -53.9 23.4 -52.1 22 C-47.7 18.6 -42.9 15.8 -38.2 12.9 C-33.7 10.1 -29.4 7.2 -25.1 4.2 C-24.5 3.8 -24.5 3.8 -21.9 2 C-20.1 0.8 -18.3 -0.5 -16.5 -1.8 C-9.9 -6.4 -6.3 -4.3 0 0 Z " fill="#BC7A2F" transform="translate(112,6)"/>
<path d="M0 0 C0 14.5 0 29 0 44 C-0.7 44 -1.3 44 -2 44 C1.6 48.4 6.1 50.1 11.3 52.1 C12.2 52.5 13.1 52.8 14 53.2 C20.8 55.8 27.1 57 34.3 57.4 C35.2 57.6 36.1 57.8 37 58 C37.6 60.4 37.6 60.4 38 63 C40 64.4 40 64.4 42.8 65.5 C43.7 65.9 44.7 66.3 45.8 66.7 C46.8 67.1 47.9 67.6 49 68 C50.1 68.5 51.2 69 52.4 69.5 C52.9 69.7 52.9 69.7 55.8 70.9 C56.8 71.3 57.8 71.7 58.9 72.2 C65.3 73.9 70.6 71.6 76.4 68.8 C78 68.1 79.6 67.4 81.1 66.7 C82 66.3 82.9 65.8 83.9 65.4 C89.7 62.8 95.6 60.2 101.5 57.6 C103.7 56.6 105.8 55.7 107.9 54.7 C109.3 54.2 110.6 53.6 111.9 53 C113.1 52.5 114.3 51.9 115.6 51.4 C118.1 50.4 120.3 49.6 122.9 49 C124 48.7 125 48.3 126 48 C126 47 126 46 126 45 C127.1 44.7 128.1 44.4 129.2 44.1 C134.5 42.6 136.3 40.1 138 35 C145.6 37.6 153.2 40.3 161 43 C157.4 45.7 154.2 47.3 150 48.8 C144.3 51 138.8 53.5 133.3 56.3 C129.1 58.4 124.8 60.4 120.5 62.3 C119.7 62.7 118.9 63 118.1 63.4 C117.4 63.7 116.7 64 115.9 64.4 C115.2 64.7 114.6 64.9 113.9 65.2 C112 66 110 66.5 108 67 C108.3 65.3 108.7 63.7 109 62 C106 63.3 103.1 64.6 100 66 C102.3 66.3 104.6 66.7 107 67 C107 67.7 107 68.3 107 69 C107.3 69 107.7 69 108 69 C108.3 71.3 108.3 71.3 108 74 C105.8 75.6 105.8 75.6 103 76.8 C102.1 77.2 101.1 77.7 100.2 78.1 C99.5 78.4 98.7 78.7 98 79 C98.8 78.8 98.8 78.8 103 78 C102.5 82.7 102.5 82.7 99.9 84.3 C99.3 84.5 98.7 84.8 98 85 C102.4 83.7 106.3 82 110.4 79.9 C112.2 78.9 114.1 78 116 77 C112 78.7 108.1 80.3 104 82 C104 75.9 104.7 76.5 109 73 C109 72.2 108.9 71.4 108.9 70.5 C109 68 109 68 110.8 66.6 C111.6 66.3 112.5 65.9 113.3 65.5 C114.2 65.2 115.1 64.8 116 64.4 C117 64 117.9 63.6 118.9 63.2 C119.8 62.8 120.7 62.4 121.7 62 C128.6 59 128.6 59 131 59 C131 60.7 131 62.3 131 64 C133.6 63 136.3 62 139 61 C139.4 63.3 139.4 63.3 139 66 C135.5 67.8 135.5 67.8 132 69 C132.3 69.3 132.7 69.7 133 70 C133.4 72.4 133.4 72.4 133 75 C130.6 76.8 130.6 76.8 127.5 78.3 C126.5 78.8 125.5 79.3 124.4 79.9 C123.6 80.2 122.8 80.6 122 81 C124 80.3 126 79.7 128 79 C128 80.7 128 82.3 128 84 C129.3 84 130.6 84 132 84 C132 85.3 132 86.6 132 88 C132.2 87.1 132.3 86.2 132.5 85.2 C134.5 80.9 137.5 79.4 142 78 C142.7 78.3 143.3 78.7 144 79 C142.6 82.4 141.4 83.6 138 85 C138.3 85.7 138.7 86.3 139 87 C138 88 137 89 136 90 C136 91 136 92 136 93 C137 93.3 138 93.7 139 94 C137.2 94.8 135.4 95.7 133.6 96.5 C133.1 96.7 133.1 96.7 130.5 97.9 C128 99 128 99 127 99 C127 97 127 95 127 93 C126.3 93.4 125.5 93.8 124.8 94.2 C123.8 94.8 122.8 95.3 121.8 95.9 C120.8 96.4 119.9 96.9 118.9 97.5 C116 99 116 99 113.1 99.9 C112.4 100.3 111.7 100.6 111 101 C111 102.3 111 103.6 111 105 C111.9 104.6 112.8 104.1 113.8 103.7 C115 103.1 116.2 102.5 117.4 101.9 C118.6 101.4 119.7 100.8 121 100.2 C124 99 124 99 126 100 C126 100.7 126 101.3 126 102 C123.8 103.3 121.6 104.4 119.3 105.5 C118.6 105.8 117.8 106.2 117.1 106.5 C114.8 107.7 112.5 108.8 110.1 109.9 C109.3 110.3 108.5 110.6 107.7 111 C101.1 114.2 101.1 114.2 98 115.6 C93.7 117.7 89.4 119.8 85.1 122 C83.4 122.9 81.6 123.8 79.8 124.7 C77.7 125.8 75.6 126.9 73.5 128 C65.3 132.1 60.8 130.2 53 126 C50.8 125 48.6 123.9 46.5 122.9 C44.1 121.8 41.8 120.6 39.5 119.5 C36.9 118.2 34.4 117 31.8 115.8 C31.1 115.4 30.5 115.1 29.8 114.8 C23.2 111.6 16.6 108.6 10 105.5 C-0 100.9 -10 96.1 -20 91.3 C-20.6 91 -21.3 90.7 -21.9 90.4 C-25.6 88.6 -29.3 86.8 -33 85 C-33.8 84.7 -34.5 84.4 -35.3 84.1 C-37.8 82.5 -37.5 81.3 -37.6 78.4 C-37.6 77.5 -37.7 76.6 -37.7 75.6 C-37.7 74.6 -37.7 73.6 -37.8 72.6 C-37.8 71.6 -37.8 70.6 -37.8 69.6 C-37.9 66.7 -38 63.9 -38 61 C-38 59.7 -38.1 58.4 -38.1 57.1 C-38.1 54.4 -38.1 51.7 -38 49 C-38 48 -37.9 46.9 -37.9 45.9 C-36.1 40.1 -29.3 39.4 -24 38 C-19.7 37.4 -15.4 37.1 -11 37 C-11.7 38 -12.3 39 -13 40 C-11 39.3 -9 38.7 -7 38 C-7.1 37.5 -7.3 37 -7.4 36.4 C-10 25.8 -12.2 11.5 -4 3 C-3.5 2.4 -2.9 1.9 -2.4 1.3 C-1 0 -1 0 0 0 Z " fill="#76695C" transform="translate(39,92)"/>
<path d="M0 0 C0.8 0.6 1.7 1.1 2.5 1.7 C5.1 3.4 7.5 5.2 10 7 C14.7 10.2 19.4 13.3 24.2 16.3 C28.6 19.1 32.9 21.9 37.2 24.8 C37.8 25.2 38.3 25.6 38.9 26 C43 28.8 43 28.8 43 31 C44.7 31.7 46.3 32.4 48 33 C52.7 35.9 56.4 38.4 58.4 43.6 C57.7 50.1 52.1 52.8 47 56 C46.7 55.3 46.3 54.7 46 54 C43 55.3 40.1 56.6 37 58 C38.3 58 39.6 58 41 58 C41 62 41 65.9 41 70 C27.8 67.3 27.8 67.3 23 65 C23 64.3 23 63.7 23 63 C21.6 63.1 20.2 63.3 18.8 63.4 C18 63.5 17.2 63.6 16.4 63.7 C14 64 14 64 12.2 64.5 C7.6 65.6 2.8 65.4 -1.9 65.6 C-3 65.7 -4.1 65.7 -5.2 65.8 C-6.3 65.8 -7.3 65.9 -8.4 65.9 C-9.4 66 -10.3 66 -11.3 66 C-14 66 -16.4 65.6 -19 65 C-21 64.8 -23.1 64.7 -25.1 64.6 C-31.2 64.1 -37.1 63.2 -43 62 C-43 63 -43 64 -43 65 C-48.5 67.8 -56.3 71.1 -62 68 C-62.5 64.7 -62.5 61.5 -62.6 58.1 C-63.1 54.6 -63.3 54 -66.4 52.4 C-67.6 51.9 -68.8 51.5 -70 51 C-73 48.5 -73 48.5 -73 46 C-73.7 46 -74.3 46 -75 46 C-74.3 39.9 -70.8 37.4 -66 34 C-65.1 33.7 -64.3 33.4 -63.4 33.1 C-60 31.5 -58.6 28.9 -56.5 26 C-54.4 23.2 -52 21.8 -49 20 C-47.6 19.1 -46.2 18.1 -44.8 17.2 C-41.4 14.9 -38 12.7 -34.6 10.6 C-30.9 8.3 -27.4 5.9 -23.9 3.4 C-23.1 2.8 -22.2 2.2 -21.4 1.7 C-19.8 0.6 -18.3 -0.6 -16.7 -1.7 C-10 -6.3 -6.4 -4.4 0 0 Z " fill="#B78F4B" transform="translate(112,6)"/>
<path d="M0 0 C-0 0.3 -0 0.3 -0.1 1.7 C-0.2 4.3 -0.3 6.8 -0.4 9.4 C-0.4 10.3 -0.5 11.2 -0.5 12.1 C-0.5 12.5 -0.5 12.5 -0.6 14.6 C-0.6 15 -0.6 15 -0.7 17 C0 19 0 19 3 19.7 C6 21 6 21 6.5 24.8 C6.5 26.4 6.4 28 6.3 29.6 C6.2 31.4 6.1 33.1 6.1 34.9 C6 37.7 5.8 40.4 5.7 43.2 C5.5 45.9 5.4 48.6 5.3 51.2 C5.3 51.7 5.3 51.7 5.1 53.8 C5.1 56.1 5.1 56.1 6 60 C8.3 61.3 10.3 61.9 12.8 62.5 C15 63 15 63 17.4 65 C21.2 68 25.5 69.1 30.1 70.6 C31.8 71.2 33.6 71.8 35.4 72.4 C36.2 72.7 37 72.9 37.8 73.2 C38.5 73.5 39.2 73.7 40 74 C40.4 74.1 40.4 74.1 42.3 74.6 C45.3 77.1 44.6 80.9 44.6 84.6 C44.6 85.4 44.6 86.3 44.6 87.2 C44.6 89 44.6 90.8 44.6 92.6 C44.6 95.4 44.6 98.1 44.6 100.9 C44.6 102.6 44.6 104.4 44.6 106.1 C44.6 107 44.7 107.8 44.7 108.7 C44.6 114 43.9 116.2 39 119 C37.1 120 35.2 121 33.3 121.9 C32.7 122.2 32.7 122.2 30 123.5 C28.8 124 27.7 124.5 26.6 125.1 C24.3 126.1 22.1 127.2 19.9 128.2 C18.9 128.7 17.9 129.1 16.9 129.6 C14.8 130.6 12.8 131.6 10.8 132.7 C8 134 8 134 6 133.5 C2.7 132.7 0.3 134.4 -2.7 135.9 C-9 139 -9 139 -10 139 C-10.2 134.2 -10.2 134.2 -8 132 C-6.3 131.2 -4.6 130.5 -2.9 129.8 C-1.1 129 0.6 128.2 2.3 127.3 C5 126 5 126 7 126 C7.6 128.5 7.6 128.5 8 131 C9.4 130.4 10.7 129.9 12.1 129.2 C12.8 128.9 13.6 128.6 14.3 128.3 C14.9 127.8 15.4 127.4 16 127 C15.7 125.1 15.7 125.1 15 123 C16.6 118.7 17.8 116.9 22 115 C22 114 22 113 22 112 C20.7 112.6 19.4 113.2 18.1 113.8 C17.7 113.9 17.7 113.9 15.8 114.7 C13.6 116.3 13.2 117.3 13 120 C13.7 120.3 14.3 120.7 15 121 C14 121 13 121 12 121 C12 119.7 12 118.4 12 117 C10.3 117.3 8.7 117.7 7 118 C7.3 116 7.7 114 8 112 C7.7 112.2 7.7 112.2 6.4 112.9 C5.6 113.3 4.9 113.7 4.2 114.1 C3.5 114.4 2.8 114.8 2 115.2 C0 116 0 116 -3 115 C-1.9 114.6 -0.9 114.1 0.2 113.6 C1.6 113 3 112.4 4.4 111.8 C5.1 111.5 5.9 111.2 6.6 110.9 C11.7 108.6 11.7 108.6 13.1 105.3 C13.1 104.6 13 103.8 13 103 C12.3 102.7 11.7 102.3 11 102 C16.8 99 16.8 99 19 99 C18.7 97.7 18.3 96.4 18 95 C16.8 95.3 16.8 95.3 11 97 C11 95.3 11 93.7 11 92 C10.4 92.3 9.8 92.5 9.2 92.8 C6.5 94.1 3.8 95.3 1.1 96.5 C0.7 96.7 0.7 96.7 -1.7 97.8 C-2.6 98.2 -3.5 98.6 -4.4 99 C-5.3 99.4 -6.1 99.8 -6.9 100.2 C-9 101 -9 101 -11 101 C-10.9 101.5 -10.9 101.5 -10.2 103.8 C-10 107 -10 107 -12.4 108.6 C-13.3 109.1 -14.1 109.5 -15 110 C-15 111.3 -15 112.6 -15 114 C-14.2 113.6 -13.5 113.3 -12.7 112.9 C-12.2 112.6 -12.2 112.6 -9.6 111.4 C-8.6 111 -7.6 110.5 -6.6 110 C-4 109 -4 109 -2 110 C-4.6 111.3 -7.1 112.6 -9.7 113.9 C-10.4 114.3 -11.1 114.7 -11.9 115.1 C-15.6 116.9 -18.8 118.5 -23 119 C-21.4 117.3 -20.1 116.1 -18 115 C-17.8 114.3 -17.8 114.3 -17 111 C-20 112 -22.9 113 -26 114 C-23.3 111.3 -21.8 110.3 -18.4 108.8 C-18 108.6 -18 108.6 -16.1 107.8 C-14 107 -14 107 -12 107 C-12.3 105.1 -12.3 105.1 -13 103 C-13.5 102.8 -13.5 102.8 -16 102 C-15.3 101.7 -14.7 101.3 -14 101 C-14.5 100.9 -14.5 100.9 -16.8 100.6 C-20 100 -20 100 -23 99 C-21.2 98.1 -19.5 97.3 -17.7 96.4 C-16.7 96 -15.7 95.5 -14.7 95 C-12 94 -12 94 -9 95 C-9.3 95.2 -9.3 95.2 -11 96 C-11.6 98.1 -11.6 98.1 -12 100 C-11.5 99.8 -11 99.5 -10.5 99.3 C-1.2 94.8 8.2 90.4 17.7 86.4 C22.2 84.5 26.7 82.4 31.2 80.3 C33.7 79.1 36.3 78 39 77 C32.2 73.8 25.2 71.3 18 69 C17.7 69.7 17.3 70.3 17 71 C17.7 71.3 18.3 71.7 19 72 C18.5 72.2 18.5 72.2 16 73 C15.2 73.8 14.4 74.7 13.6 75.6 C10.7 78.3 9.8 78.5 6 78 C6 79 6 80 6 81 C3.5 81.7 3.5 81.7 1 82 C1.3 81.3 1.3 81.3 3 78 C2.4 78.4 1.8 78.7 1.2 79.1 C-1.6 80.2 -2.5 79.6 -5 78 C-4.7 77.3 -4.3 76.7 -4 76 C-2.7 76 -1.4 76 0 76 C-0.5 75.7 -0.5 75.7 -3 74 C-2.1 71.3 -1.1 68.7 0 66 C1.3 67 2.6 68 4 69 C3.7 54.2 3.3 39.3 3 24 C-18 32 -18 32 -26.3 35.2 C-26.9 35.5 -26.9 35.5 -30 36.7 C-31.9 37.4 -33.7 38.1 -35.5 38.8 C-37.4 39.5 -39.2 40.3 -41.1 41 C-42.2 41.4 -43.2 41.8 -44.3 42.2 C-47 43 -47 43 -50 42 C-35.4 35.7 -35.4 35.7 -28 33 C-28.7 32.7 -29.3 32.3 -30 32 C-30 31.3 -30 30.7 -30 30 C-30.6 30.2 -31.1 30.4 -31.7 30.6 C-34.2 31.6 -36.8 32.6 -39.3 33.5 C-40.2 33.8 -41.1 34.2 -42 34.5 C-42.8 34.8 -43.7 35.1 -44.6 35.5 C-45.3 35.8 -46.1 36.1 -46.9 36.4 C-49 37 -49 37 -52 37 C-52 38.7 -52 40.3 -52 42 C-53.7 42 -55.3 42 -57 42 C-57 34.4 -57 26.8 -57 19 C-57.3 25.3 -57.7 31.5 -58 38 C-68.5 35.2 -68.5 35.2 -71.9 33.9 C-76.5 32.5 -81.1 32.7 -85.9 32.6 C-89.9 31.8 -90 30.5 -92 27 C-94.8 25.7 -94.8 25.7 -98 24.9 C-104.9 23 -104.9 23 -107 20 C-106.7 19.3 -106.3 18.7 -106 18 C-105.2 18.2 -104.3 18.4 -103.5 18.6 C-98.9 19.1 -95.1 18.2 -91 16 C-90.7 15 -90.3 14 -90 13 C-92.3 13.7 -94.6 14.3 -97 15 C-95.5 11.9 -93.2 12.4 -90 12 C-90 11 -90 10 -90 9 C-84.3 8.8 -79.3 9.4 -73.7 10.6 C-70.1 11.2 -66.7 11.1 -63 11 C-62 11.3 -61 11.7 -60 12 C-56.1 12.1 -52.2 11.9 -48.4 11.7 C-47.3 11.7 -46.3 11.6 -45.2 11.6 C-39.6 11.3 -34.3 10.8 -28.9 9.3 C-26.7 8.9 -25.2 9.3 -23 10 C-23.3 10.7 -23.7 11.3 -24 12 C-23.2 12.2 -22.4 12.4 -21.6 12.6 C-11.1 15.2 -11.1 15.2 -6 17 C-6 13 -6 9.1 -6 5 C-7.7 5.3 -9.3 5.7 -11 6 C-8.9 2.8 -8.3 2.5 -4.9 1.3 C-4.2 1.1 -3.5 0.8 -2.8 0.6 C-1 0 -1 0 0 0 Z " fill="#60422E" transform="translate(159,59)"/>
<path d="M0 0 C0 14.5 0 29 0 44 C-0.7 44 -1.3 44 -2 44 C1.6 48.4 6.1 50.1 11.3 52.1 C12.2 52.5 13.1 52.8 14 53.2 C20.8 55.8 27.1 57 34.3 57.4 C35.2 57.6 36.1 57.8 37 58 C37.6 60.4 37.6 60.4 38 63 C40 64.4 40 64.4 42.8 65.5 C43.2 65.7 43.2 65.7 45.8 66.7 C46.3 66.9 46.3 66.9 49 68 C49.5 68.2 49.5 68.2 52.3 69.4 C61.9 73.5 68.4 74 78.4 71.4 C84.8 69.8 89.7 70.3 96 72 C92.8 74.7 89.6 76 85.7 77.5 C83.9 78.2 82.1 78.9 80.2 79.6 C78.9 80.1 77.7 80.6 76.4 81.1 C65.7 84.9 65.7 84.9 63.9 90.3 C63.7 93.6 63.7 96.7 64 100 C63.3 100 62.7 100 62 100 C62.7 100.3 63.3 100.7 64 101 C64.2 103.9 64.2 103.9 64.1 107.6 C64.1 108.8 64.1 110 64.1 111.2 C64 112.1 64 113 64 114 C59.2 113.4 55.2 112 50.8 110.1 C49.6 109.6 48.4 109.1 47.1 108.6 C44.4 107.2 43 106.2 41 104 C36.3 100.5 31.5 98.3 25.9 96.6 C24 96 24 96 22 95 C21.9 92.4 21.9 92.4 22 90 C21.3 90 20.7 90 20 90 C20 91 20 92 20 93 C18.7 93 17.4 93 16 93 C16.3 94.3 16.7 95.6 17 97 C8.3 94.8 8.3 94.8 6.9 91.3 C7 90.5 7 89.8 7 89 C8 89 9 89 10 89 C10 87.3 10 85.7 10 84 C12.3 84.7 14.6 85.3 17 86 C17 84.3 17 82.7 17 81 C17.6 81.2 18.2 81.4 18.8 81.6 C19.6 81.9 20.4 82.2 21.2 82.4 C22 82.7 22.8 83 23.6 83.2 C25.7 83.9 27.9 84.5 30 85 C23.7 82.4 17.5 79.7 11 77 C12.3 77.7 13.6 78.3 15 79 C15.2 81.6 15.2 81.6 15 84 C9.8 82.4 4.9 80.5 0 78 C-0.7 78 -1.3 78 -2 78 C-2 79.7 -2 81.3 -2 83 C-3.4 82.5 -4.8 82.1 -6.2 81.6 C-6.6 81.5 -6.6 81.5 -8.6 80.9 C-10.9 80 -12.9 79.1 -15 78 C-15.7 77.7 -16.4 77.4 -17.1 77.1 C-22.9 74.6 -22.9 74.6 -23.5 71.2 C-23.3 70.5 -23.2 69.8 -23 69 C-21 69.3 -19 69.7 -17 70 C-17.7 69.7 -18.5 69.4 -19.2 69.1 C-19.7 68.9 -19.7 68.9 -22.1 67.8 C-22.5 67.6 -22.5 67.6 -24.9 66.6 C-27 65 -27 65 -26.7 62.4 C-26.5 61.6 -26.2 60.8 -26 60 C-27.3 59.3 -28.7 58.6 -30 58 C-30.8 55.4 -30.8 55.4 -31 53 C-27.1 54 -23.6 55.2 -20 57 C-19 57 -18 57 -17 57 C-16.1 55.1 -16.1 55.1 -16 53 C-17.4 51.8 -17.4 51.8 -19.6 50.9 C-20.4 50.6 -21.2 50.3 -22 49.9 C-22.8 49.6 -23.6 49.2 -24.4 48.9 C-26 48.2 -27.6 47.5 -29.2 46.8 C-30 46.5 -30.7 46.2 -31.4 45.9 C-31.9 45.6 -32.5 45.3 -33 45 C-33 44.3 -33 43.7 -33 43 C-30.7 41.8 -28.4 40.8 -25.9 39.9 C-25.3 39.6 -24.6 39.3 -23.9 39 C-19.4 37.2 -15.9 36.7 -11 37 C-11.7 38 -12.3 39 -13 40 C-11 39.3 -9 38.7 -7 38 C-7.1 37.5 -7.3 37 -7.4 36.4 C-10 25.8 -12.2 11.5 -4 3 C-3.7 2.7 -3.7 2.7 -2.4 1.3 C-1 0 -1 0 0 0 Z " fill="#B09F85" transform="translate(39,92)"/>
<path d="M0 0 C0.3 15.8 0.7 31.7 1 48 C-0.7 46.7 -2.3 45.4 -4 44 C-4.1 44.4 -4.1 44.4 -4.4 46.4 C-5 49 -5 49 -6 51 C-5.5 51.3 -5.5 51.3 -3 53 C-4.7 53.3 -6.3 53.7 -8 54 C-7.7 54.7 -7.3 55.3 -7 56 C-4.4 55.7 -2.3 55.2 0 54 C-0.4 56 -0.4 56 -1 58 C-1.7 58 -2.3 58 -3 58 C-3 58.7 -3 59.3 -3 60 C-5.3 61.2 -5.3 61.2 -8.5 62.7 C-9.6 63.2 -10.8 63.7 -12 64.2 C-13.3 64.8 -14.6 65.4 -15.9 65.9 C-17.3 66.5 -18.6 67.1 -19.9 67.7 C-21.9 68.6 -23.9 69.5 -26 70.3 C-30.4 72.3 -34.8 74.3 -39.2 76.3 C-39.8 76.6 -39.8 76.6 -42.6 77.9 C-44.8 78.9 -46.9 79.8 -49 80.8 C-57.2 84.6 -62.1 84.1 -70.4 80.4 C-71.5 80 -72.5 79.5 -73.6 79.1 C-74 78.9 -74 78.9 -76 78 C-72 76.7 -70.6 77.8 -66.8 79.4 C-66.3 79.7 -66.3 79.7 -63.5 80.9 C-62.7 81.2 -61.9 81.6 -61 82 C-60.8 76.6 -60.7 71.3 -60.5 65.9 C-60.5 65.1 -60.5 64.4 -60.4 63.5 C-60.1 52.5 -59.9 41.6 -60 30.6 C-60.1 24.2 -60.1 24.2 -59 22 C-59.6 21.9 -60.2 21.8 -60.8 21.6 C-65 20.7 -69 19.8 -73 18 C-69.5 16.8 -69.3 17.1 -66.1 18.6 C-56 22.1 -44.9 17.2 -35.5 13.4 C-33.2 12.5 -31 11.6 -28.7 10.7 C-27.6 10.2 -26.5 9.8 -25.3 9.3 C-20.2 7.3 -15.1 5.3 -9.9 3.4 C-9.5 3.2 -9.5 3.2 -7.2 2.3 C-6.4 2 -5.6 1.7 -4.8 1.4 C-4.1 1.1 -3.4 0.9 -2.6 0.6 C-1 0 -1 0 0 0 Z " fill="#825530" transform="translate(163,82)"/>
<path d="M0 0 C0.8 0.6 1.7 1.1 2.5 1.7 C5.1 3.4 7.5 5.2 10 7 C14.7 10.2 19.4 13.3 24.2 16.3 C28.6 19.1 32.9 21.9 37.2 24.8 C37.8 25.2 38.3 25.6 38.9 26 C43 28.8 43 28.8 43 31 C44.7 31.7 46.3 32.4 48 33 C52.7 35.9 56.4 38.4 58.4 43.6 C57.7 50.1 52.1 52.8 47 56 C46.7 55.3 46.3 54.7 46 54 C43 55.3 40.1 56.6 37 58 C38.3 58 39.6 58 41 58 C41 62 41 65.9 41 70 C23.9 66.5 23.9 66.5 21.7 62.8 C21.5 61.9 21.2 61 21 60 C20.3 58.6 19.6 57.2 18.9 55.9 C17.4 53.2 17 52.1 17 49 C16.1 49 15.1 49 14.1 49 C12.4 49 10.7 49 9 49 C9 49.3 9 49.7 9 50 C2.9 51.6 -3.4 51.2 -9.7 51.2 C-10.9 51.2 -12.1 51.2 -13.4 51.2 C-28.7 51.2 -28.7 51.2 -34 49 C-35.6 44.8 -35.6 41.8 -33 38 C-32.8 39.1 -32.6 40.3 -32.4 41.4 C-31 45 -31 45 -28 46.2 C-25 46 -25 46 -23.8 44.1 C-23.5 43.4 -23.3 42.7 -23 42 C-22.3 42 -21.7 42 -21 42 C-20.7 43 -20.3 44 -20 45 C-19.7 44 -19.3 43 -19 42 C-18.3 42 -17.7 42 -17 42 C-16.7 44 -16.3 46 -16 48 C-15.7 47.9 -15.7 47.9 -14.4 47.5 C-10.5 46.7 -6.6 46.6 -2.6 47.6 C-2.4 47.7 -2.4 47.7 -1 48 C-0.8 47.7 -0.8 47.7 0 46 C0.3 46.2 0.3 46.2 2 47 C4.4 46.7 4.4 46.7 7.1 46.2 C8 46 8.9 45.8 9.9 45.7 C10.2 45.6 10.2 45.6 12 45 C12 44.3 12 43.7 12 43 C12.7 43 13.3 43 14 43 C13.7 42.7 13.3 42.3 13 42 C12.7 41 12.3 40 12 39 C11 39 10 39 9 39 C8.3 39 7.7 39 7 39 C7.3 37.7 7.7 36.4 8 35 C7 35.3 6 35.7 5 36 C5 32 5 32 7 30.8 C7.7 30.5 8.3 30.3 9 30 C8.8 29.8 8.8 29.8 7.6 28.8 C5.9 26.9 4 24.7 4 22 C3.4 22 2.9 22 2.3 22 C-24.3 22.7 -24.3 22.7 -32.4 16.8 C-35.7 14.5 -37.3 14.9 -41 16 C-39 13.9 -37 12.2 -34.6 10.5 C-34 10.1 -33.3 9.6 -32.7 9.2 C-29.8 7.2 -26.9 5.3 -24 3.4 C-22.2 2.1 -20.4 0.9 -18.6 -0.5 C-10.9 -5.7 -7.4 -5.5 0 0 Z " fill="#A48352" transform="translate(112,6)"/>
<path d="M0 0 C-1.6 0.7 -3.2 1.3 -4.9 2 C-5.8 2.4 -6.7 2.7 -7.6 3.1 C-10 4 -10 4 -12 4 C-12 4.7 -12 5.3 -12 6 C-10.7 6.4 -9.3 6.7 -8 7 C-6.5 7.6 -5.1 8.2 -3.7 8.8 C-2.9 9.2 -2.1 9.6 -1.2 9.9 C-0.4 10.3 0.4 10.7 1.2 11.1 C1.7 11.3 1.7 11.3 3.8 12.2 C5.9 13.1 7.9 14.1 10 15 C7 16 7 16 5 15 C5.3 16.7 5.7 18.3 6 20 C1.2 19.1 1.2 19.1 -1 18 C-1.3 19 -1.7 20 -2 21 C-2 20.7 -2 20.7 -2.1 19.1 C-3.5 15.9 -5.8 15.8 -9 15 C-9 16.3 -9 17.6 -9 19 C-6 20.2 -6 20.2 -3 21 C-4 21.3 -5 21.7 -6 22 C-5.5 25.8 -4.4 26.7 -0.9 28.2 C-0.2 28.6 0.5 28.9 1.3 29.3 C1.6 29.4 1.6 29.4 3 30 C3.3 28.7 3.7 27.4 4 26 C4.3 28 4.7 30 5 32 C0.2 31.1 0.2 31.1 -2 30 C-2.4 32.4 -2.4 32.4 -2 35 C0.7 36.2 0.7 36.2 4 37 C5.3 37.6 6.7 38.3 8 39 C8.3 38.3 8.7 37.7 9 37 C9.3 38 9.7 39 10 40 C12.1 41.2 12.1 41.2 14.6 42.2 C15.4 42.5 16.2 42.9 17.1 43.2 C17.4 43.4 17.4 43.4 19 44 C18.8 43 18.8 43 18 38 C18.8 38.2 19.5 38.3 20.3 38.5 C23 39 23 39 26 39 C26.3 40 26.7 41 27 42 C29.1 42.9 29.1 42.9 31.6 43.7 C32 43.8 32 43.8 34.1 44.4 C34.7 44.6 35.3 44.8 36 45 C36.4 42.6 36.4 42.6 36 40 C33 38.7 33 38.7 30 38 C33.6 36.8 34.3 37.3 37.6 38.8 C38.5 39.2 39.4 39.6 40.3 40 C41.2 40.4 42.2 40.9 43.1 41.3 C44.1 41.7 45 42.1 45.9 42.6 C52.9 45.7 52.9 45.7 54 48 C48.5 46.3 43.2 44.3 38 42 C38 43.7 38 45.3 38 47 C33.2 46.1 33.2 46.1 31 45 C31.2 46 31.2 46 32 51 C31 51 30 51 29 51 C29 54 29 54 31 55.2 C31.8 55.5 32.6 55.8 33.5 56.2 C34.3 56.5 35.2 56.9 36 57.2 C36.4 57.4 36.4 57.4 38 58 C37.3 56.3 36.7 54.7 36 53 C37.6 53.3 39.3 53.7 41 54 C41 53 41 52 41 51 C41.7 51 42.3 51 43 51 C42.9 51.4 42.9 51.4 42.4 53.3 C43 56 43 56 44.9 57 C47.3 57.7 49.6 58.4 52 59 C52.7 59.3 53.3 59.7 54 60 C54.2 59.7 54.2 59.7 55 58 C55.3 59 55.7 60 56 61 C58.1 62.3 58.1 62.3 60.6 63.6 C63.1 64.8 63.1 64.8 65 66 C65 66.7 65 67.3 65 68 C66.7 68.4 68.3 68.7 70 69 C84.3 73.3 84.3 73.3 86 79.6 C85.9 83.2 85.7 86.5 85 90 C84.3 89.7 83.5 89.4 82.8 89 C77.7 86.9 72.6 84.8 67.2 83.2 C61.9 81.4 57 79.1 52 76.5 C45.4 73.1 38.6 70 31.8 66.9 C21.5 62.1 11.2 57.3 1 52.3 C0.4 52 -0.3 51.7 -0.9 51.4 C-4.6 49.6 -8.3 47.8 -12 46 C-12.8 45.7 -13.5 45.4 -14.3 45.1 C-16.8 43.5 -16.5 42.3 -16.6 39.4 C-16.6 38.5 -16.7 37.6 -16.7 36.6 C-16.7 35.6 -16.7 34.6 -16.8 33.6 C-16.8 33.1 -16.8 33.1 -16.8 30.6 C-16.9 27.7 -17 24.9 -17 22 C-17 20.7 -17.1 19.4 -17.1 18.1 C-17.1 15.4 -17.1 12.7 -17 10 C-17 9 -16.9 7.9 -16.9 6.9 C-15.6 2.7 -13.6 2.4 -9.6 1.1 C-8.5 0.6 -7.3 0.2 -6.1 -0.2 C-3 -1 -3 -1 0 0 Z " fill="#A28E75" transform="translate(18,131)"/>
<path d="M0 0 C0 14.5 0 29 0 44 C-0.7 44 -1.3 44 -2 44 C1.6 48.4 6.1 50.1 11.3 52.1 C12.2 52.5 13.1 52.8 14 53.2 C20.8 55.8 27.1 57 34.3 57.4 C35.2 57.6 36.1 57.8 37 58 C37.6 60.4 37.6 60.4 38 63 C40 64.4 40 64.4 42.8 65.5 C43.2 65.7 43.2 65.7 45.8 66.7 C46.3 66.9 46.3 66.9 49 68 C49.5 68.2 49.5 68.2 52.3 69.4 C61.9 73.5 68.4 74 78.4 71.4 C84.8 69.8 89.7 70.3 96 72 C85.5 80.3 69.3 89.8 56 85 C52.1 83.2 48.5 81.3 45 79 C44.7 79.7 44.3 80.3 44 81 C44 80 44 79 44 78 C43.3 78 42.7 78 42 78 C42 79.7 42 81.3 42 83 C40.6 82.5 39.1 82.1 37.7 81.6 C36.9 81.4 36.1 81.1 35.3 80.9 C33 80 33 80 30 78 C30.2 77.2 30.4 76.4 30.6 75.5 C30.7 74.7 30.9 73.9 31 73 C29 71.5 29 71.5 26.2 70.4 C25.1 69.9 24.1 69.5 23.1 69.1 C22 68.6 20.9 68.2 19.8 67.8 C18.7 67.3 17.6 66.9 16.5 66.4 C12.7 64.8 8.9 63.3 5 62 C5 63.7 5 65.3 5 67 C1.9 66.2 -1.1 65.4 -4 64 C-4.6 61.3 -4.6 61.3 -4 59 C-3 59 -2 59 -1 59 C-1.7 58.3 -2.3 57.7 -3 57 C-0.4 56.7 2.3 56.3 5 56 C3.5 55.3 3.5 55.3 -4 52 C-3.8 52.2 -3.8 52.2 -3 53 C-2.3 53.7 -1.7 54.3 -1 55 C-5.2 57.2 -7.1 57 -11.4 55.1 C-12.4 54.6 -13.4 54.2 -14.4 53.7 C-14.9 53.5 -14.9 53.5 -17.6 52.2 C-18.6 51.8 -19.6 51.3 -20.7 50.8 C-23.5 49.6 -26.2 48.3 -29 47 C-29.8 46.7 -30.5 46.3 -31.3 46 C-33 45 -33 45 -33 43 C-30.7 41.8 -28.4 40.8 -25.9 39.9 C-25.3 39.6 -24.6 39.3 -23.9 39 C-19.4 37.2 -15.9 36.7 -11 37 C-11.7 38 -12.3 39 -13 40 C-11 39.3 -9 38.7 -7 38 C-7.1 37.5 -7.3 37 -7.4 36.4 C-10 25.8 -12.2 11.5 -4 3 C-3.7 2.7 -3.7 2.7 -2.4 1.3 C-1 0 -1 0 0 0 Z " fill="#EFE3CB" transform="translate(39,92)"/>
<path d="M0 0 C5.7 -0.2 10.7 0.4 16.3 1.6 C19.9 2.2 23.3 2.1 27 2 C28 2.3 29 2.7 30 3 C33.9 3.1 37.8 2.9 41.6 2.7 C42.7 2.7 43.7 2.6 44.8 2.6 C50.4 2.3 55.7 1.8 61.1 0.3 C63.4 -0.1 64.9 0.1 67 1 C67 1.5 67 1.5 66.8 3.9 C67 7 67 7 70.1 8.7 C71.4 9.1 72.7 9.5 74 9.9 C74.7 10.1 75.3 10.3 76 10.5 C77.7 11 79.3 11.5 81 12 C78.6 14.4 76.7 15 73.5 16.1 C72.5 16.5 71.5 16.8 70.5 17.2 C68 18 68 18 66 18 C65.9 18.8 65.8 19.7 65.7 20.5 C65.5 21.3 65.2 22.2 65 23 C62.4 23.3 62.4 23.3 60 23 C60 22.3 60 21.7 60 21 C59.4 21.2 58.9 21.4 58.3 21.6 C55.8 22.6 53.2 23.6 50.7 24.5 C49.8 24.8 48.9 25.2 48 25.5 C47.2 25.8 46.3 26.1 45.4 26.5 C44.7 26.8 43.9 27.1 43.1 27.4 C41 28 41 28 38 28 C38 29.7 38 31.3 38 33 C36.3 33 34.7 33 33 33 C33 25.4 33 17.8 33 10 C32.7 16.3 32.3 22.5 32 29 C21.5 26.2 21.5 26.2 18.1 24.9 C13.5 23.5 8.9 23.7 4.1 23.6 C0.1 22.8 -0 21.5 -2 18 C-4.8 16.7 -4.8 16.7 -8 15.9 C-14.9 14 -14.9 14 -17 11 C-16.7 10.3 -16.3 9.7 -16 9 C-15.2 9.2 -14.4 9.4 -13.5 9.6 C-8.9 10.1 -5.1 9.2 -1 7 C-0.7 6 -0.3 5 0 4 C-2.3 4.7 -4.6 5.3 -7 6 C-5.5 2.9 -3.2 3.4 0 3 C0 2 0 1 0 0 Z " fill="#47313F" transform="translate(69,68)"/>
<path d="M0 0 C1.5 1.1 1.5 1.1 3.2 2.7 C9.4 8.1 15.9 12.3 24 14 C26.7 13.1 28 12 30 10 C30 11.3 30 12.6 30 14 C32 14.8 32 14.8 34 15 C33.7 15.3 33.3 15.7 33 16 C40.2 17.1 47.1 17.2 54.4 17.2 C55.7 17.2 57 17.2 58.3 17.2 C58.9 17.2 58.9 17.2 62 17.2 C62.6 17.2 62.6 17.2 65.4 17.2 C68 17 68 17 69 15 C71 14.5 71 14.5 73.4 14.2 C74.2 14.2 75 14.1 75.8 14 C78 14 78 14 81 16 C82.4 18.5 82.4 18.5 83.7 21.5 C84.1 22.5 84.6 23.5 85 24.5 C86 27 86 27 86 29 C78.5 32.4 69.7 32.4 61.6 32.8 C60.5 32.8 59.5 32.8 58.4 32.9 C53.7 33 49.6 33 45 32 C43 31.8 40.9 31.7 38.9 31.6 C32.8 31.1 26.9 30.2 21 29 C21 30 21 31 21 32 C15.5 34.8 7.7 38.1 2 35 C1.5 31.7 1.5 28.5 1.4 25.1 C0.9 21.6 0.7 21 -2.4 19.4 C-3.6 18.9 -4.8 18.5 -6 18 C-9 15.5 -9 15.5 -9 13 C-9.7 13 -10.3 13 -11 13 C-10.5 8.7 -9.4 7 -6.1 4.2 C-5.4 3.7 -4.6 3.1 -3.9 2.5 C-2 1 -2 1 0 0 Z " fill="#D3A959" transform="translate(48,39)"/>
<path d="M0 0 C0.8 0.6 1.7 1.1 2.5 1.7 C5.1 3.4 7.5 5.2 10 7 C16.2 11.3 22.5 15.2 29 19 C26.7 25.9 21.5 28.4 14.8 30.6 C10.1 31.1 9.1 30.4 6 27 C4 23.7 4 23.7 4 22 C3.4 22 2.9 22 2.3 22 C-24.3 22.7 -24.3 22.7 -32.4 16.8 C-35.7 14.5 -37.3 14.9 -41 16 C-39 13.9 -37 12.2 -34.6 10.5 C-34 10.1 -33.3 9.6 -32.7 9.2 C-29.8 7.2 -26.9 5.3 -24 3.4 C-22.2 2.1 -20.4 0.9 -18.6 -0.5 C-10.9 -5.7 -7.4 -5.5 0 0 Z " fill="#987441" transform="translate(112,6)"/>
<path d="M0 0 C11.6 3.6 11.6 3.6 15 6 C15.4 9.2 15.4 9.2 15 12 C15.7 12 16.3 12 17 12 C18.6 13.5 18.6 13.5 20 15 C20.3 12.7 20.7 10.4 21 8 C21.5 8.2 21.5 8.2 24 9 C23.3 9 22.7 9 22 9 C21.6 14.5 21.6 14.5 22 17 C24.5 18 24.5 18 27 18 C26 17.3 25 16.7 24 16 C23.8 13.4 23.8 13.4 24 11 C30.3 13 36.6 15.2 42 19 C42.8 22.9 42.8 22.9 42 26 C42.7 26 43.3 26 44 26 C44.1 24.5 44.1 23 44.2 21.6 C44.2 20.7 44.3 19.9 44.3 19.1 C44.2 18.4 44.1 17.7 44 17 C43 16.7 42 16.3 41 16 C41.3 14.7 41.7 13.4 42 12 C42.8 12.5 43.6 12.9 44.5 13.4 C48.4 15.2 51.8 16.2 56 17 C56.3 16.3 56.7 15.7 57 15 C57.2 15.5 57.2 15.5 58 18 C60.1 19.3 60.1 19.3 62.6 20.6 C65.1 21.8 65.1 21.8 67 23 C67 23.7 67 24.3 67 25 C68.7 25.4 70.3 25.7 72 26 C86.3 30.3 86.3 30.3 88 36.6 C87.9 40.2 87.7 43.5 87 47 C86.3 46.7 85.5 46.4 84.8 46 C79.7 43.9 74.6 41.8 69.2 40.2 C63.9 38.4 59 36.1 54 33.5 C47.4 30.1 40.6 27 33.8 23.9 C19.1 17.1 4.5 10.1 -10 3 C-5.8 1.6 -3.9 3.2 0 5 C0 3.3 0 1.7 0 0 Z " fill="#A08F79" transform="translate(16,174)"/>
<path d="M0 0 C-3.4 4.8 -3.4 4.8 -6.2 5.9 C-11.5 8 -17.1 12.1 -18 18 C-17.3 18 -16.7 18 -16 18 C-15.4 18.7 -14.9 19.5 -14.3 20.2 C-12 23 -11.4 23.3 -8.2 24.5 C-5.2 26 -5 26.7 -4.6 30.1 C-4.6 33.5 -4.7 36.7 -5 40 C1.5 40.3 7.6 39.2 14 38 C13.7 40.7 13.5 41.7 11.1 43.1 C6.3 44.6 3 45.3 -2 44 C-2.3 44.3 -2.7 44.7 -3 45 C-2 45.3 -1 45.7 0 46 C-4.5 49 -8.8 48.1 -14 48 C-14 49.1 -14 50.1 -14 51.2 C-14 51.9 -14 52.6 -14 53.4 C-14 55 -14 56.6 -14 58.2 C-14 62.5 -14 66.8 -14.1 71.1 C-14.1 75.3 -14.1 79.6 -14.1 83.9 C-14.1 85.6 -14.1 87.4 -14.1 89.1 C-14.3 103.8 -14.3 103.8 -10.9 106.8 C-8.5 107.6 -6.5 108 -4 108 C-4 107.3 -4 106.7 -4 106 C-3.3 106 -2.7 106 -2 106 C-2 107 -2 108 -2 109 C-0 109.7 2 110.4 4 111 C4.3 111.5 4.3 111.5 6 114 C1.6 113.3 -2.5 111.8 -6.7 110.2 C-7.4 109.9 -8 109.7 -8.7 109.4 C-12.6 107.9 -14.6 107 -16 103 C-18.1 101.8 -18.1 101.8 -20 101 C-19 101 -18 101 -17 101 C-17 87.1 -17 73.3 -17 59 C-22.8 66 -24.4 68.3 -24.2 77.1 C-24.2 77.8 -24.2 78.6 -24.2 79.3 C-24.1 85.4 -23.3 91.1 -22 97 C-23.6 97.3 -23.6 97.3 -32 99 C-30.7 98 -29.4 97 -28 96 C-31 96 -33.9 96 -37 96 C-34.8 93.8 -33.3 93.3 -30.4 92.4 C-30 92.2 -30 92.2 -27.9 91.6 C-27.3 91.4 -26.6 91.2 -26 91 C-26.2 90.1 -26.3 89.3 -26.5 88.4 C-28.3 76.8 -27.5 67.6 -19.8 58.4 C-18 57 -18 57 -16 57 C-18.3 51 -21.5 46 -25.1 40.8 C-25.6 39.9 -26.1 39.1 -26.7 38.3 C-27.7 36.8 -28.7 35.4 -29.7 33.9 C-30.8 32.3 -31.9 30.6 -33 29 C-33 29.4 -33 29.4 -32.9 31.2 C-32.9 34.4 -32.8 37.7 -32.8 40.9 C-32.7 42.1 -32.7 43.2 -32.6 44.4 C-32.6 45.5 -32.6 46.5 -32.6 47.7 C-32.6 48.2 -32.6 48.2 -32.5 50.7 C-33 53 -33 53 -35 53.8 C-35.7 53.9 -36.3 53.9 -37 54 C-37.3 52.7 -37.7 51.4 -38 50 C-37.7 50 -37.3 50 -37 50 C-37 45.7 -37 41.5 -36.9 37.2 C-36.9 36 -36.9 34.8 -36.9 33.5 C-36.9 32.3 -36.9 31.2 -36.9 30 C-36.9 28.9 -36.9 27.8 -36.9 26.7 C-37 24 -37 24 -38 21 C-37.7 20.3 -37.3 19.7 -37 19 C-34 19.2 -32.5 19.5 -30.3 21.7 C-27.2 24.8 -23.5 26.9 -19.8 29.2 C-19 29.7 -18.3 30.2 -17.5 30.6 C-15.7 31.8 -13.8 32.9 -12 34 C-11.6 26.5 -11.6 26.5 -13.5 24.1 C-14.1 23.7 -14.8 23.2 -15.4 22.8 C-18.8 20.6 -19.8 19.1 -20 15 C-17.4 10.1 -5.4 -2.7 0 0 Z " fill="#73563E" transform="translate(55,34)"/>
<path d="M0 0 C7.9 2.6 15.8 5.3 24 8 C20.4 10.7 17.2 12.3 13 13.8 C7.3 16 1.8 18.5 -3.7 21.3 C-7.9 23.4 -12.2 25.4 -16.5 27.3 C-16.9 27.5 -16.9 27.5 -18.9 28.4 C-19.6 28.7 -20.3 29 -21.1 29.4 C-21.8 29.7 -22.4 29.9 -23.1 30.2 C-25 31 -27 31.5 -29 32 C-28.7 30.3 -28.3 28.7 -28 27 C-31 28.3 -33.9 29.6 -37 31 C-34.7 31.3 -32.4 31.7 -30 32 C-31.7 35.3 -34.5 36.2 -38 37 C-40.2 36.9 -42.4 36.7 -44.6 36.5 C-51 35.9 -56 36.6 -62.2 38.3 C-64.9 39 -67.2 39.1 -70 39 C-67.3 36.3 -64.3 35.2 -60.9 33.8 C-60.1 33.4 -59.4 33.1 -58.6 32.7 C-56.8 32 -55 31.2 -53.2 30.4 C-50.2 29.1 -47.1 27.7 -44.1 26.4 C-41.2 25.1 -38.3 23.8 -35.5 22.6 C-34 21.9 -32.6 21.3 -31.2 20.7 C-29.1 19.8 -27.1 18.9 -25.1 18 C-24.5 17.7 -24.5 17.7 -21.4 16.4 C-18.9 15.4 -16.7 14.6 -14.1 14 C-13.6 13.8 -13.6 13.8 -11 13 C-11 12 -11 11 -11 10 C-9.9 9.7 -8.9 9.4 -7.8 9.1 C-3.5 7.8 -2.3 6.7 0 3 C0 2 0 1 0 0 Z " fill="#8D7980" transform="translate(176,127)"/>
<path d="M0 0 C0.3 0 0.7 0 1 0 C1.1 5.5 1.2 11 1.3 16.4 C1.3 18.3 1.3 20.2 1.4 22 C1.4 24.7 1.5 27.4 1.5 30.1 C1.5 30.9 1.5 31.7 1.6 32.6 C1.6 38.4 1.6 38.4 -1.3 41.5 C-6.2 44.3 -6.2 44.3 -10 43 C-10.3 39.9 -10.4 37.8 -9 35 C-12.3 36 -15.6 37 -19 38 C-18.3 36.3 -17.7 34.7 -17 33 C-21.2 34.5 -25.1 35.9 -28.9 38.2 C-32 40 -32 40 -34 40 C-34.4 37.7 -34.4 37.7 -34 35 C-31 33.2 -31 33.2 -28 32 C-28.3 31.7 -28.7 31.3 -29 31 C-29.4 28.6 -29.4 28.6 -29 26 C-28 25.5 -27 25.1 -26 24.6 C-25.5 24.3 -25.5 24.3 -23 23 C-22.9 20 -22.9 20 -23 17 C-21.7 16 -20.4 15 -19 14 C-18.9 13.2 -18.8 12.3 -18.6 11.5 C-17.7 7.7 -15.5 7.4 -12 6 C-11.2 5.6 -10.3 5.3 -9.5 4.9 C-6.7 3.9 -3.8 2.9 -1 2 C-1 3.1 -1 4.3 -1 5.5 C-1 7 -1.1 8.4 -1.1 9.9 C-1.1 10.3 -1.1 10.3 -1.1 12.2 C-1.1 17.9 -1.1 17.9 0 19 C0 12.7 0 6.5 0 0 Z " fill="#786A5E" transform="translate(202,135)"/>
<path d="M0 0 C5.2 0.7 9.6 2.9 14.3 5.1 C14.7 5.3 14.7 5.3 16.8 6.2 C18.9 7.1 21 8.1 23 9 C22 9.3 21 9.7 20 10 C20.3 13.2 20.7 13.8 23.5 15.5 C24.5 15.9 25.5 16.3 26.6 16.8 C27.6 17.2 28.6 17.6 29.6 18 C30.4 18.4 31.2 18.7 32 19 C32 17.3 32 15.7 32 14 C34.3 14.6 36.7 15.3 39 16.1 C41.1 16.7 43.2 17.3 45.3 17.8 C48.8 18.9 51.2 19.7 54 22 C55.1 26.8 54.7 31.2 54 36 C53.3 36 52.7 36 52 36 C52.3 36.2 52.3 36.2 54 37 C54.2 39.9 54.2 39.9 54.1 43.6 C54.1 44.8 54.1 46 54.1 47.2 C54 48.1 54 49 54 50 C46.9 49 40 46.9 34 43 C33.6 40.9 33.6 40.9 34.2 38.8 C34.5 37.6 34.7 36.3 35 35 C31.6 33.4 31.6 33.4 29.1 32.8 C25.1 31.7 21.3 30.1 17.5 28.4 C16.8 28.1 16.1 27.8 15.3 27.5 C10.1 25.2 10.1 25.2 9 23 C10.5 23.5 11.9 24 13.4 24.4 C14.2 24.7 15 25 15.8 25.2 C18 26 18 26 20 27 C20.3 26 20.7 25 21 24 C21 25.3 21 26.6 21 28 C23.8 29.1 23.8 29.1 27 30 C28.3 30.6 29.7 31.3 31 32 C30.9 29.7 30.9 29.7 30 27 C29 26.5 28 26.1 26.9 25.6 C26 25 25 24.5 24 24 C24.1 23 24.1 22.1 24.2 21.1 C24 18 24 18 21.2 16.1 C19.9 15.6 18.7 15.1 17.5 14.6 C16.3 14.1 15.1 13.6 13.8 13.1 C12.9 12.7 12 12.4 11 12 C14.5 10.8 15 11.2 18 13 C18 9 18 9 15.8 7.7 C14.9 7.4 14 7.1 13 6.8 C12.1 6.4 11.1 6.1 10.2 5.7 C9.5 5.5 8.7 5.2 8 5 C7.7 6.3 7.3 7.6 7 9 C6 8.7 5 8.3 4 8 C4.7 8 5.3 8 6 8 C6.4 5.6 6.4 5.6 6 3 C3 1.8 3 1.8 0 1 C0 0.7 0 0.3 0 0 Z " fill="#A5937A" transform="translate(49,156)"/>
<path d="M0 0 C1.6 0.7 3.1 1.4 4.7 2.1 C6.9 3 9.2 4 11.4 5 C16.1 7.1 20.8 9.1 25.6 10.9 C27.5 11.7 27.5 11.7 29.4 12.6 C37.1 16.4 43.4 13.1 50.7 9.8 C55.3 7.7 55.3 7.7 57.5 7.7 C57.5 7 57.5 6.4 57.5 5.7 C61.1 6.3 64.8 7 68.5 7.7 C57.7 15.8 42 25.6 28.5 20.7 C24.6 18.9 21 17 17.5 14.7 C17.2 15.3 16.8 16 16.5 16.7 C16.5 15.7 16.5 14.7 16.5 13.7 C15.8 13.7 15.2 13.7 14.5 13.7 C14.5 15.3 14.5 17 14.5 18.7 C13.1 18.2 11.6 17.8 10.2 17.3 C9.4 17.1 8.6 16.8 7.8 16.5 C5.5 15.7 5.5 15.7 2.5 13.7 C2.7 12.9 2.9 12.1 3.1 11.2 C3.2 10.4 3.4 9.6 3.5 8.7 C1.5 7.2 1.5 7.2 -1.3 6 C-2.4 5.6 -3.4 5.2 -4.4 4.7 C-5.5 4.3 -6.6 3.9 -7.8 3.4 C-8.8 3 -9.9 2.5 -11 2.1 C-14.8 0.5 -18.6 -1 -22.5 -2.3 C-22.5 -0.7 -22.5 1 -22.5 2.7 C-25.6 1.9 -28.6 1.1 -31.5 -0.3 C-32.1 -3 -32.1 -3 -31.5 -5.3 C-30.5 -5.3 -29.5 -5.3 -28.5 -5.3 C-29.2 -6 -29.8 -6.6 -30.5 -7.3 C-20.1 -10.8 -9.3 -4.2 0 0 Z " fill="#CFC0A8" transform="translate(66.5,156.3125)"/>
<path d="M0 0 C0 0.7 0 1.3 0 2 C-0.7 2.3 -1.3 2.5 -2 2.8 C-2.7 3.2 -3.3 3.6 -4 4 C-4 4.8 -4 5.7 -3.9 6.5 C-4 7.3 -4 8.2 -4 9 C-4.4 9.2 -4.4 9.2 -6.6 9.9 C-7.4 10.3 -8.2 10.6 -9 11 C-8.9 11.5 -8.9 11.5 -8.5 13.9 C-8.4 14.4 -8.4 14.4 -8 17 C-10.4 18.9 -11.9 20 -15 20 C-15.1 22.4 -15.1 22.4 -15 25 C-14.3 25.3 -13.7 25.7 -13 26 C-17.8 29 -17.8 29 -20 29 C-20 30.7 -20 32.3 -20 34 C-18.7 33.4 -17.4 32.8 -16.1 32.1 C-15.4 31.8 -14.7 31.4 -13.9 31.1 C-12 30 -12 30 -10 28 C-6.4 26.6 -2.8 25.7 1 25 C0.3 25.4 -0.3 25.9 -1 26.3 C-3 28 -3 28 -3 31 C-2.4 30.7 -1.8 30.3 -1.2 30 C1 29 1 29 5 29 C5 27.3 5 25.7 5 24 C5.3 24 5.7 24 6 24 C6.6 26.9 6.6 26.9 7 30 C6.7 30.2 6.7 30.2 5 31 C4.4 34.1 4.4 34.1 4 37 C5 37.3 6 37.7 7 38 C3.1 40 -0.8 42 -4.7 44 C-6.1 44.7 -7.4 45.4 -8.7 46.1 C-10.6 47.1 -12.6 48.1 -14.5 49 C-15.6 49.6 -16.8 50.2 -18 50.8 C-21.2 52.1 -21.9 52 -25 51 C-28.2 52.2 -28.2 52.2 -31.7 53.9 C-38 57 -38 57 -39 57 C-39.2 52.2 -39.2 52.2 -37 50 C-35.3 49.2 -33.6 48.5 -31.9 47.8 C-30.1 47 -28.4 46.2 -26.7 45.3 C-24 44 -24 44 -22 44 C-21.4 46.5 -21.4 46.5 -21 49 C-19.6 48.4 -18.3 47.9 -16.9 47.2 C-16.2 46.9 -15.4 46.6 -14.7 46.3 C-14.4 46.1 -14.4 46.1 -13 45 C-13.3 43.1 -13.3 43.1 -14 41 C-12.4 36.7 -11.2 34.9 -7 33 C-7 32 -7 31 -7 30 C-8.3 30.6 -9.6 31.2 -10.9 31.8 C-11.7 32.1 -12.4 32.4 -13.2 32.7 C-15.4 34.3 -15.8 35.3 -16 38 C-15.7 38.2 -15.7 38.2 -14 39 C-15 39 -16 39 -17 39 C-17 37.7 -17 36.4 -17 35 C-17.8 35.2 -17.8 35.2 -22 36 C-21.7 34 -21.3 32 -21 30 C-21.5 30.3 -22.1 30.6 -22.6 30.9 C-23.4 31.3 -24.1 31.7 -24.8 32.1 C-25.5 32.4 -26.2 32.8 -27 33.2 C-29 34 -29 34 -32 33 C-30.9 32.6 -29.9 32.1 -28.8 31.6 C-27.4 31 -26 30.4 -24.6 29.8 C-24.2 29.7 -24.2 29.7 -22.4 28.9 C-17.3 26.6 -17.3 26.6 -15.9 23.3 C-15.9 22.6 -16 21.8 -16 21 C-16.7 20.7 -17.3 20.3 -18 20 C-12.2 17 -12.2 17 -10 17 C-10.2 16.3 -10.2 16.3 -11 13 C-13.3 13.7 -15.6 14.3 -18 15 C-18 13.3 -18 11.7 -18 10 C-18.6 10.3 -19.2 10.5 -19.8 10.8 C-22.5 12.1 -25.2 13.3 -27.9 14.5 C-28.3 14.7 -28.3 14.7 -30.7 15.8 C-31.6 16.2 -32.5 16.6 -33.4 17 C-34.3 17.4 -35.1 17.8 -35.9 18.2 C-38 19 -38 19 -40 19 C-39.7 19.9 -39.5 20.9 -39.2 21.8 C-39 25 -39 25 -41.4 26.6 C-41.9 26.9 -41.9 26.9 -44 28 C-44 29.3 -44 30.6 -44 32 C-43.2 31.6 -42.5 31.3 -41.7 30.9 C-40.7 30.4 -39.7 29.9 -38.6 29.4 C-37.6 29 -36.6 28.5 -35.6 28 C-33 27 -33 27 -31 28 C-33.6 29.3 -36.1 30.6 -38.7 31.9 C-39.4 32.3 -40.1 32.7 -40.9 33.1 C-44.6 34.9 -47.8 36.5 -52 37 C-50.4 35.3 -49.1 34.1 -47 33 C-46.7 31.7 -46.3 30.4 -46 29 C-47.5 29.5 -47.5 29.5 -55 32 C-52.3 29.3 -50.8 28.3 -47.4 26.8 C-46.7 26.5 -45.9 26.1 -45.1 25.8 C-43 25 -43 25 -41 25 C-41.3 23.1 -41.3 23.1 -42 21 C-43 20.7 -44 20.3 -45 20 C-44.3 19.7 -43.7 19.3 -43 19 C-43.9 18.9 -44.9 18.7 -45.8 18.6 C-49 18 -49 18 -52 17 C-50.2 16.1 -48.5 15.3 -46.7 14.4 C-45.7 14 -44.7 13.5 -43.7 13 C-41 12 -41 12 -38 13 C-38.3 13.2 -38.3 13.2 -40 14 C-40.6 16.1 -40.6 16.1 -41 18 C-40.5 17.8 -40 17.5 -39.5 17.3 C-30.1 12.8 -20.6 8.3 -11 4.3 C-8.9 3.4 -6.8 2.4 -4.7 1.3 C-2 0 -2 0 0 0 Z " fill="#504046" transform="translate(188,141)"/>
<path d="M0 0 C6.4 1.1 6.4 1.1 9 3 C9.2 5.6 9.2 5.6 9 8 C9.3 8.3 9.7 8.7 10 9 C10 7.3 10 5.7 10 4 C11.8 4.6 13.6 5.3 15.4 5.9 C16.4 6.3 17.5 6.7 18.5 7 C21 8 21 8 22 9 C22 10.7 22 12.3 22 14 C20.7 13.7 19.4 13.3 18 13 C18.7 13.3 19.4 13.6 20.2 13.9 C21.1 14.3 22 14.8 23 15.2 C23.9 15.6 24.9 16 25.8 16.4 C28.7 18.5 28.2 19.6 28 23 C29 23.7 30 24.3 31 25 C34 27 34 27 34.4 29.8 C34.3 30.1 34.3 30.1 34 32 C29.6 30.9 26.6 29.7 23 27 C20.7 26.3 18.3 25.6 16 25 C18.7 26.3 21.5 27.6 24.2 28.9 C25 29.2 25.7 29.6 26.5 30 C27.3 30.3 28 30.7 28.8 31.1 C29.5 31.4 30.2 31.7 31 32.1 C33 33 33 33 36 34.1 C38 35 38 35 38.3 38.1 C38.3 38.6 38.3 38.6 38 41 C34.6 40 32.1 39.1 29.2 37.1 C25.8 34.9 22.8 33.8 19 32.6 C17 32 17 32 15 31 C14.9 28.4 14.9 28.4 15 26 C14.3 26 13.7 26 13 26 C13 27 13 28 13 29 C11.7 29 10.4 29 9 29 C9.3 30.3 9.7 31.6 10 33 C1.3 30.8 1.3 30.8 -0.1 27.3 C-0 26.5 -0 25.8 0 25 C1 25 2 25 3 25 C3 23.3 3 21.7 3 20 C5.3 20.7 7.6 21.3 10 22 C10 20.3 10 18.7 10 17 C10.6 17.2 11.2 17.4 11.8 17.6 C12.6 17.9 13.4 18.2 14.2 18.4 C15 18.7 15.8 19 16.6 19.2 C18.7 19.9 20.9 20.5 23 21 C22.2 20.7 21.4 20.3 20.6 19.9 C17.6 18.6 14.6 17.3 11.7 16 C10.4 15.5 9.1 14.9 7.8 14.4 C6 13.5 4.1 12.7 2.3 11.9 C1.2 11.4 0.1 10.9 -1.1 10.4 C-3.7 9.2 -5.7 7.8 -8 6 C-10.2 5.3 -10.2 5.3 -12 5 C-11.3 4.7 -10.7 4.3 -10 4 C-10.3 3 -10.7 2 -11 1 C-10.7 1.1 -10.7 1.1 -9.1 1.7 C-8.3 1.9 -7.5 2.2 -6.6 2.5 C-6.2 2.6 -6.2 2.6 -4.2 3.3 C-2 4 -2 4 0 4 C0 2.7 0 1.4 0 0 Z " fill="#BAAB90" transform="translate(46,156)"/>
<path d="M0 0 C0.7 0.3 1.3 0.7 2 1 C1.6 3.6 1.6 3.6 1 6 C2.3 5.7 3.6 5.3 5 5 C2.6 7.7 0.3 8.9 -3.1 10.3 C-4 10.7 -5 11.1 -6 11.6 C-8.1 12.4 -10.2 13.3 -12.2 14.2 C-13.2 14.6 -14.2 15 -15.2 15.4 C-16.1 15.8 -17 16.2 -17.9 16.6 C-20.6 18.4 -20.7 19.8 -21 23 C-14.1 21.4 -14.1 21.4 -13 18 C-12 18 -11 18 -10 18 C-9.1 17.5 -8.1 17 -7.1 16.5 C-4 15 -4 15 -1.6 15.1 C1.5 15 3 14.1 5.7 12.5 C9.8 10 9.8 10 12 10 C13 13 13 13 12 16 C12.7 16 13.3 16 14 16 C14.5 18.2 14.5 18.2 14 21 C11.6 22.9 8.9 24 6.2 25.2 C5.4 25.6 4.7 26 4 26.3 C1 27.7 -1.9 29 -5 30 C-2.4 29.3 0.3 28.7 3 28 C-3.1 34.7 -15.8 41.5 -24.8 40.6 C-27.9 39.4 -30.3 37.9 -33 36 C-34.2 35.4 -35.5 34.8 -36.8 34.2 C-37.5 33.8 -38.2 33.4 -39 33 C-34.8 31.6 -33.2 33 -29.3 34.9 C-28.1 35.5 -27 36.1 -25.7 36.7 C-25.3 36.9 -25.3 36.9 -23 38 C-23 37.1 -23 36.3 -23 35.4 C-23.1 27.2 -22.8 19.2 -22 11 C-21.7 11 -21.3 11 -21 11 C-21 12.7 -21 14.3 -21 16 C-19.7 15.4 -18.3 14.8 -17 14.2 C-16.3 13.9 -15.5 13.6 -14.8 13.3 C-13 12 -13 12 -13 8 C-13.7 7.7 -14.3 7.3 -15 7 C-13.7 6.7 -12.4 6.3 -11 6 C-10.7 7.7 -10.3 9.3 -10 11 C-9.4 10.7 -8.9 10.4 -8.3 10.1 C-8 9.9 -8 9.9 -6.1 9 C-5.4 8.6 -4.7 8.3 -3.9 7.9 C-2 7 -2 7 0 7 C0 4.7 0 2.4 0 0 Z " fill="#645550" transform="translate(125,182)"/>
<path d="M0 0 C4 3.4 6 5.7 7.3 11 C8 11.3 8.7 11.7 9.3 12 C10 12.4 10.7 12.7 11.3 13.1 C13.3 14 13.3 14 15.3 13 C14.9 17.9 13.6 20.4 10.3 24 C14.3 25 18.3 26 22.3 27 C21.4 27.3 20.4 27.7 19.3 28 C19.3 29 19.3 30 19.3 31 C13.9 33.8 6 37.1 0.3 34 C-0.1 30.7 -0.2 27.4 -0.2 24.1 C-0.7 20.6 -1 20 -4 18.4 C-5.2 17.9 -6.4 17.5 -7.7 17 C-10.7 14.5 -10.7 14.5 -10.7 12 C-11.3 12 -12 12 -12.7 12 C-12.2 7.7 -11.1 6 -7.7 3.2 C-7 2.7 -6.3 2.1 -5.6 1.4 C-2 -1.2 -2 -1.2 0 0 Z " fill="#CDB489" transform="translate(49.65625,40.00390625)"/>
<path d="M0 0 C4.8 1.5 9.5 3.1 14.1 5 C14.8 5.3 15.6 5.6 16.3 5.9 C18 7 18 7 18 10 C17.3 10 16.7 10 16 10 C15.9 14.5 15.7 19 15.7 23.6 C15.6 25.1 15.6 26.6 15.5 28.2 C15.5 30.4 15.4 32.6 15.4 34.8 C15.4 35.5 15.4 36.2 15.3 36.9 C15.3 38.8 15.3 38.8 16 42 C18.9 43.3 18.9 43.3 22 44 C24.4 45.6 24.4 45.6 26 47 C21.9 46.4 18.5 45.3 15 43 C15 41.3 15 39.7 15 38 C10 37.7 5.1 37.3 0 37 C0 24.7 0 12.3 0 0 Z " fill="#775335" transform="translate(61,112)"/>
<path d="M0 0 C4.5 -0.1 8.9 -0.2 13.4 -0.2 C14.6 -0.3 15.9 -0.3 17.2 -0.4 C18.4 -0.4 19.7 -0.4 20.9 -0.4 C21.5 -0.4 21.5 -0.4 24.3 -0.5 C27 0 27 0 28.2 1.9 C28.5 2.6 28.7 3.3 29 4 C30.6 5.7 32.3 7.4 34 9 C33 9.7 32 10.3 31 11 C31.3 11.7 31.7 12.3 32 13 C30.7 13 29.4 13 28 13 C29 13.3 30 13.7 31 14 C30.7 15.3 30.3 16.6 30 18 C30.7 18 31.3 18 32 18 C32.3 17.3 32.7 16.7 33 16 C34 16 35 16 36 16 C37 19 37 19 36 21 C36.7 21 37.3 21 38 21 C38.2 21.5 38.2 21.5 39 24 C38.3 24 37.7 24 37 24 C37 23.3 37 22.7 37 22 C36.3 22 35.7 22 35 22 C35.2 22.5 35.2 22.5 36 25 C34 25.3 32.1 25.7 30.1 26 C29 26.2 27.9 26.4 26.8 26.6 C24 27 24 27 22 27 C21.4 27 21.4 27 18.6 27.1 C17.2 27.2 15.9 27.2 14.5 27.2 C13.8 27.3 13.1 27.3 12.4 27.4 C7.4 27.4 7.4 27.4 5.5 25.1 C5 23 5 23 6 21 C6.7 21 7.3 21 8 21 C8.1 20.4 8.2 19.7 8.4 19.1 C9 17 9 17 10.9 16.2 C13 16 13 16 15 16 C15 16.7 15 17.3 15 18 C14.3 18 13.7 18 13 18 C13.3 18.7 13.7 19.3 14 20 C15 19 16 18 17 17 C16.8 17.8 16.7 18.6 16.5 19.4 C16 22 16 22 16 23 C16.7 23 17.3 23 18 23 C18.3 22 18.7 21 19 20 C19.3 21 19.7 22 20 23 C20.6 21.7 21.1 20.4 21.7 19.1 C22 18.4 22.3 17.7 22.6 16.9 C22.8 16.3 22.9 15.7 23 15 C19.4 12.6 17.1 12.6 12.8 12.4 C11.5 12.3 10.3 12.2 9 12.1 C8 12.1 7 12.1 6 12 C6.2 9.5 6.2 9.5 7 7 C8.3 7 9.6 7 11 7 C10.7 6 10.3 5 10 4 C9.7 4.2 9.7 4.2 8 5 C8 4 8 3 8 2 C5 3.5 4.9 5.9 4 9 C1.7 5.5 2 4.9 3 1 C2 0.7 1 0.3 0 0 Z " fill="#CCA257" transform="translate(89,27)"/>
<path d="M0 0 C-0 0.7 -0 1.4 -0.1 2.1 C-0.1 5.2 -0.2 8.3 -0.2 11.4 C-0.3 12.5 -0.3 13.6 -0.4 14.7 C-0.4 15.8 -0.4 16.8 -0.4 17.9 C-0.4 18.8 -0.4 19.8 -0.5 20.8 C0 23 0 23 2 23.8 C2.7 23.9 3.3 23.9 4 24 C3.9 23.2 3.8 22.4 3.7 21.6 C4 19 4 19 5.8 17.8 C6.6 17.5 7.5 17.3 8.3 17 C9.2 16.7 10.1 16.4 11 16.1 C12 15.8 12.9 15.5 13.9 15.2 C14.8 14.9 15.7 14.6 16.7 14.2 C23.6 12 23.6 12 26 12 C26 12.7 26 13.3 26 14 C27.7 14 29.3 14 31 14 C27 16.7 22.8 18.2 18.4 20 C17.9 20.2 17.9 20.2 15.8 21.1 C0.3 27.3 0.3 27.3 -5.7 24.7 C-8.1 23.7 -10.1 23 -12.6 22.6 C-17.4 21.8 -21.9 20.2 -26.4 18.6 C-27.4 18.3 -28.3 18 -29.2 17.7 C-34.3 16 -39.1 14.1 -44 12 C-49.6 9.9 -55.2 8.4 -61 7 C-61.3 12.3 -61.7 17.6 -62 23 C-62.3 23 -62.7 23 -63 23 C-63.1 20 -63.2 17 -63.3 14.1 C-63.4 13.2 -63.4 12.4 -63.4 11.5 C-63.5 9.2 -63.5 7.2 -63 5 C-60.8 4 -60.8 4 -58 4 C-57.6 4 -57.6 4 -55.7 3.8 C-48.8 3.5 -42.2 4.7 -36 8 C-35.5 8.9 -35 9.7 -34.5 10.6 C-32.3 14 -30.8 13.5 -26.9 13.4 C-17.9 13.7 -10.3 16.7 -2 20 C-2 19.4 -2 18.9 -2 18.3 C-2 15.7 -2 13.1 -2.1 10.6 C-2.1 9.7 -2.1 8.8 -2.1 7.8 C-2.1 7 -2.1 6.1 -2.1 5.3 C-2.1 4.5 -2.1 3.7 -2.1 2.9 C-1.9 0 -1.9 0 0 0 Z " fill="#9E6C33" transform="translate(103,77)"/>
<path d="M0 0 C-1.6 0.7 -3.2 1.3 -4.9 2 C-5.8 2.4 -6.7 2.7 -7.6 3.1 C-10 4 -10 4 -12 4 C-12 4.7 -12 5.3 -12 6 C-10.7 6.4 -9.3 6.7 -8 7 C-6.5 7.6 -5.1 8.2 -3.7 8.8 C-2.9 9.2 -2.1 9.6 -1.2 9.9 C-0.4 10.3 0.4 10.7 1.2 11.1 C1.7 11.3 1.7 11.3 3.8 12.2 C5.9 13.1 7.9 14.1 10 15 C7 16 7 16 5 15 C5.3 16.7 5.7 18.3 6 20 C1.2 19.1 1.2 19.1 -1 18 C-1.3 19 -1.7 20 -2 21 C-2 20.7 -2 20.7 -2.1 19.1 C-3.5 15.9 -5.8 15.8 -9 15 C-9 16.3 -9 17.6 -9 19 C-6 20.2 -6 20.2 -3 21 C-4 21.3 -5 21.7 -6 22 C-5.5 25.8 -4.4 26.7 -0.9 28.2 C-0.2 28.6 0.5 28.9 1.3 29.3 C1.6 29.4 1.6 29.4 3 30 C3.3 28.7 3.7 27.4 4 26 C4.3 28 4.7 30 5 32 C0.2 31.1 0.2 31.1 -2 30 C-2.4 32.4 -2.4 32.4 -2 35 C0.7 36.2 0.7 36.2 4 37 C5.3 37.6 6.7 38.3 8 39 C8.3 38.3 8.7 37.7 9 37 C9.3 38.3 9.7 39.6 10 41 C9.6 40.9 9.6 40.9 7.6 40.4 C5 40 5 40 3 41 C3 40 3 39 3 38 C0.1 36.9 0.1 36.9 -3 36 C-3.7 35.7 -4.3 35.3 -5 35 C-5.7 36.3 -6.3 37.6 -7 39 C-6.9 38 -6.8 37.1 -6.7 36.1 C-6.8 35.1 -6.9 34 -7 33 C-9.4 32.2 -9.4 32.2 -12 32 C-12.7 31.7 -13.3 31.3 -14 31 C-14.2 33 -14.5 35 -14.7 36.9 C-14.8 38 -14.9 39.1 -15.1 40.3 C-15 41.2 -15 42.1 -15 43 C-14 43.3 -13 43.7 -12 44 C-12.5 44.2 -12.5 44.2 -15 45 C-16.6 43.4 -16.2 41.7 -16.3 39.5 C-16.4 38.6 -16.4 37.7 -16.4 36.7 C-16.5 35.7 -16.5 34.7 -16.6 33.7 C-16.6 32.7 -16.6 31.7 -16.7 30.7 C-17.3 15.4 -17.3 15.4 -17 10 C-17 9 -16.9 7.9 -16.9 6.9 C-15.6 2.7 -13.6 2.4 -9.6 1.1 C-8.5 0.6 -7.3 0.2 -6.1 -0.2 C-3 -1 -3 -1 0 0 Z " fill="#9A8773" transform="translate(18,131)"/>
<path d="M0 0 C5.7 -0.2 10.7 0.4 16.3 1.6 C19.9 2.2 23.3 2.1 27 2 C28 2.3 29 2.7 30 3 C31.8 3 33.6 3 35.3 2.9 C36.4 2.8 37.4 2.8 38.4 2.7 C39 2.7 39 2.7 41.7 2.6 C42.2 2.5 42.2 2.5 45 2.4 C47.6 2.3 50.3 2.1 53 2 C53 2.3 53 2.7 53 3 C50.7 3.6 48.4 4.1 46.1 4.6 C44.8 4.9 43.6 5.2 42.3 5.5 C39 6 39 6 37 5 C37 13.9 37 22.8 37 32 C36 32 35 32 34 32 C33.7 24.7 33.3 17.5 33 10 C32.7 10 32.3 10 32 10 C32 9.6 32 9.6 31.7 7.5 C31 5 31 5 29 4.4 C28.2 4.4 27.3 4.4 26.4 4.4 C25.5 4.4 24.6 4.5 23.6 4.5 C22.6 4.5 21.6 4.5 20.6 4.6 C19.7 4.6 18.7 4.6 17.7 4.6 C10.4 4.7 10.4 4.7 7 7 C6.5 10 6.5 10 6.5 13.6 C6.5 14.7 6.4 15.9 6.4 17.1 C6.5 17.6 6.5 17.6 7 20 C9.5 20.8 9.5 20.8 12 21 C12 21.7 12 22.3 12 23 C10.2 23.1 8.5 23.2 6.7 23.3 C5.7 23.4 4.7 23.4 3.7 23.5 C-0 22.8 -0.2 21.2 -2 18 C-4.8 16.7 -4.8 16.7 -8 15.9 C-14.9 14 -14.9 14 -17 11 C-16.7 10.3 -16.3 9.7 -16 9 C-15.2 9.2 -14.4 9.4 -13.5 9.6 C-8.9 10.1 -5.1 9.2 -1 7 C-0.7 6 -0.3 5 0 4 C-2.3 4.7 -4.6 5.3 -7 6 C-5.5 2.9 -3.2 3.4 0 3 C0 2 0 1 0 0 Z " fill="#543926" transform="translate(69,68)"/>
<path d="M0 0 C3.8 1.4 7 3.2 10.3 5.5 C11.2 6.1 12.1 6.7 13 7.3 C15 9 15 9 15 11 C16.7 11.7 18.3 12.4 20 13 C22.4 14.6 22.4 14.6 24.8 16.3 C25.5 16.9 26.3 17.5 27.1 18.1 C29.3 20.4 29.9 21.8 30 25 C29.7 25.2 29.7 25.2 28 26 C27.6 24.9 27.3 23.9 26.9 22.8 C24.7 17.5 20.4 14.8 15 13 C14.8 13.8 14.5 14.5 14.3 15.3 C10.9 22.5 0.1 25.4 -7 28 C-6.7 28.6 -6.4 29.3 -6.1 29.9 C-5.7 30.7 -5.3 31.5 -4.9 32.4 C-4.6 33.2 -4.2 34 -3.8 34.8 C-3 37 -3 37 -4 39 C-4.8 37.7 -5.7 36.5 -6.5 35.2 C-7 34.5 -7.4 33.8 -7.9 33 C-9 31 -9 31 -9 28 C-10 27.7 -11 27.3 -12 27 C-10.7 26.7 -9.4 26.3 -8 26 C-8.3 25.3 -8.7 24.7 -9 24 C-8.4 23.8 -7.7 23.7 -7 23.5 C-6.2 23.2 -5.4 23 -4.5 22.8 C-3.7 22.5 -2.8 22.3 -2 22 C-1.3 21.7 -0.7 21.4 0 21 C0 19.7 0 18.4 0 17 C0.7 17 1.3 17 2 17 C2 18 2 19 2 20 C3.3 19.7 4.6 19.3 6 19 C3.7 17.7 1.4 16.4 -1 15 C-1 15.7 -1 16.3 -1 17 C-1.7 17.3 -2.3 17.7 -3 18 C-4.1 20.1 -4.1 20.1 -5 22 C-5.7 21.7 -6.3 21.3 -7 21 C-7.3 21.7 -7.7 22.3 -8 23 C-8 21.4 -8 19.7 -8 18 C-7.3 18 -6.7 18 -6 18 C-6.1 17.6 -6.1 17.6 -6.3 15.6 C-6 13 -6 13 -3.5 11.7 C-3.1 11.6 -3.1 11.6 -1 11 C-2.9 10.4 -2.9 10.4 -5 10 C-6 12 -6 12 -6.4 14.1 C-6.6 14.7 -6.8 15.4 -7 16 C-9 16 -9 16 -11 14 C-11.7 13.7 -12.3 13.3 -13 13 C-13.3 13.7 -13.7 14.3 -14 15 C-15 15 -16 15 -17 15 C-17 13.7 -17 12.4 -17 11 C-14.5 9.6 -14.5 9.6 -11.2 8.4 C-1.6 4.9 -1.6 4.9 0 0 Z " fill="#734F30" transform="translate(140,26)"/>
<path d="M0 0 C-1 2 -1 2 -4 3 C-4.2 5.6 -4.2 5.6 -4 8 C-4.7 8 -5.3 8 -6 8 C-6 8.7 -6 9.3 -6 10 C-5.3 10 -4.7 10 -4 10 C-3.8 9.2 -3.7 8.4 -3.5 7.5 C-3.3 6.7 -3.2 5.9 -3 5 C-2.3 5 -1.7 5 -1 5 C-0.7 4.3 -0.3 3.7 0 3 C0.8 3.5 1.6 4 2.4 4.6 C5 6 5 6 7 5 C7 6 7 7 7 8 C5 8.7 5 8.7 3 9 C3 8 3 7 3 6 C2.8 6.8 2.6 7.6 2.4 8.4 C0.5 11.9 -1.3 12 -5 13 C-5 13.7 -5 14.3 -5 15 C-9.6 17.4 -11.9 18.4 -17 17 C-17.3 17.7 -17.7 18.3 -18 19 C-24 20.7 -30.5 20.2 -36.7 20.2 C-37.9 20.2 -39.1 20.2 -40.4 20.2 C-55.7 20.2 -55.7 20.2 -61 18 C-62.6 13.8 -62.6 10.8 -60 7 C-59.8 8.1 -59.6 9.3 -59.4 10.4 C-58 14 -58 14 -55 15.2 C-52 15 -52 15 -50.8 13.1 C-50.5 12.4 -50.3 11.7 -50 11 C-49.3 11 -48.7 11 -48 11 C-47.7 12 -47.3 13 -47 14 C-46.7 13 -46.3 12 -46 11 C-45.3 11 -44.7 11 -44 11 C-43.7 13 -43.3 15 -43 17 C-42.7 16.9 -42.7 16.9 -41.4 16.5 C-37.5 15.7 -33.6 15.6 -29.6 16.6 C-29.1 16.7 -28.6 16.9 -28 17 C-27.7 16.3 -27.3 15.7 -27 15 C-26.3 15.3 -25.7 15.7 -25 16 C-22.6 15.7 -22.6 15.7 -19.9 15.2 C-19 15 -18.1 14.8 -17.1 14.7 C-16.4 14.4 -15.7 14.2 -15 14 C-15 13.3 -15 12.7 -15 12 C-14.3 12 -13.7 12 -13 12 C-13.2 11.8 -13.2 11.8 -14 11 C-14.2 10.5 -14.2 10.5 -15 8 C-16 8 -17 8 -18 8 C-18.7 8 -19.3 8 -20 8 C-19.7 6.7 -19.3 5.4 -19 4 C-20 4.3 -21 4.7 -22 5 C-22 3.7 -22 2.4 -22 1 C-16.4 -0.2 -16.4 -0.2 -13 2 C-14 2 -15 2 -16 2 C-14.7 2 -13.4 2 -12 2 C-10.7 1.7 -9.3 1.4 -8 1 C-8 2.3 -8 3.6 -8 5 C-7.9 4.2 -7.8 3.4 -7.7 2.6 C-6.5 -1.8 -3.7 -1.1 0 0 Z " fill="#976D3A" transform="translate(139,37)"/>
<path d="M0 0 C0.6 0.6 1.2 1.3 1.8 1.9 C8.3 8.1 22.3 8.2 31 8 C31.3 7.3 31.7 6.7 32 6 C37.1 7.8 39.6 8.9 42 14 C41.3 12 40.7 10 40 8 C41.3 7.4 42.5 6.7 43.8 6.1 C44.5 5.7 45.2 5.3 46 5 C51.3 2.4 53.3 4.1 58 7 C59.3 7.7 60.7 8.4 62 9 C59.2 15.5 53.1 18 46.8 20.1 C42.2 20 39.9 17.6 37.7 13.8 C37 12 37 12 37 11 C36.7 11 36.7 11 35.3 11 C8.7 11.7 8.7 11.7 0.6 5.8 C-2.7 3.5 -4.3 3.9 -8 5 C-3.2 0 -3.2 0 0 0 Z " fill="#956D39" transform="translate(79,17)"/>
<path d="M0 0 C2.3 0.1 4.6 0.1 6.9 0.1 C13.5 0.5 13.5 0.5 15.5 2.6 C16.2 4.5 16.2 4.5 17 8 C17.7 8.3 18.3 8.7 19 9 C19 9.7 19 10.3 19 11 C9.5 14.7 -5.8 12.5 -14.4 7.6 C-16 6 -16 6 -16 4 C-12.9 -2.2 -5.6 -2.8 0 0 Z " fill="#CA9F5B" transform="translate(95,13)"/>
<path d="M0 0 C0 14.5 0 29 0 44 C-9 39.5 -8.7 33.1 -9.4 23.6 C-9.7 15.8 -9.7 9 -4 3 C-3.5 2.4 -2.9 1.9 -2.4 1.3 C-1 0 -1 0 0 0 Z " fill="#E9AF4A" transform="translate(39,92)"/>
<path d="M0 0 C11.6 3.6 11.6 3.6 15 6 C15.4 9.2 15.4 9.2 15 12 C15.7 12 16.3 12 17 12 C18.6 13.5 18.6 13.5 20 15 C20.3 12.7 20.7 10.4 21 8 C21.5 8.2 21.5 8.2 24 9 C23.3 9 22.7 9 22 9 C21.6 14.5 21.6 14.5 22 17 C24.5 18 24.5 18 27 18 C26 17.3 25 16.7 24 16 C23.8 13.4 23.8 13.4 24 11 C30.3 13 36.6 15.2 42 19 C42.4 22.8 42.4 22.8 42 26 C44.5 27.4 44.5 27.4 47 28 C42.7 29.4 40.1 27.4 36.2 25.4 C35.4 25.1 34.7 24.7 33.9 24.3 C31.4 23.1 28.9 21.8 26.4 20.6 C23.9 19.4 21.5 18.2 19.1 17 C17.5 16.2 15.8 15.4 14.2 14.6 C6.2 10.6 -1.9 6.8 -10 3 C-5.8 1.6 -3.9 3.2 0 5 C0 3.3 0 1.7 0 0 Z " fill="#6A5A52" transform="translate(16,174)"/>
<path d="M0 0 C0 0.7 0 1.3 0 2 C-0.7 2.3 -1.3 2.5 -2 2.8 C-2.7 3.2 -3.3 3.6 -4 4 C-4 4.8 -4 5.7 -3.9 6.5 C-4 7.3 -4 8.2 -4 9 C-4.4 9.2 -4.4 9.2 -6.6 9.9 C-7.4 10.3 -8.2 10.6 -9 11 C-8.9 11.5 -8.9 11.5 -8.5 13.9 C-8.4 14.4 -8.4 14.4 -8 17 C-10.4 18.9 -11.9 20 -15 20 C-15.1 22.4 -15.1 22.4 -15 25 C-14.3 25.3 -13.7 25.7 -13 26 C-15.6 27.4 -18.2 28.7 -20.8 30.1 C-21.6 30.5 -22.3 30.8 -23 31.2 C-23.8 31.6 -24.5 32 -25.2 32.3 C-25.9 32.7 -26.5 33 -27.2 33.4 C-29 34 -29 34 -32 33 C-30.9 32.6 -29.9 32.1 -28.8 31.6 C-27.4 31 -26 30.4 -24.6 29.8 C-24.2 29.7 -24.2 29.7 -22.4 28.9 C-17.3 26.6 -17.3 26.6 -15.9 23.3 C-15.9 22.6 -16 21.8 -16 21 C-16.7 20.7 -17.3 20.3 -18 20 C-12.2 17 -12.2 17 -10 17 C-10.2 16.3 -10.2 16.3 -11 13 C-13.3 13.7 -15.6 14.3 -18 15 C-18 13.3 -18 11.7 -18 10 C-18.6 10.3 -19.2 10.5 -19.8 10.8 C-22.5 12.1 -25.2 13.3 -27.9 14.5 C-28.3 14.7 -28.3 14.7 -30.7 15.8 C-31.6 16.2 -32.5 16.6 -33.4 17 C-34.3 17.4 -35.1 17.8 -35.9 18.2 C-38 19 -38 19 -40 19 C-39.7 19.9 -39.5 20.9 -39.2 21.8 C-39 25 -39 25 -41.4 26.6 C-41.9 26.9 -41.9 26.9 -44 28 C-44 29.3 -44 30.6 -44 32 C-43.2 31.6 -42.5 31.3 -41.7 30.9 C-40.7 30.4 -39.7 29.9 -38.6 29.4 C-37.6 29 -36.6 28.5 -35.6 28 C-33 27 -33 27 -31 28 C-33.6 29.3 -36.1 30.6 -38.7 31.9 C-39.4 32.3 -40.1 32.7 -40.9 33.1 C-44.6 34.9 -47.8 36.5 -52 37 C-50.4 35.3 -49.1 34.1 -47 33 C-46.7 31.7 -46.3 30.4 -46 29 C-47.5 29.5 -47.5 29.5 -55 32 C-52.3 29.3 -50.8 28.3 -47.4 26.8 C-46.7 26.5 -45.9 26.1 -45.1 25.8 C-43 25 -43 25 -41 25 C-41.3 23.1 -41.3 23.1 -42 21 C-43 20.7 -44 20.3 -45 20 C-44.3 19.7 -43.7 19.3 -43 19 C-43.9 18.9 -44.9 18.7 -45.8 18.6 C-49 18 -49 18 -52 17 C-50.2 16.1 -48.5 15.3 -46.7 14.4 C-45.7 14 -44.7 13.5 -43.7 13 C-41 12 -41 12 -38 13 C-38.3 13.2 -38.3 13.2 -40 14 C-40.6 16.1 -40.6 16.1 -41 18 C-40.5 17.8 -40 17.5 -39.5 17.3 C-30.1 12.8 -20.6 8.3 -11 4.3 C-8.9 3.4 -6.8 2.4 -4.7 1.3 C-2 0 -2 0 0 0 Z " fill="#5D4D50" transform="translate(188,141)"/>
<path d="M0 0 C-0.1 1.1 -0.3 2.2 -0.4 3.3 C0 7 0 7 3.1 8.8 C4.4 9.2 5.7 9.6 7 9.9 C7.7 10.1 8.3 10.4 9 10.6 C10.7 11.1 12.3 11.5 14 12 C11.6 14.4 9.7 15 6.5 16.1 C6 16.3 6 16.3 3.5 17.2 C1 18 1 18 -1 18 C-1.1 18.4 -1.1 18.4 -1.3 20.5 C-1.5 21.3 -1.8 22.2 -2 23 C-4.6 23.3 -4.6 23.3 -7 23 C-7 22.3 -7 21.7 -7 21 C-8.7 21.3 -10.3 21.7 -12 22 C-11.3 21.6 -10.7 21.3 -10 20.9 C-7.2 18.3 -7.5 16.6 -7.6 12.9 C-7.6 12.3 -7.6 12.3 -7.7 9.6 C-8 7 -8 7 -10 6 C-10 5.3 -10 4.7 -10 4 C-12 3.4 -12 3.4 -14 3 C-9.1 1 -5.4 -0.4 0 0 Z " fill="#412C22" transform="translate(136,68)"/>
<path d="M0 0 C4 1.7 7.9 3.5 11.9 5.2 C14.2 6.2 16.5 7.2 18.9 8.2 C27 11.8 27 11.8 30 14 C30 17 30 17 28.4 18.4 C24.7 19.3 22.6 17.8 19.2 16.1 C18.1 15.6 16.9 15 15.7 14.4 C14.8 13.9 13.9 13.5 13 13 C13 14.7 13 16.3 13 18 C11 17.8 11 17.8 8 17 C7.3 16.8 6.6 16.7 5.9 16.5 C3.3 15.6 1.9 15 0 13 C-0.7 8.6 -0.5 4.4 0 0 Z " fill="#B2A188" transform="translate(3,161)"/>
<path d="M0 0 C1.5 0.5 2.9 1 4.4 1.4 C5.2 1.7 6 2 6.8 2.2 C9 3 9 3 11 4 C11.6 7.6 11.5 11.2 11.6 14.8 C11.6 15.3 11.6 15.3 11.7 17.9 C11.8 26.2 11.8 26.2 7.7 28.8 C4 30 4 30 1 29 C0.7 26.1 0.7 26.1 0.9 22.3 C0.9 21 0.9 19.6 1 18.2 C1 17.5 1 16.8 1 16.1 C1 10.7 0.5 5.4 0 0 Z " fill="#3F2C36" transform="translate(65,117)"/>
<path d="M0 0 C0.7 0.4 1.4 0.7 2.1 1.1 C4.1 2 6 3 8 4 C6.7 6.6 5.4 9.3 4 12 C6.7 12 7.2 10.9 9 9 C9.1 9.8 9.3 10.6 9.4 11.4 C10 14 10 14 11 16 C1.9 16.8 -7.8 13.8 -14 7 C-14 2.9 -12.7 2.8 -9.2 0.7 C-8.4 0.1 -7.5 -0.4 -6.6 -1 C-3.4 -2.2 -2.8 -1.9 0 0 Z " fill="#D5AC5F" transform="translate(79,22)"/>
<path d="M0 0 C3 3 6 6 9 9 C8.5 8 8.5 8 6 3 C22.1 10.9 22.1 10.9 24 15.3 C24.1 17.4 24.1 17.4 23 21 C21.1 22.1 21.1 22.1 19 22 C18.3 21.3 17.7 20.7 17 20 C17.3 22.3 17.7 24.6 18 27 C14.5 25.8 14.1 25.1 12.2 22.1 C11.6 21.3 11.1 20.5 10.6 19.7 C10 18.8 9.5 18 8.9 17.1 C8.4 16.3 7.9 15.5 7.3 14.6 C6.3 13.1 5.3 11.5 4.3 10 C3.2 8.3 2.1 6.7 1 5 C0.7 10.6 0.3 16.2 0 22 C-0.3 22 -0.7 22 -1 22 C-1 18.7 -1 15.4 -1.1 12.1 C-1.1 11.7 -1.1 11.7 -1.1 9.3 C-1.1 8.4 -1.1 7.5 -1.1 6.6 C-1.1 5.7 -1.1 4.9 -1.1 4.1 C-1 2 -1 2 0 0 Z " fill="#C3AD94" transform="translate(21,58)"/>
<path d="M0 0 C-3.8 3 -3.8 3 -6 3 C-2.8 10.3 3.7 11.8 10.9 13.3 C15.8 14.5 15.8 14.5 17.2 18.7 C17.2 19.2 17.2 19.2 17 22 C16.3 21 15.7 20 15 19 C14.3 20 13.7 21 13 22 C13 21.3 13 20.7 13 20 C11.3 20 9.7 20 8 20 C8.3 19 8.7 18 9 17 C8 17.3 7 17.7 6 18 C6 17.3 6 16.7 6 16 C5 16.3 4 16.7 3 17 C3 16.3 3 15.7 3 15 C2 15.3 1 15.7 0 16 C-1.6 14.6 -1.6 14.6 -3 13 C-3.3 13 -3.7 13 -4 13 C-4 13.7 -4 14.3 -4 15 C-5 15 -6 15 -7 15 C-7.7 17.5 -7.7 17.5 -8 20 C-8.7 19.7 -9.3 19.3 -10 19 C-10 18.7 -10 18.3 -10 18 C-10.7 18.3 -11.3 18.7 -12 19 C-12.3 18.3 -12.7 17.7 -13 17 C-14 17 -15 17 -16 17 C-15.7 16 -15.3 15 -15 14 C-15.7 13.7 -16.3 13.3 -17 13 C-15.7 7.3 -11.6 5.1 -7 2 C-6.1 1.4 -5.1 0.7 -4.1 0.1 C-2 -1 -2 -1 0 0 Z M-12 20 C-11.3 20.3 -10.7 20.7 -10 21 C-10.3 21.7 -10.7 22.3 -11 23 C-12 22.7 -13 22.3 -14 22 C-13.3 21.3 -12.7 20.7 -12 20 Z " fill="#9A743F" transform="translate(71,23)"/>
<path d="M0 0 C0.6 0.5 1.3 1.1 1.9 1.6 C2.5 2.2 3.2 2.7 3.8 3.2 C5.3 4.9 5.3 4.9 5.3 7.9 C3.6 8.9 2 9.9 0.3 10.9 C-1.1 12.2 -2.4 13.5 -3.7 14.9 C-2.7 15.6 -1.7 16.2 -0.7 16.9 C-0.4 16.3 -0.1 15.7 0.2 15 C0.9 13.6 1.6 12.3 2.3 10.9 C2.9 10.9 3.6 10.9 4.3 10.9 C3.9 11.8 3.6 12.8 3.3 13.8 C2.3 16.9 2.3 16.9 2.3 18.9 C2.9 18.9 3.6 18.9 4.3 18.9 C5.4 16.9 5.4 16.9 6.3 14.9 C7.3 16.9 7.3 16.9 5.8 19.7 C3.3 21.9 3.3 21.9 -0.6 21 C-4.6 19.2 -7.6 16.9 -10.7 13.9 C-10.7 13.2 -10.7 12.6 -10.7 11.9 C-11.4 11.9 -12 11.9 -12.7 11.9 C-12.2 7.6 -11.1 5.9 -7.8 3.1 C-7.1 2.5 -6.4 2 -5.6 1.3 C-2.1 -1.3 -2.1 -1.3 0 0 Z " fill="#D9AE61" transform="translate(49.7265625,40.109375)"/>
<path d="M0 0 C-2.9 4.4 -4.7 5.6 -10 6 C-10 6.7 -10 7.3 -10 8 C-9.4 8.1 -8.7 8.2 -8.1 8.4 C-3.7 9.3 2.9 10.8 5 15 C6.6 15.7 8.3 16.4 10 17 C8.7 18.6 8.7 18.6 7 20 C-1.7 17.9 -9.9 13.7 -18 10 C-18.8 9.6 -19.6 9.3 -20.5 8.9 C-22 8 -22 8 -22 6 C-19.7 4.8 -17.4 3.8 -14.9 2.9 C-14.3 2.6 -13.6 2.3 -12.9 2 C-8.4 0.2 -4.9 -0.3 0 0 Z " fill="#D7C9B2" transform="translate(28,129)"/>
</svg>
