<svg xmlns="http://www.w3.org/2000/svg" viewBox="0 0 64 32" width="64" height="32" shape-rendering="geometricPrecision"><defs><clipPath id="c26641"><path d="M32 0L64 16L32 32L0 16Z"/></clipPath></defs><g clip-path="url(#c26641)"><path d="M32 0L64 16L32 32L0 16Z" fill="#bea080"/><path d="M29.7 21.2 l-1.1 -2.4 M29.7 21.2 l0 -2.8 M29.7 21.2 l1.1 -2.4" stroke="#744c2d" stroke-width=".55" fill="none" opacity=".55"/><path d="M43.4 18.6 l-1.1 -2.4 M43.4 18.6 l0 -2.8 M43.4 18.6 l1.1 -2.4" stroke="#744c2d" stroke-width=".55" fill="none" opacity=".55"/><path d="M47.0 8.7 l-1.1 -2.4 M47.0 8.7 l0 -2.8 M47.0 8.7 l1.1 -2.4" stroke="#744c2d" stroke-width=".55" fill="none" opacity=".55"/><path d="M36.3 15.6 l-1.1 -2.4 M36.3 15.6 l0 -2.8 M36.3 15.6 l1.1 -2.4" stroke="#744c2d" stroke-width=".55" fill="none" opacity=".55"/><path d="M57.7 17.0 l-1.1 -2.4 M57.7 17.0 l0 -2.8 M57.7 17.0 l1.1 -2.4" stroke="#744c2d" stroke-width=".55" fill="none" opacity=".55"/><path d="M44.3 13.0 l-1.1 -2.4 M44.3 13.0 l0 -2.8 M44.3 13.0 l1.1 -2.4" stroke="#744c2d" stroke-width=".55" fill="none" opacity=".55"/><path d="M51.8 12.5 l-1.1 -2.4 M51.8 12.5 l0 -2.8 M51.8 12.5 l1.1 -2.4" stroke="#744c2d" stroke-width=".55" fill="none" opacity=".55"/></g></svg>
